<?xml version="1.0" standalone="no"?>
<!DOCTYPE svg PUBLIC "-//W3C//DTD SVG 1.1//EN" "http://www.w3.org/Graphics/SVG/1.1/DTD/svg11.dtd" >
<svg xmlns="http://www.w3.org/2000/svg" xmlns:xlink="http://www.w3.org/1999/xlink" version="1.1">
<metadata>
Created by FontForge 20170731 at Sun Feb 10 18:12:38 2019
 By kevin
Typeface (c) The Monotype Corporation plc. Data (c) The Monotype Corporation plc / Type Solutions Inc. 1990-91 All Rights Reserved
</metadata>
<defs>
<font id="Weezer2" horiz-adv-x="712" >
  <font-face 
    font-family="Weezer"
    font-weight="400"
    font-stretch="normal"
    units-per-em="1000"
    panose-1="2 11 5 2 2 2 2 2 2 4"
    ascent="800"
    descent="-200"
    x-height="531"
    cap-height="718"
    bbox="-169 -307 1152 1059.3"
    underline-thickness="58.1055"
    underline-position="-182.617"
    unicode-range="U+0020-F108"
  />
<missing-glyph horiz-adv-x="750" 
d="M125 0v625h500v-625h-500zM141 16h468v593h-468v-593z" />
    <glyph glyph-name=".notdef" horiz-adv-x="750" 
d="M125 0v625h500v-625h-500zM141 16h468v593h-468v-593z" />
    <glyph glyph-name=".null" horiz-adv-x="0" 
 />
    <glyph glyph-name="nonmarkingreturn" horiz-adv-x="276" 
 />
    <glyph glyph-name="space" unicode=" " horiz-adv-x="276" 
 />
    <glyph glyph-name="exclam" unicode="!" horiz-adv-x="294" 
d="M182 736v-556h-71v556h71zM147 107q25 0 43 -17.5t18 -42.5t-18 -43t-43 -18t-42.5 18t-17.5 43t17.5 42.5t42.5 17.5z" />
    <glyph glyph-name="quotedbl" unicode="&#x22;" horiz-adv-x="309" 
d="M274 510h-50l-11 226h73zM85 510h-51l-11 226h73z" />
    <glyph glyph-name="numbersign" unicode="#" horiz-adv-x="720" 
d="M602 294v-53h-121l-35 -241h-55l35 241h-162l-37 -241h-54l37 241h-120v53h128l25 163h-123v53h131l34 229h52l-33 -229h162l34 229h54l-33 -229h109v-53h-117l-24 -163h113zM459 457h-163l-24 -163h162z" />
    <glyph glyph-name="dollar" unicode="$" horiz-adv-x="554" 
d="M259 769h64v-54q48 -9 82 -31t65 -66l-53 -43q-38 58 -94 71v-244q128 -67 159 -110q40 -54 40 -118q0 -54 -29.5 -98.5t-79.5 -69.5q-33 -16 -90 -24v-152h-64v152q-60 5 -96 19.5t-70.5 43t-57.5 65.5l52 40q68 -90 172 -100v302q-77 38 -97 51q-42 28 -61.5 63
t-19.5 80q0 44 22 82t59.5 61t96.5 29v51zM259 650q-37 -3 -59 -16t-35 -36t-13 -50q0 -35 20 -60q27 -33 87 -60v222zM323 52q59 8 94.5 42.5t35.5 77.5q0 42 -27 78t-103 76v-274z" />
    <glyph glyph-name="percent" unicode="%" horiz-adv-x="774" 
d="M674 750l-523 -800h-65l476 729q-84 -21 -206 -21l-26 1q30 -42 30 -89q0 -67 -46.5 -120t-123.5 -53q-71 0 -119.5 49.5t-48.5 119.5q0 47 22 85t62.5 61.5t83.5 23.5q18 0 60 -8q63 -14 137 -14q55 0 103.5 7t126.5 29h57zM191 674q-44 0 -75.5 -31.5t-31.5 -75.5
t31.5 -75.5t75.5 -31.5t76 31t32 76q0 44 -32 75.5t-76 31.5zM583 317q70 0 119.5 -49.5t49.5 -119.5t-49.5 -119.5t-119.5 -49.5t-119 49.5t-49 119.5t49 119.5t119 49.5zM583 255q-44 0 -75 -31.5t-31 -75.5t31 -75.5t75 -31.5t76 31.5t32 75.5t-32 75.5t-76 31.5z" />
    <glyph glyph-name="ampersand" unicode="&#x26;" horiz-adv-x="756" 
d="M631 266l49 -52q-47 -42 -85 -72q25 -26 72 -74q37 -37 64 -68h-100l-92 96q-93 -70 -149.5 -92t-118.5 -22q-83 0 -133.5 47.5t-50.5 118.5q0 54 34 108t139 137q-59 71 -76 105t-17 64q0 54 41 89q48 41 120 41q45 0 82 -18t56.5 -48.5t19.5 -64.5q0 -36 -25.5 -77
t-100.5 -104l109 -114l75 -75q54 45 87 75zM316 434q52 41 79 79q19 27 18 49q0 25 -24 43.5t-64 18.5q-38 0 -62 -19t-24 -44q0 -20 10 -37q24 -41 67 -90zM307 338q-91 -69 -119.5 -109.5t-28.5 -75.5q0 -41 35 -72.5t85 -31.5q38 0 75 16q58 25 136 81l-117 120
q-30 30 -66 72z" />
    <glyph glyph-name="quotesingle" unicode="'" horiz-adv-x="197" 
d="M124 510h-50l-11 226h72z" />
    <glyph glyph-name="parenleft" unicode="(" horiz-adv-x="369" 
d="M229 750h80q-48 -98 -77 -229t-29 -270q0 -129 22 -248.5t60 -210.5h-76q-36 87 -57.5 204.5t-21.5 245.5q0 137 25.5 267t73.5 241z" />
    <glyph glyph-name="parenright" unicode=")" horiz-adv-x="369" 
d="M140 -208h-79q48 98 76.5 229t28.5 270q0 129 -21.5 248.5t-60.5 210.5h76q37 -87 58 -205t21 -245q0 -137 -25.5 -267t-73.5 -241z" />
    <glyph glyph-name="asterisk" unicode="*" horiz-adv-x="424" 
d="M180 736h64l-15 -145l121 86l32 -54l-135 -61l135 -61l-32 -55l-121 85l15 -145h-64l15 145l-120 -85l-32 55l137 61l-137 61l32 54l120 -86z" />
    <glyph glyph-name="plus" unicode="+" horiz-adv-x="605" 
d="M270 393v211h66v-211h214v-67h-214v-212h-66v212h-214v67h214z" />
    <glyph glyph-name="comma" unicode="," horiz-adv-x="276" 
d="M144 132l66 -31l-99 -185l-49 21z" />
    <glyph glyph-name="hyphen" unicode="-" horiz-adv-x="332" 
d="M32 300h268v-60h-268v60z" />
    <glyph glyph-name="hyphen" unicode="&#xad;" horiz-adv-x="332" 
d="M32 300h268v-60h-268v60z" />
    <glyph glyph-name="period" unicode="." horiz-adv-x="276" 
d="M151 107q25 0 42.5 -17.5t17.5 -42.5t-17.5 -43t-42.5 -18t-42.5 18t-17.5 43t17.5 42.5t42.5 17.5z" />
    <glyph glyph-name="slash" unicode="/" horiz-adv-x="437" 
d="M408 736l-298 -834h-75l298 834h75z" />
    <glyph glyph-name="zero" unicode="0" horiz-adv-x="554" 
d="M32 359q0 142 30.5 219.5t86 117.5t124.5 40q70 0 126.5 -40t89.5 -120.5t33 -216.5q0 -135 -32.5 -215.5t-89.5 -121t-127 -40.5q-69 0 -124 39.5t-86 118t-31 219.5zM100 357q0 -122 21.5 -184t64 -94t89.5 -32q48 0 89.5 31.5t63.5 94.5q27 77 27 184q0 108 -24 177.5
t-66.5 101.5t-89.5 32q-48 0 -89.5 -32t-63.5 -94.5t-22 -184.5z" />
    <glyph glyph-name="one" unicode="1" horiz-adv-x="554" 
d="M185 718h141v-718h-71v648h-113z" />
    <glyph glyph-name="two" unicode="2" horiz-adv-x="554" 
d="M116 493h-69q3 106 71 174.5t168 68.5q99 0 160.5 -64t61.5 -151q0 -61 -29.5 -114t-113.5 -145l-179 -193h332v-69h-488l274 296q83 89 108.5 132.5t25.5 91.5q0 61 -45 104.5t-111 43.5q-69 0 -114.5 -46t-51.5 -129z" />
    <glyph glyph-name="three" unicode="3" horiz-adv-x="554" 
d="M132 552h-73q20 89 76.5 136.5t134.5 47.5q56 0 104.5 -25.5t75 -69t26.5 -90.5q0 -93 -92 -147q52 -21 85 -62q47 -57 47 -128q0 -61 -32.5 -116.5t-88 -85.5t-124.5 -30q-93 0 -155 53.5t-81 156.5h70q19 -70 54 -101q44 -40 113 -39q78 0 125.5 47t47.5 109
q0 42 -24 79t-63.5 55.5t-123.5 22.5v66q49 0 90 17.5t59 44.5t18 58q0 47 -37 81.5t-94 34.5q-46 0 -80.5 -26.5t-57.5 -88.5z" />
    <glyph glyph-name="four" unicode="4" horiz-adv-x="554" 
d="M440 736v0v-500h87v-69h-87v-167h-71v167h-344zM369 236v286l-199 -285z" />
    <glyph glyph-name="five" unicode="5" horiz-adv-x="554" 
d="M492 718v-68h-256l-36 -196q47 14 85 14q98 0 161.5 -66t63.5 -168q0 -71 -32.5 -130t-88.5 -90.5t-129 -31.5q-87 0 -147.5 53.5t-71.5 138.5h73q8 -42 28 -67.5t53 -41.5t69 -16q71 0 122 53.5t51 134.5q0 73 -46 118t-123 45q-63 0 -154 -38l67 356h311z" />
    <glyph glyph-name="six" unicode="6" horiz-adv-x="554" 
d="M367 736l59 -38l-194 -294q39 13 73 13q85 0 145 -62t60 -152q0 -62 -29 -112t-82 -79.5t-114 -29.5q-59 0 -109.5 28.5t-79.5 80.5t-29 111q0 44 18 92.5t64 116.5zM288 354q-62 0 -106.5 -44t-44.5 -107q0 -62 44.5 -106.5t106.5 -44.5t106.5 44t44.5 107t-44.5 107
t-106.5 44z" />
    <glyph glyph-name="seven" unicode="7" horiz-adv-x="554" 
d="M72 718h455l-384 -736l-59 30l332 638h-344v68z" />
    <glyph glyph-name="eight" unicode="8" horiz-adv-x="554" 
d="M384 394q73 -36 104.5 -82.5t31.5 -105.5q0 -83 -54 -146q-66 -78 -190 -78q-119 0 -180.5 68t-61.5 150q0 60 32 108t107 86q-53 27 -79 67.5t-26 87.5t28 91.5t77.5 70t107.5 25.5q56 0 104 -25.5t75 -70t27 -93.5t-26 -87t-77 -66zM277 667q-59 0 -97.5 -35t-38.5 -84
q0 -48 41.5 -86.5t97.5 -38.5q36 0 67.5 17.5t49.5 48t18 61.5q0 43 -35.5 80t-102.5 37zM281 358q-74 0 -124.5 -48t-50.5 -112q0 -40 21.5 -75t60 -54t89.5 -19q79 0 125 46.5t46 108.5q0 60 -49 106.5t-118 46.5z" />
    <glyph glyph-name="nine" unicode="9" horiz-adv-x="554" 
d="M192 -18l-59 38l194 294q-39 -13 -74 -13q-85 0 -144.5 62t-59.5 152q0 62 28.5 112t81.5 79.5t114 29.5q60 0 110.5 -28.5t79 -80.5t28.5 -110q0 -44 -17.5 -93t-63.5 -117zM270 364q63 0 107 44.5t44 106.5t-44 106.5t-107 44.5q-62 0 -106.5 -44t-44.5 -107
q0 -62 44.5 -106.5t106.5 -44.5z" />
    <glyph glyph-name="colon" unicode=":" horiz-adv-x="276" 
d="M151 545q25 0 42.5 -17.5t17.5 -43.5q0 -25 -17.5 -42.5t-42.5 -17.5t-42.5 17.5t-17.5 42.5t17.5 43t42.5 18zM151 107q25 0 42.5 -17.5t17.5 -42.5t-17.5 -43t-42.5 -18t-42.5 18t-17.5 43t17.5 42.5t42.5 17.5z" />
    <glyph glyph-name="semicolon" unicode=";" horiz-adv-x="276" 
d="M151 545q25 0 42.5 -17.5t17.5 -43.5q0 -25 -17.5 -42.5t-42.5 -17.5t-42.5 17.5t-17.5 42.5t17.5 43t42.5 18zM144 132l66 -31l-99 -185l-49 21z" />
    <glyph glyph-name="semicolon" unicode="&#x37e;" horiz-adv-x="276" 
d="M151 545q25 0 42.5 -17.5t17.5 -43.5q0 -25 -17.5 -42.5t-42.5 -17.5t-42.5 17.5t-17.5 42.5t17.5 43t42.5 18zM144 132l66 -31l-99 -185l-49 21z" />
    <glyph glyph-name="less" unicode="&#x3c;" horiz-adv-x="605" 
d="M555 169v-71l-504 229v64l504 230v-72l-409 -191z" />
    <glyph glyph-name="equal" unicode="=" horiz-adv-x="605" 
d="M550 500v-67h-494v67h494zM550 285v-67h-494v67h494z" />
    <glyph glyph-name="greater" unicode="&#x3e;" horiz-adv-x="605" 
d="M51 169l409 189l-409 191v72l504 -230v-64l-504 -229v71z" />
    <glyph glyph-name="question" unicode="?" horiz-adv-x="590" 
d="M154 523h-71q1 99 59 156t155 57q96 0 150.5 -48t54.5 -120q0 -34 -15 -63t-45 -52.5t-106 -53.5q-95 -38 -115 -56q-21 -19 -21 -46q0 -28 27.5 -50.5t71.5 -22.5q48 0 74 24.5t32 78.5h72q-3 -82 -50.5 -127t-127.5 -45q-79 0 -126 41t-47 101q0 29 13 55.5t37 44
t89 44.5q105 43 135 64q29 21 30 62q0 42 -36 71.5t-96 29.5q-73 0 -114 -48q-28 -34 -30 -97zM296 107q25 0 42.5 -17.5t17.5 -42.5t-17.5 -43t-42.5 -18t-42.5 18t-17.5 43t17.5 42.5t42.5 17.5z" />
    <glyph glyph-name="at" unicode="@" horiz-adv-x="867" 
d="M705 147h52q-65 -82 -121 -114q-79 -46 -180 -46q-107 0 -197.5 50.5t-141 138t-50.5 190.5q0 105 51 195.5t139 140.5t192 50q147 0 249 -94.5q102 -93.5 102 -219.5q0 -91 -42.5 -157.5t-114.5 -103.5q-55 -28 -94 -28q-28 0 -45 15q-13 11 -13 39q-17 -21 -46 -35
t-60 -14q-70 0 -116 48.5t-46 128.5q0 86 55.5 157.5t153.5 71.5q43 0 72 -16t55 -56l12 67h53l-57 -319q-2 -16 -2 -20q0 -11 7 -17.5t17 -6.5q29 0 75 33.5t72 86t26 116.5q0 124 -96 205q-90 76 -219 76q-96 0 -174 -43.5t-123 -123t-45 -171.5q0 -93 45.5 -172
t125.5 -124t177 -45q71 0 128.5 25.5t123.5 91.5zM409 209q32 0 60.5 20.5t45.5 60.5q21 53 21 107q0 49 -27.5 80t-71.5 31q-59 0 -101.5 -48t-42.5 -120q0 -60 32.5 -95.5t83.5 -35.5z" />
    <glyph glyph-name="A" unicode="A" horiz-adv-x="739" 
d="M373 719l343 -719h-77l-113 236h-310l-112 -236h-80l349 719v0zM372 566l-123 -260h245z" />
    <glyph glyph-name="B" unicode="B" horiz-adv-x="574" 
d="M89 718h142q85 0 131 -20t72.5 -62t26.5 -94q0 -48 -23 -87t-69 -63q56 -19 86.5 -45t47.5 -62t17 -79q0 -86 -63.5 -146t-169.5 -60h-198v718zM160 648v-230h41q75 0 110 14t55.5 44t20.5 66q0 49 -34.5 77.5t-109.5 28.5h-83zM160 346v-276h89q79 0 115 15.5t58.5 48.5
t22.5 71q0 48 -31.5 83.5t-85.5 48.5q-37 9 -128 9h-40z" />
    <glyph glyph-name="C" unicode="C" horiz-adv-x="812" 
d="M756 585l-56 -43q-47 61 -113 92.5t-144 31.5q-86 0 -159.5 -41.5t-113.5 -111t-40 -156.5q0 -131 90 -219t227 -88q151 0 253 118l56 -43q-54 -68 -134 -105.5t-179 -37.5q-188 0 -297 125q-91 106 -92 256q0 158 110.5 265.5t277.5 107.5q101 0 181.5 -39.5
t132.5 -111.5z" />
    <glyph glyph-name="D" unicode="D" horiz-adv-x="744" 
d="M87 0v718h149q161 0 234 -26q104 -37 163 -127t59 -215q0 -108 -46.5 -190t-121 -121t-208.5 -39h-229zM156 68h83q149 0 207 18q81 26 127.5 95t46.5 168q0 104 -50.5 178t-140.5 101q-67 21 -222 20h-51v-580z" />
    <glyph glyph-name="E" unicode="E" horiz-adv-x="536" 
d="M88 718h412v-71h-340v-224h337v-70h-337v-282h337v-71h-409v718z" />
    <glyph glyph-name="F" unicode="F" horiz-adv-x="484" 
d="M87 718h360v-71h-288v-224h288v-71h-288v-352h-72v718z" />
    <glyph glyph-name="G" unicode="G" horiz-adv-x="872" 
d="M780 598l-55 -53q-60 59 -132 89.5t-139 30.5q-84 0 -161 -41.5t-119 -112.5t-42 -150q0 -81 43.5 -154t120.5 -115t168 -42q111 0 187.5 62.5t90.5 162.5h-229v69h310q-1 -167 -99 -264.5t-262 -97.5q-199 0 -316 136q-89 104 -89 241q0 102 51.5 190t140.5 137.5
t202 49.5q91 0 171.5 -32.5t157.5 -105.5z" />
    <glyph glyph-name="H" unicode="H" horiz-adv-x="683" 
d="M86 718h73v-301h365v301h72v-718h-72v347h-365v-347h-73v718z" />
    <glyph glyph-name="I" unicode="I" horiz-adv-x="226" 
d="M77 718h72v-718h-72v718z" />
    <glyph glyph-name="J" unicode="J" horiz-adv-x="481" 
d="M322 718h73v-485q0 -112 -17.5 -155.5t-58 -69.5t-98.5 -26q-43 0 -85.5 17t-93.5 59l38 57q56 -40 93 -55q24 -11 48 -11q31 0 56 18.5t35 49t10 119.5v482z" />
    <glyph glyph-name="K" unicode="K" horiz-adv-x="590" 
d="M87 718h74v-269l286 269h97l-345 -322l372 -396h-95l-315 335v-335h-74v718z" />
    <glyph glyph-name="L" unicode="L" horiz-adv-x="461" 
d="M87 718h73v-649h276v-69h-349v718z" />
    <glyph glyph-name="M" unicode="M" horiz-adv-x="918" 
d="M55 0l102 718v0l303 -589l301 589v0l103 -718h-71l-70 514l-263 -514v0l-266 518l-70 -518h-69z" />
    <glyph glyph-name="N" unicode="N" horiz-adv-x="739" 
d="M88 0v718v0l496 -532l-3 532h71v-718v0l-488 528l-2 -528h-74z" />
    <glyph glyph-name="O" unicode="O" horiz-adv-x="869" 
d="M430 736q163 0 272.5 -108.5t109.5 -268.5q0 -158 -109.5 -267.5t-266.5 -109.5q-160 0 -270 109.5t-110 264.5q0 104 50 192t136.5 138t187.5 50zM433 666q-80 0 -151 -41.5t-111 -112t-40 -156.5q0 -128 88.5 -216t213.5 -88q83 0 154.5 40.5t111 110.5t39.5 156
q0 85 -39.5 154.5t-112 111t-153.5 41.5z" />
    <glyph glyph-name="P" unicode="P" horiz-adv-x="591" 
d="M87 718h143q123 0 166 -10q62 -15 101 -62.5t39 -118.5q0 -72 -38.5 -118.5t-104.5 -62.5q-49 -12 -183 -12h-51v-334h-72v718zM159 648v-244l121 -1q74 0 108 13.5t53.5 43.5t19.5 67q0 36 -19.5 66t-51.5 42.5t-104 12.5h-127z" />
    <glyph glyph-name="Q" unicode="Q" horiz-adv-x="871" 
d="M690 78l106 -135h-88l-73 93q-88 -54 -198 -54q-160 0 -270 109.5t-110 264.5q0 104 50.5 192.5t137 138t190.5 49.5q160 0 269 -109t109 -268q0 -83 -30 -152t-93 -129zM646 134q94 91 93 225q0 85 -39.5 154.5t-112 111t-152.5 41.5q-81 0 -152 -41.5t-111 -112
t-40 -156.5q0 -128 88.5 -216t213.5 -88q85 0 156 41l-160 203h87z" />
    <glyph glyph-name="R" unicode="R" horiz-adv-x="606" 
d="M91 718h143q120 0 162 -10q64 -15 104.5 -62.5t40.5 -118.5q0 -59 -28 -103t-79 -67t-142 -23l259 -334h-89l-258 334h-41v-334h-72v718zM163 648v-244l124 -1q72 0 106 13.5t53.5 43.5t19.5 67q0 36 -19.5 66t-51.5 42.5t-105 12.5h-127z" />
    <glyph glyph-name="S" unicode="S" horiz-adv-x="498" 
d="M13 134l61 36q64 -119 149 -118q36 0 68 16.5t48.5 45t16.5 60.5q0 36 -24 71q-34 48 -124 115q-90 68 -111 98q-38 51 -38 110q0 47 22.5 85.5t63 60.5t88.5 22q51 0 95 -25t93 -92l-58 -45q-41 54 -69.5 71t-62.5 17q-43 0 -70.5 -26.5t-27.5 -64.5q0 -23 9.5 -45.5
t35.5 -47.5q14 -14 93 -72q93 -69 128 -123t35 -108q0 -78 -59.5 -135.5t-144.5 -57.5q-65 0 -118.5 35t-98.5 117z" />
    <glyph glyph-name="T" unicode="T" horiz-adv-x="425" 
d="M16 648v70h394v-70h-160v-648h-73v648h-161z" />
    <glyph glyph-name="U" unicode="U" horiz-adv-x="654" 
d="M90 718h72v-433q0 -77 3 -97q5 -42 24.5 -70.5t60 -48t81.5 -19.5q36 0 68.5 15.5t54.5 42t32 64.5q7 27 8 113v433h71v-433q0 -96 -18.5 -155.5t-75 -103.5t-136.5 -44q-87 0 -149 41.5t-83 109.5q-13 42 -13 152v433z" />
    <glyph glyph-name="V" unicode="V" horiz-adv-x="702" 
d="M33 718h78l238 -555l242 555h78l-321 -718v0z" />
    <glyph glyph-name="W" unicode="W" horiz-adv-x="959" 
d="M47 718h74l146 -517l213 517v0l211 -517l149 517h73l-212 -718v0l-221 543l-224 -543v0z" />
    <glyph glyph-name="X" unicode="X" horiz-adv-x="608" 
d="M49 718h84l172 -280l174 280h83l-214 -348l228 -370h-84l-187 301l-187 -301h-84l229 370z" />
    <glyph glyph-name="Y" unicode="Y" horiz-adv-x="591" 
d="M31 718h83l183 -296l181 296h83l-228 -375v-343h-70v343z" />
    <glyph glyph-name="Z" unicode="Z" horiz-adv-x="479" 
d="M60 649v69h378l-300 -648h285v-70h-396l303 649h-270z" />
    <glyph glyph-name="bracketleft" unicode="[" horiz-adv-x="351" 
d="M142 736h164v-69h-96v-794h96v-67h-164v930z" />
    <glyph glyph-name="backslash" unicode="\" horiz-adv-x="604" 
d="M107 736l465 -834h-74l-466 834h75z" />
    <glyph glyph-name="bracketright" unicode="]" horiz-adv-x="351" 
d="M209 -194h-164v69h96v794h-96v67h164v-930z" />
    <glyph glyph-name="asciicircum" unicode="^" horiz-adv-x="671" 
d="M337 719v0l277 -541h-65l-212 414l-215 -414h-63z" />
    <glyph glyph-name="underscore" unicode="_" horiz-adv-x="500" 
d="M-6 -75h512v-50h-512v50z" />
    <glyph glyph-name="grave" unicode="`" horiz-adv-x="377" 
d="M159 780l107 -150h-68l-144 150h105z" />
    <glyph glyph-name="a" unicode="a" horiz-adv-x="683" 
d="M605 531v-531h-67v91q-43 -52 -96.5 -78.5t-116.5 -26.5q-113 0 -193 82t-80 199q0 115 80.5 196.5t194.5 81.5q65 0 118 -28t93 -83v97h67zM332 479q-57 0 -105.5 -28t-77 -79t-28.5 -107t29 -107.5t77.5 -80t104.5 -28.5t106 28t77 76.5t27 109.5q0 92 -60.5 154
t-149.5 62z" />
    <glyph glyph-name="b" unicode="b" horiz-adv-x="682" 
d="M81 0v736h67v-296q43 53 96.5 79t116.5 26q113 0 193 -82t80 -198q0 -115 -80.5 -197t-194.5 -82q-65 0 -117.5 28t-93.5 84v-98h-67zM354 52q57 0 105.5 28t77 79t28.5 108t-29 108t-77.5 79.5t-103.5 28.5q-56 0 -106.5 -28.5t-77.5 -77t-27 -108.5q0 -92 60.5 -154.5
t149.5 -62.5z" />
    <glyph glyph-name="c" unicode="c" horiz-adv-x="646" 
d="M592 421l-54 -34q-70 93 -192 93q-97 0 -161.5 -62.5t-64.5 -151.5q0 -58 29.5 -109.5t81 -79.5t115.5 -28q117 0 192 93l54 -36q-38 -57 -102.5 -88.5t-146.5 -31.5q-126 0 -209 80t-83 195q0 77 39 143.5t107 103.5t152 37q53 0 102 -16t83 -42t58 -66z" />
    <glyph glyph-name="d" unicode="d" horiz-adv-x="685" 
d="M606 736v-736h-67v91q-43 -52 -96.5 -78.5t-116.5 -26.5q-113 0 -193 82t-80 199q0 115 80.5 196.5t194.5 81.5q65 0 118 -28t93 -83v302h67zM333 479q-57 0 -105.5 -28t-77 -79t-28.5 -107t29 -107.5t77.5 -80t104.5 -28.5t106 28t77 76.5t27 109.5q0 92 -60.5 154
t-149.5 62z" />
    <glyph glyph-name="e" unicode="e" horiz-adv-x="649" 
d="M523 176v-112q-25 -26 -51 -41l-44 -23q-30 -14 -101 -14q-130 0 -203 85.5t-73 192.5q0 101 62 180q79 101 210 101q136 0 217 -103q58 -73 59 -182h-478q2 -93 59 -152t141 -59q41 0 79 14t65 37.5t58 75.5zM523 319q-14 55 -39.5 87.5t-68.5 52.5t-91 20
q-78 0 -134 -50q-41 -37 -62 -110h395z" />
    <glyph glyph-name="f" unicode="f" horiz-adv-x="313" 
d="M295 736v-67q-38 16 -65 17q-20 0 -33 -8.5t-16.5 -19t-3.5 -55.5v-72h111v-58h-111v-473h-69v473h-69v58h69v83q0 57 10.5 81.5t36 39.5t60.5 15q34 0 80 -14z" />
    <glyph glyph-name="g" unicode="g" horiz-adv-x="672" 
d="M534 531h69v-423q0 -112 -20 -164q-27 -73 -93.5 -112.5t-159.5 -39.5q-68 0 -122.5 19.5t-89 52t-62.5 94.5h74q30 -53 78 -78.5t119 -25.5q70 0 118 26.5t68.5 66t20.5 127.5v27q-39 -49 -94.5 -75t-118.5 -26q-73 0 -137.5 36.5t-99.5 98t-35 135.5t36.5 137.5
t101 100.5t136.5 37q60 0 111.5 -24.5t99.5 -81.5v92zM332 479q-58 0 -108 -28t-78 -77.5t-28 -107.5q0 -87 58.5 -144.5t151.5 -57.5q94 0 151.5 57t57.5 149q0 60 -26.5 107t-74.5 74.5t-104 27.5z" />
    <glyph glyph-name="h" unicode="h" horiz-adv-x="609" 
d="M76 736h69v-300q42 55 91.5 82t107.5 27q60 0 106 -30.5t68 -81.5t22 -160v-273h-69v253q0 92 -7 123q-13 53 -46.5 79.5t-87.5 26.5q-62 0 -111 -41t-65 -102q-10 -39 -9 -144v-195h-69v736z" />
    <glyph glyph-name="i" unicode="i" horiz-adv-x="200" 
d="M100 750q23 0 40 -16.5t17 -40.5q0 -23 -16.5 -39.5t-40.5 -16.5q-23 0 -39.5 16.5t-16.5 39.5t16.5 40t39.5 17zM66 531h69v-531h-69v531z" />
    <glyph glyph-name="j" unicode="j" horiz-adv-x="203" 
d="M102 750q23 0 39.5 -16.5t16.5 -40.5q0 -23 -16.5 -39.5t-39.5 -16.5t-40 16.5t-17 39.5t17 40t40 17zM68 531h69v-611q0 -67 -24 -97.5t-66 -30.5q-35 0 -78 17v61q27 -14 49 -14q28 0 42 23q8 15 8 61v591z" />
    <glyph glyph-name="k" unicode="k" horiz-adv-x="501" 
d="M76 736h69v-419l245 214h101l-292 -253l309 -278h-97l-266 239v-239h-69v736z" />
    <glyph glyph-name="l" unicode="l" horiz-adv-x="200" 
d="M66 736h68v-736h-68v736z" />
    <glyph glyph-name="m" unicode="m" horiz-adv-x="937" 
d="M76 531h68v-92q36 51 73 75q52 31 109 31q39 0 73.5 -15t56.5 -40.5t38 -72.5q34 62 85 95t110 33q55 0 97.5 -28t63 -77.5t20.5 -149.5v-290h-70v290q0 85 -12 117t-41.5 52t-70.5 20q-50 0 -91.5 -29.5t-60.5 -78.5t-19 -163v-208h-67v272q0 96 -12 130.5t-42 55.5
t-71 21q-47 0 -88.5 -29t-61 -77t-19.5 -148v-225h-68v531z" />
    <glyph glyph-name="n" unicode="n" horiz-adv-x="609" 
d="M76 531h69v-95q41 55 90.5 82t108.5 27q60 0 106 -30.5t68 -81.5t22 -160v-273h-68v253q0 92 -8 123q-12 53 -46 79.5t-88 26.5q-62 0 -111 -41t-65 -102q-10 -40 -9 -144v-195h-69v531z" />
    <glyph glyph-name="o" unicode="o" horiz-adv-x="654" 
d="M328 545q123 0 203 -89q73 -81 73 -192t-77.5 -194.5t-198.5 -83.5q-122 0 -199.5 83.5t-77.5 194.5q0 110 73 192q81 89 204 89zM328 478q-85 0 -146 -63t-61 -152q0 -58 27.5 -108t75 -77t104.5 -27t104 27t75 77t28 108q0 89 -61.5 152t-145.5 63z" />
    <glyph glyph-name="p" unicode="p" horiz-adv-x="682" 
d="M77 531h68v-97q41 56 93.5 83.5t117.5 27.5q113 0 193.5 -81.5t80.5 -196.5q0 -117 -79.5 -199t-192.5 -82q-63 0 -116.5 26.5t-96.5 78.5v-285h-68v725zM351 479q-89 0 -150 -62t-61 -154q0 -61 27 -109.5t77.5 -76.5t107.5 -28q55 0 103.5 28.5t77.5 79.5t29 108
t-29 107.5t-77 78.5t-105 28z" />
    <glyph glyph-name="q" unicode="q" horiz-adv-x="682" 
d="M605 531v-725h-67v285q-43 -52 -96.5 -78.5t-117.5 -26.5q-113 0 -192.5 82t-79.5 199q0 115 80.5 196.5t193.5 81.5q65 0 118.5 -28t93.5 -83v97h67zM332 479q-57 0 -105.5 -28t-77 -79t-28.5 -107t28.5 -107.5t77 -80t104.5 -28.5t106.5 28t77.5 76.5t27 109.5
q0 92 -60.5 154t-149.5 62z" />
    <glyph glyph-name="r" unicode="r" horiz-adv-x="300" 
d="M50 531h70v-77q31 46 66 68q34 22 72 23q30 0 59 -1v-55q-64 2 -72 -2q-42 -17 -64 -37q-32 -28 -48 -87q-13 -45 -13 -183v-180h-70v531z" />
    <glyph glyph-name="s" unicode="s" horiz-adv-x="388" 
d="M343 473l-44 -45q-55 53 -107 53q-33 0 -56.5 -22t-23.5 -51q0 -26 19 -50q20 -24 82 -56q76 -40 104 -76q27 -37 27 -83q0 -65 -46 -111t-115 -46q-46 0 -87.5 20t-69.5 56l43 48q52 -59 111 -59q41 0 70 26.5t29 62.5q0 29 -19 52q-19 22 -86 57q-72 37 -98 73t-26 82
q0 61 41.5 101t104.5 40q73 0 147 -72z" />
    <glyph glyph-name="t" unicode="t" horiz-adv-x="338" 
d="M136 729h69v-198h108v-58h-108v-473h-69v473h-94v58h94v198z" />
    <glyph glyph-name="u" unicode="u" horiz-adv-x="607" 
d="M67 531h69v-248q0 -91 10 -125q15 -49 56 -77t98 -28t97 27.5t55 72.5q10 31 10 130v248h70v-260q0 -110 -25.5 -166t-77 -87.5t-129.5 -31.5t-129.5 31.5t-77.5 88t-26 169.5v256z" />
    <glyph glyph-name="v" unicode="v" horiz-adv-x="554" 
d="M26 531h73l179 -373l175 373h73l-249 -531v0z" />
    <glyph glyph-name="w" unicode="w" horiz-adv-x="831" 
d="M4 531h71l162 -385l177 385v0l176 -385l165 385h72l-237 -531v0l-176 380l-176 -380v0z" />
    <glyph glyph-name="x" unicode="x" horiz-adv-x="479" 
d="M16 531h82l140 -197l141 197h82l-182 -252l205 -279h-83l-163 223l-160 -223h-81l201 279z" />
    <glyph glyph-name="y" unicode="y" horiz-adv-x="536" 
d="M19 531h72l183 -409l177 409h73l-317 -725h-72l102 234z" />
    <glyph glyph-name="z" unicode="z" horiz-adv-x="424" 
d="M33 531h390l-301 -470h291v-61h-409l301 471h-272v60z" />
    <glyph glyph-name="braceleft" unicode="{" horiz-adv-x="351" 
d="M37 289q30 1 48 11q24 14 36.5 39t14.5 71q1 22 2 102.5t10.5 115.5t30 55.5t52.5 29.5q19 5 61 5h27v-76h-15q-51 0 -67.5 -19t-16.5 -82q0 -114 -3 -145q-6 -60 -28.5 -92t-70.5 -55q54 -23 78 -69t24 -151q0 -94 2 -111q3 -26 12 -41q7 -10 22 -15.5t63 -5.5v-76h-27
q-49 0 -71 8q-33 12 -53 39t-25 73q-4 32 -5 120q0 90 -10 121.5t-33 49t-58 18.5v80z" />
    <glyph glyph-name="bar" unicode="|" horiz-adv-x="671" 
d="M301 736h70v-930h-70v930z" />
    <glyph glyph-name="braceright" unicode="}" horiz-adv-x="351" 
d="M314 289v-80q-30 0 -48 -11q-24 -14 -36.5 -39t-14.5 -71q-1 -22 -2 -103t-10.5 -115.5t-30 -55t-52.5 -29.5q-19 -5 -61 -5h-27v76h15q51 0 67.5 19t16.5 82q0 117 4 148q7 59 31 92t67 52q-57 27 -79.5 72t-22.5 148q0 108 -5 126q-5 25 -20.5 36t-58.5 11h-15v76h27
q49 0 71 -9q33 -12 53 -39t25 -72q4 -32 5 -120q0 -90 10 -122t32.5 -49t58.5 -18z" />
    <glyph glyph-name="asciitilde" unicode="~" horiz-adv-x="605" 
d="M551 409v-79q-55 -31 -78.5 -39t-44.5 -8q-46 0 -130 37q-64 29 -82 35t-33 6q-21 0 -47.5 -9.5t-80.5 -41.5v78q54 30 77.5 38.5t46.5 8.5q47 0 131 -40q58 -27 79 -34t38 -7q21 0 41.5 8.5t82.5 46.5z" />
    <glyph glyph-name="nonbreakingspace" unicode="&#xa0;" horiz-adv-x="279" 
 />
    <glyph glyph-name="exclamdown" unicode="&#xa1;" horiz-adv-x="294" 
d="M147 542q25 0 43 -17.5t18 -43.5q0 -25 -18 -42.5t-43 -17.5t-42.5 17.5t-17.5 42.5t17.5 43t42.5 18zM113 -208v557h71v-557h-71z" />
    <glyph glyph-name="cent" unicode="&#xa2;" horiz-adv-x="554" 
d="M469 654l59 -29l-64 -125q35 -22 57 -46l-42 -52q-22 21 -46 37l-193 -374q37 -16 71 -15q71 0 149 62l44 -51q-38 -34 -89.5 -54.5t-103.5 -20.5q-47 0 -102 18l-74 -144l-57 32l74 147q-53 47 -77.5 101.5t-24.5 120.5q0 117 73.5 200.5t192.5 83.5q44 0 88 -16z
M374 469q-31 10 -60 10q-83 0 -139 -58.5t-56 -155.5q0 -53 16 -93t49 -70z" />
    <glyph glyph-name="sterling" unicode="&#xa3;" horiz-adv-x="554" 
d="M48 412h124q-26 94 -29 111q-5 28 -5 53q0 65 50.5 112.5t125.5 47.5q49 0 84 -20.5t57.5 -60t27.5 -106.5h-66q-2 59 -29 90.5t-72 31.5q-49 0 -79.5 -27.5t-30.5 -72.5q0 -40 14 -80l4 -9l22 -70h156v-63h-140q18 -62 18 -129q0 -52 -10 -92q30 -25 81 -56
q29 -18 53 -17q46 0 52 113h69q0 -57 -16.5 -103t-41 -64.5t-54.5 -18.5q-33 0 -71 17q-53 23 -96 61q-41 -78 -116 -78q-47 0 -74.5 24.5t-27.5 67.5q0 47 32 80t76 33q33 0 71 -19q3 33 3 52q0 69 -22 129h-140v63zM188 101q-33 20 -56 20q-16 0 -26.5 -10.5t-10.5 -27.5
q0 -16 9.5 -26t22.5 -10q37 0 61 54z" />
    <glyph glyph-name="currency" unicode="&#xa4;" horiz-adv-x="554" 
d="M21 94l56 55q-30 40 -41.5 75t-11.5 76q0 43 14 83q10 31 41 69l-59 57l44 44l59 -58q37 29 76 42t80 13q40 0 76.5 -12t76.5 -40l57 55l43 -44l-57 -55q31 -39 43.5 -75t12.5 -79q0 -42 -12 -77t-41 -74l57 -55l-44 -44l-56 56q-39 -30 -77 -43t-80 -13t-79.5 12.5
t-77.5 43.5l-57 -56zM94 299q0 -75 54 -128.5t130 -53.5t129.5 54t53.5 129q0 76 -53.5 129.5t-129.5 53.5t-130 -54t-54 -130z" />
    <glyph glyph-name="yen" unicode="&#xa5;" horiz-adv-x="554" 
d="M442 718h81l-203 -359h174v-57h-183v-75h183v-58h-183v-169h-70v169h-181v58h181v75h-181v57h172l-202 359h82l164 -294z" />
    <glyph glyph-name="brokenbar" unicode="&#xa6;" horiz-adv-x="671" 
d="M301 335v401h70v-374zM301 -194v467l70 26v-493h-70z" />
    <glyph glyph-name="section" unicode="&#xa7;" horiz-adv-x="614" 
d="M471 583h-72q-5 46 -35 72t-78 26q-52 0 -81.5 -25.5t-29.5 -62.5q0 -21 10 -39q13 -24 40.5 -48t96.5 -65q81 -48 109 -73.5t42.5 -55.5t14.5 -58q0 -49 -38 -90.5t-102 -54.5q52 -32 79.5 -75.5t27.5 -88.5q0 -64 -50 -108.5t-131 -44.5q-80 0 -132.5 40.5t-62.5 100.5
h72q11 -31 33 -49q35 -28 86 -28t81.5 26t30.5 62q0 33 -24 65q-24 31 -112 87q-84 54 -103 68q-41 32 -60.5 66.5t-19.5 70.5q0 31 15.5 60.5t43 51.5t68.5 34q-48 35 -67 70t-19 78q0 68 49 111.5t132 43.5q81 0 129 -43t57 -124zM248 410q-54 -8 -83.5 -37t-29.5 -69
q0 -36 26 -65q34 -39 130 -90q60 7 93 37.5t33 68.5q0 30 -23 55.5t-140 94.5z" />
    <glyph glyph-name="dieresis" unicode="&#xa8;" horiz-adv-x="369" 
d="M85 741q23 0 40 -16.5t17 -39.5t-17 -40t-40 -17t-40 16.5t-17 40.5q0 23 17 39.5t40 16.5zM284 741q23 0 40 -16.5t17 -39.5t-16.5 -40t-40.5 -17q-23 0 -39.5 16.5t-16.5 40.5q0 23 16.5 39.5t39.5 16.5z" />
    <glyph glyph-name="copyright" unicode="&#xa9;" horiz-adv-x="747" 
d="M757 370q0 -103 -51 -191.5t-140 -140t-192 -51.5t-192 51.5t-140.5 140t-51.5 191.5t51.5 191t140.5 139.5t192 51.5t192 -51.5t140 -139.5t51 -191zM704 370q0 89 -44 165t-121 120.5t-165 44.5t-165 -44.5t-121.5 -121t-44.5 -164.5q0 -89 44.5 -166t121.5 -121
t165 -44t165 44t121 121t44 166zM562 451h-67q-10 43 -38.5 65t-76.5 22q-62 0 -99.5 -43.5t-37.5 -127.5q0 -82 36 -125t95 -43q49 0 80.5 30t40.5 90h67q-9 -80 -60.5 -127.5t-125.5 -47.5q-92 0 -147.5 59.5t-55.5 164.5q0 110 57.5 171.5t145.5 61.5q82 0 131 -41
t55 -109z" />
    <glyph glyph-name="ordfeminine" unicode="&#xaa;" horiz-adv-x="369" 
d="M324 728v-332h-55v45q-21 -27 -46 -40t-56 -13q-56 0 -97.5 49.5q-41.5 48.5 -41.5 124.5q0 75 42.5 124.5t97.5 49.5q30 0 55.5 -14t45.5 -42v48h55zM178 683q-38 0 -66 -34t-28 -87q0 -54 28.5 -89t65.5 -35q38 0 65.5 33.5t27.5 89.5q0 55 -27.5 88.5t-65.5 33.5z" />
    <glyph glyph-name="guillemotleft" unicode="&#xab;" horiz-adv-x="424" 
d="M191 531l-109 -266l109 -265h-72l-109 265l109 266h72zM415 531l-110 -266l110 -265h-73l-108 265l108 266h73z" />
    <glyph glyph-name="logicalnot" unicode="&#xac;" horiz-adv-x="605" 
d="M550 500v-282h-67v215h-427v67h494z" />
    <glyph glyph-name="registered" unicode="&#xae;" horiz-adv-x="747" 
d="M757 371q0 -104 -51 -192.5t-140.5 -140t-191.5 -51.5t-191.5 51.5t-141 140.5t-51.5 190q0 103 51.5 192.5t140.5 141t192 51.5t191.5 -51t140 -141t51.5 -191zM704 371q0 88 -44.5 165t-120.5 121.5t-164 44.5t-165.5 -44.5t-122 -122t-44.5 -165.5t44.5 -165
t122 -121.5t165.5 -44.5q87 0 164 44.5t121 121.5t44 166zM214 594h184q64 0 93 -13t46.5 -42t17.5 -68q0 -34 -13 -58q-10 -18 -42 -40q30 -15 40 -34t10 -66v-50q0 -35 16 -58l7 -12h-78q-7 27 -10 65l-4 54q-2 30 -9.5 42t-21 17.5t-55.5 5.5h-111v-184h-70v441zM284 531
v-131h109q49 0 66 11q26 16 26 55q0 34 -18.5 49.5t-69.5 15.5h-113z" />
    <glyph glyph-name="overscore" unicode="&#xaf;" horiz-adv-x="500" 
d="M-6 843h512v-50h-512v50z" />
    <glyph glyph-name="degree" unicode="&#xb0;" horiz-adv-x="399" 
d="M369 568q0 -71 -49.5 -119.5t-119.5 -48.5t-119 49t-49 121q0 69 50 117.5t119 48.5t118.5 -49t49.5 -119zM311 567q0 50 -32 84t-77 34q-46 0 -79 -34t-33 -83q0 -47 33 -81.5t78 -34.5t77.5 33.5t32.5 81.5z" />
    <glyph glyph-name="plusminus" unicode="&#xb1;" horiz-adv-x="548" 
d="M241 446v212h67v-212h213v-67h-213v-212h-67v212h-214v67h214zM521 79v-67h-494v67h494z" />
    <glyph glyph-name="twosuperior" unicode="&#xb2;" horiz-adv-x="332" 
d="M76 603h-52q1 58 41.5 95.5t105.5 37.5q61 0 99 -33.5t38 -79.5q0 -29 -16 -56.5t-70 -76.5l-93 -84h184v-48h-310l175 159q52 47 64.5 66.5t12.5 38.5q0 26 -24 46t-62 20q-42 0 -66 -22t-27 -63z" />
    <glyph glyph-name="threesuperior" unicode="&#xb3;" horiz-adv-x="344" 
d="M90 631h-55q13 52 47.5 78.5t84.5 26.5q57 0 92.5 -29.5t35.5 -69.5q0 -42 -44 -71q33 -16 50 -41t17 -54q0 -49 -41 -85.5t-109 -36.5q-61 0 -98 30t-49 88h54q10 -36 33 -53t60 -17q44 0 70.5 21.5t26.5 49.5q0 32 -29.5 50.5t-94.5 20.5v46q50 0 74 16t24 37
q0 20 -19.5 35t-52.5 15q-27 0 -45 -13t-32 -44z" />
    <glyph glyph-name="acute" unicode="&#xb4;" horiz-adv-x="375" 
d="M221 780h105l-144 -150h-68z" />
    <glyph glyph-name="mu1" unicode="&#xb5;" horiz-adv-x="576" 
d="M72 -194v725h69v-293q0 -66 16 -99t53 -55t79 -22t76 21t52.5 58.5t18.5 103.5v286h68v-531h-68v58q-29 -36 -65.5 -53t-81.5 -17q-46 0 -83 16.5t-65 51.5v-250h-69z" />
    <glyph glyph-name="paragraph" unicode="&#xb6;" horiz-adv-x="563" 
d="M236 -113v458q-37 0 -54 4q-38 8 -69 32.5t-49 66t-18 92.5q0 92 57 150q47 49 146 49h250v-37h-41v-815h-58v815h-106v-815h-58z" />
    <glyph glyph-name="middot" unicode="&#xb7;" horiz-adv-x="333" 
d="M294 425q23 0 40 -16.5t17 -40.5q0 -23 -17 -39.5t-40 -16.5t-40 16.5t-17 39.5t17 40t40 17z" />
    <glyph glyph-name="cedilla" unicode="&#xb8;" horiz-adv-x="324" 
d="M152 0h43l-8 -58q11 1 18 2q24 0 40 -15t16 -37q0 -32 -29 -55t-83 -23q-43 0 -81 15l11 34q31 -10 58 -10q37 0 51.5 9t14.5 23q0 8 -8 14.5t-22 6.5q-12 0 -34 -5z" />
    <glyph glyph-name="onesuperior" unicode="&#xb9;" horiz-adv-x="332" 
d="M109 727h92v-369h-54v321h-73z" />
    <glyph glyph-name="ordmasculine" unicode="&#xba;" horiz-adv-x="369" 
d="M184 736q65 0 111.5 -50t46.5 -125q0 -74 -46 -123.5t-112 -49.5q-65 0 -111 49.5t-46 123.5q0 75 46.5 125t110.5 50zM184 683q-40 0 -70 -35.5t-30 -87.5t29.5 -86t70.5 -34q42 0 71.5 34t29.5 86t-30.5 87.5t-70.5 35.5z" />
    <glyph glyph-name="guillemotright" unicode="&#xbb;" horiz-adv-x="424" 
d="M234 0l109 266l-109 265h72l109 -265l-109 -266h-72zM10 0l109 266l-109 265h73l108 -265l-108 -266h-73z" />
    <glyph glyph-name="onequarter" unicode="&#xbc;" horiz-adv-x="831" 
d="M91.4219 727h92v-369h-54v321h-73zM190 -18l450 754h55l-452 -754h-53zM758 384v-258h52v-47h-52v-83h-54v83h-211zM704 126v121l-104 -121h104z" />
    <glyph glyph-name="onehalf" unicode="&#xbd;" horiz-adv-x="831" 
d="M86.0508 727h92v-369h-54v321h-73zM136 -18l450 754h55l-452 -754h-53zM531.566 240.695h-52q1 58 41.5 95.5t105.5 37.5q61 0 99 -33.5t38 -79.5q0 -29 -16 -56.5t-70 -76.5l-93 -84h184v-48h-310l175 159q52 47 64.5 66.5t12.5 38.5q0 26 -24 46t-62 20q-42 0 -66 -22
t-27 -63z" />
    <glyph glyph-name="threequarters" unicode="&#xbe;" horiz-adv-x="831" 
d="M102.207 631h-55q13 52 47.5 78.5t84.5 26.5q57 0 92.5 -29.5t35.5 -69.5q0 -42 -44 -71q33 -16 50 -41t17 -54q0 -49 -41 -85.5t-109 -36.5q-61 0 -98 30t-49 88h54q10 -36 33 -53t60 -17q44 0 70.5 21.5t26.5 49.5q0 32 -29.5 50.5t-94.5 20.5v46q50 0 74 16t24 37
q0 20 -19.5 35t-52.5 15q-27 0 -45 -13t-32 -44zM211 -18l450 754h55l-452 -754h-53zM755 384v-258h52v-47h-52v-83h-54v83h-211zM701 126v121l-104 -121h104z" />
    <glyph glyph-name="questiondown" unicode="&#xbf;" horiz-adv-x="590" 
d="M295 542q25 0 42.5 -17.5t17.5 -43.5q0 -25 -17.5 -42.5t-42.5 -17.5t-42.5 17.5t-17.5 42.5t17.5 43t42.5 18zM438 5h70q-1 -99 -58.5 -156t-155.5 -57q-96 0 -150.5 48.5t-54.5 119.5q0 34 15.5 63.5t45.5 52.5t105 53q95 38 116 57q20 19 20 45q0 28 -27.5 51
t-71.5 23q-48 0 -74 -25t-32 -79h-71q3 82 50 127.5t127 45.5q79 0 126 -41t47 -102q0 -29 -13 -55.5t-36.5 -44t-89.5 -44.5q-105 -43 -135 -64t-29 -61q0 -42 35.5 -72t95.5 -30q74 0 115 49q29 33 30 96z" />
    <glyph glyph-name="Agrave" unicode="&#xc0;" horiz-adv-x="739" 
d="M373 719l343 -719h-77l-113 236h-310l-112 -236h-80l349 719v0zM372 566l-123 -260h245zM340.152 925.02l107 -150h-68l-144 150h105z" />
    <glyph glyph-name="Aacute" unicode="&#xc1;" horiz-adv-x="739" 
d="M373 719l343 -719h-77l-113 236h-310l-112 -236h-80l349 719v0zM372 566l-123 -260h245zM403.129 925.02h105l-144 -150h-68z" />
    <glyph glyph-name="Acircumflex" unicode="&#xc2;" horiz-adv-x="739" 
d="M373 719l343 -719h-77l-113 236h-310l-112 -236h-80l349 719v0zM372 566l-123 -260h245zM375 899v0l172 -126h-88l-86 61l-89 -61h-91z" />
    <glyph glyph-name="Atilde" unicode="&#xc3;" horiz-adv-x="739" 
d="M373 719l343 -719h-77l-113 236h-310l-112 -236h-80l349 719v0zM372 566l-123 -260h245zM514 874l34 -48q-35 -25 -59 -34t-51 -9q-35 0 -72 18q-32 16 -41 18q-12 3 -25 4q-17 0 -32.5 -6t-44.5 -28l-32 50q44 47 109 47q31 0 75 -19q42 -19 66 -19q26 0 73 26z" />
    <glyph glyph-name="Adieresis" unicode="&#xc4;" horiz-adv-x="739" 
d="M373 719l343 -719h-77l-113 236h-310l-112 -236h-80l349 719v0zM372 566l-123 -260h245zM270.547 886.508q23 0 40 -16.5t17 -39.5t-17 -40t-40 -17t-40 16.5t-17 40.5q0 23 17 39.5t40 16.5zM469.547 886.508q23 0 40 -16.5t17 -39.5t-16.5 -40t-40.5 -17
q-23 0 -39.5 16.5t-16.5 40.5q0 23 16.5 39.5t39.5 16.5z" />
    <glyph glyph-name="Aring" unicode="&#xc5;" horiz-adv-x="739" 
d="M373 719l343 -719h-77l-113 236h-310l-112 -236h-80l349 719v0zM372 566l-123 -260h245zM370 972q43 0 73.5 -30.5t30.5 -74.5q0 -43 -30.5 -73.5t-73.5 -30.5t-73.5 30.5t-30.5 73.5t30.5 74t73.5 31zM370 922q-22 0 -38 -15.5t-16 -37.5t15.5 -38t38.5 -16
q22 0 37.5 16t15.5 38t-15.5 37.5t-37.5 15.5z" />
    <glyph glyph-name="AE" unicode="&#xc6;" horiz-adv-x="992" 
d="M0 0l464 718h445v-73h-339v-221h339v-71h-339v-283h339v-70h-411v235h-262l-152 -235h-84zM282 303h216v332z" />
    <glyph glyph-name="Ccedilla" unicode="&#xc7;" horiz-adv-x="812" 
d="M756 585l-56 -43q-47 61 -113 92.5t-144 31.5q-86 0 -159.5 -41.5t-113.5 -111t-40 -156.5q0 -131 90 -219t227 -88q151 0 253 118l56 -43q-54 -68 -134 -105.5t-179 -37.5q-188 0 -297 125q-91 106 -92 256q0 158 110.5 265.5t277.5 107.5q101 0 181.5 -39.5
t132.5 -111.5zM396.141 0h43l-8 -58q11 1 18 2q24 0 40 -15t16 -37q0 -32 -29 -55t-83 -23q-43 0 -81 15l11 34q31 -10 58 -10q37 0 51.5 9t14.5 23q0 8 -8 14.5t-22 6.5q-12 0 -34 -5z" />
    <glyph glyph-name="Egrave" unicode="&#xc8;" horiz-adv-x="536" 
d="M88 718h412v-71h-340v-224h337v-70h-337v-282h337v-71h-409v718zM267.887 925.02l107 -150h-68l-144 150h105z" />
    <glyph glyph-name="Eacute" unicode="&#xc9;" horiz-adv-x="536" 
d="M88 718h412v-71h-340v-224h337v-70h-337v-282h337v-71h-409v718zM330.863 925.02h105l-144 -150h-68z" />
    <glyph glyph-name="Ecircumflex" unicode="&#xca;" horiz-adv-x="536" 
d="M88 718h412v-71h-340v-224h337v-70h-337v-282h337v-71h-409v718zM302 899v0l172 -126h-88l-86 61l-89 -61h-91z" />
    <glyph glyph-name="Edieresis" unicode="&#xcb;" horiz-adv-x="536" 
d="M88 718h412v-71h-340v-224h337v-70h-337v-282h337v-71h-409v718zM198.281 886.508q23 0 40 -16.5t17 -39.5t-17 -40t-40 -17t-40 16.5t-17 40.5q0 23 17 39.5t40 16.5zM397.281 886.508q23 0 40 -16.5t17 -39.5t-16.5 -40t-40.5 -17q-23 0 -39.5 16.5t-16.5 40.5
q0 23 16.5 39.5t39.5 16.5z" />
    <glyph glyph-name="Igrave" unicode="&#xcc;" horiz-adv-x="226" 
d="M77 718h72v-718h-72v718zM83.3164 925.02l107 -150h-68l-144 150h105z" />
    <glyph glyph-name="Iacute" unicode="&#xcd;" horiz-adv-x="226" 
d="M77 718h72v-718h-72v718zM146.293 925.02h105l-144 -150h-68z" />
    <glyph glyph-name="Icircumflex" unicode="&#xce;" horiz-adv-x="226" 
d="M77 718h72v-718h-72v718zM118 899v0l172 -126h-88l-86 61l-89 -61h-91z" />
    <glyph glyph-name="Idieresis" unicode="&#xcf;" horiz-adv-x="226" 
d="M77 718h72v-718h-72v718zM13.7109 886.508q23 0 40 -16.5t17 -39.5t-17 -40t-40 -17t-40 16.5t-17 40.5q0 23 17 39.5t40 16.5zM212.711 886.508q23 0 40 -16.5t17 -39.5t-16.5 -40t-40.5 -17q-23 0 -39.5 16.5t-16.5 40.5q0 23 16.5 39.5t39.5 16.5z" />
    <glyph glyph-name="Eth" unicode="&#xd0;" horiz-adv-x="790" 
d="M104 326h-87v67h87v325h179q161 0 234 -26q104 -37 162.5 -127t58.5 -215q0 -108 -46.5 -190t-121 -121t-208.5 -39h-258v326zM173 326v-258h112q149 0 207 18q81 26 127.5 95t46.5 168q0 104 -50.5 178t-140.5 101q-67 21 -222 20h-80v-255h189v-67h-189z" />
    <glyph glyph-name="Ntilde" unicode="&#xd1;" horiz-adv-x="739" 
d="M88 0v718v0l496 -532l-3 532h71v-718v0l-488 528l-2 -528h-74zM514 874l34 -48q-35 -25 -59 -34t-51 -9q-35 0 -72 18q-32 16 -41 18q-12 3 -25 4q-17 0 -32.5 -6t-44.5 -28l-32 50q44 47 109 47q31 0 75 -19q42 -19 66 -19q26 0 73 26z" />
    <glyph glyph-name="Ograve" unicode="&#xd2;" horiz-adv-x="869" 
d="M430 736q163 0 272.5 -108.5t109.5 -268.5q0 -158 -109.5 -267.5t-266.5 -109.5q-160 0 -270 109.5t-110 264.5q0 104 50 192t136.5 138t187.5 50zM433 666q-80 0 -151 -41.5t-111 -112t-40 -156.5q0 -128 88.5 -216t213.5 -88q83 0 154.5 40.5t111 110.5t39.5 156
q0 85 -39.5 154.5t-112 111t-153.5 41.5zM404.605 925.02l107 -150h-68l-144 150h105z" />
    <glyph glyph-name="Oacute" unicode="&#xd3;" horiz-adv-x="869" 
d="M430 736q163 0 272.5 -108.5t109.5 -268.5q0 -158 -109.5 -267.5t-266.5 -109.5q-160 0 -270 109.5t-110 264.5q0 104 50 192t136.5 138t187.5 50zM433 666q-80 0 -151 -41.5t-111 -112t-40 -156.5q0 -128 88.5 -216t213.5 -88q83 0 154.5 40.5t111 110.5t39.5 156
q0 85 -39.5 154.5t-112 111t-153.5 41.5zM468.07 925.02h105l-144 -150h-68z" />
    <glyph glyph-name="Ocircumflex" unicode="&#xd4;" horiz-adv-x="869" 
d="M430 736q163 0 272.5 -108.5t109.5 -268.5q0 -158 -109.5 -267.5t-266.5 -109.5q-160 0 -270 109.5t-110 264.5q0 104 50 192t136.5 138t187.5 50zM433 666q-80 0 -151 -41.5t-111 -112t-40 -156.5q0 -128 88.5 -216t213.5 -88q83 0 154.5 40.5t111 110.5t39.5 156
q0 85 -39.5 154.5t-112 111t-153.5 41.5zM440 899v0l172 -126h-88l-86 61l-89 -61h-91z" />
    <glyph glyph-name="Otilde" unicode="&#xd5;" horiz-adv-x="869" 
d="M430 736q163 0 272.5 -108.5t109.5 -268.5q0 -158 -109.5 -267.5t-266.5 -109.5q-160 0 -270 109.5t-110 264.5q0 104 50 192t136.5 138t187.5 50zM433 666q-80 0 -151 -41.5t-111 -112t-40 -156.5q0 -128 88.5 -216t213.5 -88q83 0 154.5 40.5t111 110.5t39.5 156
q0 85 -39.5 154.5t-112 111t-153.5 41.5zM579 874l34 -48q-35 -25 -59 -34t-51 -9q-35 0 -72 18q-32 16 -41 18q-12 3 -25 4q-17 0 -32.5 -6t-44.5 -28l-32 50q44 47 109 47q31 0 75 -19q42 -19 66 -19q26 0 73 26z" />
    <glyph glyph-name="Odieresis" unicode="&#xd6;" horiz-adv-x="869" 
d="M430 736q163 0 272.5 -108.5t109.5 -268.5q0 -158 -109.5 -267.5t-266.5 -109.5q-160 0 -270 109.5t-110 264.5q0 104 50 192t136.5 138t187.5 50zM433 666q-80 0 -151 -41.5t-111 -112t-40 -156.5q0 -128 88.5 -216t213.5 -88q83 0 154.5 40.5t111 110.5t39.5 156
q0 85 -39.5 154.5t-112 111t-153.5 41.5zM335 886.508q23 0 40 -16.5t17 -39.5t-17 -40t-40 -17t-40 16.5t-17 40.5q0 23 17 39.5t40 16.5zM534 886.508q23 0 40 -16.5t17 -39.5t-16.5 -40t-40.5 -17q-23 0 -39.5 16.5t-16.5 40.5q0 23 16.5 39.5t39.5 16.5z" />
    <glyph glyph-name="multiply" unicode="&#xd7;" horiz-adv-x="605" 
d="M348 359l162 -162l-45 -45l-162 162l-162 -162l-45 45l162 162l-162 162l45 45l162 -162l162 162l45 -45z" />
    <glyph glyph-name="Oslash" unicode="&#xd8;" horiz-adv-x="868" 
d="M710 620q49 -50 75.5 -116.5t26.5 -144.5q0 -158 -109.5 -267.5t-267.5 -109.5q-120 0 -213 62l-80 -94l-53 42l81 95q-114 111 -114 269q0 104 50 192.5t137 138t191 49.5q125 0 228 -72l70 85l52 -42zM217 142l396 466q-83 58 -180 58q-80 0 -151.5 -41.5t-111.5 -112
t-40 -157.5q1 -124 87 -213zM662 563l-393 -463q74 -48 164 -48q83 0 154 40.5t111 110.5t40 156q0 120 -76 204z" />
    <glyph glyph-name="Ugrave" unicode="&#xd9;" horiz-adv-x="654" 
d="M90 718h72v-433q0 -77 3 -97q5 -42 24.5 -70.5t60 -48t81.5 -19.5q36 0 68.5 15.5t54.5 42t32 64.5q7 27 8 113v433h71v-433q0 -96 -18.5 -155.5t-75 -103.5t-136.5 -44q-87 0 -149 41.5t-83 109.5q-13 42 -13 152v433zM297.672 925.02l107 -150h-68l-144 150h105z" />
    <glyph glyph-name="Uacute" unicode="&#xda;" horiz-adv-x="654" 
d="M90 718h72v-433q0 -77 3 -97q5 -42 24.5 -70.5t60 -48t81.5 -19.5q36 0 68.5 15.5t54.5 42t32 64.5q7 27 8 113v433h71v-433q0 -96 -18.5 -155.5t-75 -103.5t-136.5 -44q-87 0 -149 41.5t-83 109.5q-13 42 -13 152v433zM361.137 925.02h105l-144 -150h-68z" />
    <glyph glyph-name="Ucircumflex" unicode="&#xdb;" horiz-adv-x="654" 
d="M90 718h72v-433q0 -77 3 -97q5 -42 24.5 -70.5t60 -48t81.5 -19.5q36 0 68.5 15.5t54.5 42t32 64.5q7 27 8 113v433h71v-433q0 -96 -18.5 -155.5t-75 -103.5t-136.5 -44q-87 0 -149 41.5t-83 109.5q-13 42 -13 152v433zM333 899v0l172 -126h-88l-86 61l-89 -61h-91z" />
    <glyph glyph-name="Udieresis" unicode="&#xdc;" horiz-adv-x="654" 
d="M90 718h72v-433q0 -77 3 -97q5 -42 24.5 -70.5t60 -48t81.5 -19.5q36 0 68.5 15.5t54.5 42t32 64.5q7 27 8 113v433h71v-433q0 -96 -18.5 -155.5t-75 -103.5t-136.5 -44q-87 0 -149 41.5t-83 109.5q-13 42 -13 152v433zM228.066 886.508q23 0 40 -16.5t17 -39.5t-17 -40
t-40 -17t-40 16.5t-17 40.5q0 23 17 39.5t40 16.5zM427.066 886.508q23 0 40 -16.5t17 -39.5t-16.5 -40t-40.5 -17q-23 0 -39.5 16.5t-16.5 40.5q0 23 16.5 39.5t39.5 16.5z" />
    <glyph glyph-name="Yacute" unicode="&#xdd;" horiz-adv-x="591" 
d="M31 718h83l183 -296l181 296h83l-228 -375v-343h-70v343zM329.398 925.02h105l-144 -150h-68z" />
    <glyph glyph-name="Thorn" unicode="&#xde;" horiz-adv-x="591" 
d="M87 718h72v-168h71q123 0 166 -10q62 -15 101 -62.5t39 -118.5t-38.5 -118t-104.5 -63q-49 -12 -183 -12h-51v-166h-72v718zM159 480v-244l121 -1q74 0 108 13.5t53.5 43.5t19.5 67t-19.5 66.5t-51.5 42t-104 12.5h-127z" />
    <glyph glyph-name="germandbls" unicode="&#xdf;" horiz-adv-x="554" 
d="M79 0v486q0 110 21.5 157t70 77t114.5 30q86 0 139 -50.5t53 -126.5q0 -48 -24.5 -85.5t-67.5 -60.5q-24 -12 -67 -18q47 -7 73 -20q53 -28 82.5 -77t29.5 -113q0 -94 -57 -153.5t-147 -59.5q-60 0 -101 24v65q51 -24 92 -24q62 0 103.5 42t41.5 108q0 74 -50 120.5
t-143 49.5v76h15q68 0 109 36t41 87q0 48 -34 81t-87 33q-42 0 -76.5 -22.5t-49.5 -60.5q-12 -30 -12 -122v-479h-69z" />
    <glyph glyph-name="agrave" unicode="&#xe0;" horiz-adv-x="683" 
d="M605 531v-531h-67v91q-43 -52 -96.5 -78.5t-116.5 -26.5q-113 0 -193 82t-80 199q0 115 80.5 196.5t194.5 81.5q65 0 118 -28t93 -83v97h67zM332 479q-57 0 -105.5 -28t-77 -79t-28.5 -107t29 -107.5t77.5 -80t104.5 -28.5t106 28t77 76.5t27 109.5q0 92 -60.5 154
t-149.5 62zM311.832 780l107 -150h-68l-144 150h105z" />
    <glyph glyph-name="aacute" unicode="&#xe1;" horiz-adv-x="683" 
d="M605 531v-531h-67v91q-43 -52 -96.5 -78.5t-116.5 -26.5q-113 0 -193 82t-80 199q0 115 80.5 196.5t194.5 81.5q65 0 118 -28t93 -83v97h67zM332 479q-57 0 -105.5 -28t-77 -79t-28.5 -107t29 -107.5t77.5 -80t104.5 -28.5t106 28t77 76.5t27 109.5q0 92 -60.5 154
t-149.5 62zM374.809 780h105l-144 -150h-68z" />
    <glyph glyph-name="acircumflex" unicode="&#xe2;" horiz-adv-x="683" 
d="M605 531v-531h-67v91q-43 -52 -96.5 -78.5t-116.5 -26.5q-113 0 -193 82t-80 199q0 115 80.5 196.5t194.5 81.5q65 0 118 -28t93 -83v97h67zM332 479q-57 0 -105.5 -28t-77 -79t-28.5 -107t29 -107.5t77.5 -80t104.5 -28.5t106 28t77 76.5t27 109.5q0 92 -60.5 154
t-149.5 62zM346 753v0l172 -126h-88l-86 61l-89 -61h-91z" />
    <glyph glyph-name="atilde" unicode="&#xe3;" horiz-adv-x="683" 
d="M605 531v-531h-67v91q-43 -52 -96.5 -78.5t-116.5 -26.5q-113 0 -193 82t-80 199q0 115 80.5 196.5t194.5 81.5q65 0 118 -28t93 -83v97h67zM332 479q-57 0 -105.5 -28t-77 -79t-28.5 -107t29 -107.5t77.5 -80t104.5 -28.5t106 28t77 76.5t27 109.5q0 92 -60.5 154
t-149.5 62zM486 729l34 -48q-35 -25 -59 -34t-51 -9q-35 0 -72 18q-32 16 -41 18q-12 3 -25 4q-17 0 -32.5 -6t-44.5 -28l-32 50q44 47 109 47q31 0 75 -19q42 -19 66 -19q26 0 73 26z" />
    <glyph glyph-name="adieresis" unicode="&#xe4;" horiz-adv-x="683" 
d="M605 531v-531h-67v91q-43 -52 -96.5 -78.5t-116.5 -26.5q-113 0 -193 82t-80 199q0 115 80.5 196.5t194.5 81.5q65 0 118 -28t93 -83v97h67zM332 479q-57 0 -105.5 -28t-77 -79t-28.5 -107t29 -107.5t77.5 -80t104.5 -28.5t106 28t77 76.5t27 109.5q0 92 -60.5 154
t-149.5 62zM242.227 741q23 0 40 -16.5t17 -39.5t-17 -40t-40 -17t-40 16.5t-17 40.5q0 23 17 39.5t40 16.5zM441.227 741q23 0 40 -16.5t17 -39.5t-16.5 -40t-40.5 -17q-23 0 -39.5 16.5t-16.5 40.5q0 23 16.5 39.5t39.5 16.5z" />
    <glyph glyph-name="aring" unicode="&#xe5;" horiz-adv-x="683" 
d="M605 531v-531h-67v91q-43 -52 -96.5 -78.5t-116.5 -26.5q-113 0 -193 82t-80 199q0 115 80.5 196.5t194.5 81.5q65 0 118 -28t93 -83v97h67zM332 479q-57 0 -105.5 -28t-77 -79t-28.5 -107t29 -107.5t77.5 -80t104.5 -28.5t106 28t77 76.5t27 109.5q0 92 -60.5 154
t-149.5 62zM341 826q43 0 73.5 -30.5t30.5 -74.5q0 -43 -30.5 -73.5t-73.5 -30.5t-73.5 30.5t-30.5 73.5t30.5 74t73.5 31zM341 776q-22 0 -38 -15.5t-16 -37.5t15.5 -38t38.5 -16q22 0 37.5 16t15.5 38t-15.5 37.5t-37.5 15.5z" />
    <glyph glyph-name="ae" unicode="&#xe6;" horiz-adv-x="1157" 
d="M608 531v-96q52 62 100 86t113 24q120 0 198.5 -80.5t78.5 -205.5h-478q2 -57 30 -107t74.5 -76.5t103.5 -26.5q61 0 109.5 30t84.5 95l1 -109q-29 -30 -75 -56q-35 -21 -125 -23q-72 -1 -134 34q-42 24 -81 75v-95h-63v98q-43 -54 -84 -77q-59 -34 -128 -35
q-113 0 -193.5 82t-80.5 200q0 76 36 139t100 100.5t136 37.5q70 0 128 -34q42 -24 86 -76v96h63zM1022 318q-14 56 -39.5 88.5t-68.5 52.5t-89 20t-90 -20.5t-71.5 -55t-39.5 -85.5h398zM335 479q-56 0 -104 -28t-75.5 -77t-27.5 -108q0 -92 61 -153.5t149 -61.5t148.5 61
t60.5 153q0 64 -26 111t-76.5 75t-109.5 28z" />
    <glyph glyph-name="ccedilla" unicode="&#xe7;" horiz-adv-x="646" 
d="M592 421l-54 -34q-70 93 -192 93q-97 0 -161.5 -62.5t-64.5 -151.5q0 -58 29.5 -109.5t81 -79.5t115.5 -28q117 0 192 93l54 -36q-38 -57 -102.5 -88.5t-146.5 -31.5q-126 0 -209 80t-83 195q0 77 39 143.5t107 103.5t152 37q53 0 102 -16t83 -42t58 -66zM313.621 0h43
l-8 -58q11 1 18 2q24 0 40 -15t16 -37q0 -32 -29 -55t-83 -23q-43 0 -81 15l11 34q31 -10 58 -10q37 0 51.5 9t14.5 23q0 8 -8 14.5t-22 6.5q-12 0 -34 -5z" />
    <glyph glyph-name="egrave" unicode="&#xe8;" horiz-adv-x="649" 
d="M523 176v-112q-25 -26 -51 -41l-44 -23q-30 -14 -101 -14q-130 0 -203 85.5t-73 192.5q0 101 62 180q79 101 210 101q136 0 217 -103q58 -73 59 -182h-478q2 -93 59 -152t141 -59q41 0 79 14t65 37.5t58 75.5zM523 319q-14 55 -39.5 87.5t-68.5 52.5t-91 20
q-78 0 -134 -50q-41 -37 -62 -110h395zM295.23 780l107 -150h-68l-144 150h105z" />
    <glyph glyph-name="eacute" unicode="&#xe9;" horiz-adv-x="649" 
d="M523 176v-112q-25 -26 -51 -41l-44 -23q-30 -14 -101 -14q-130 0 -203 85.5t-73 192.5q0 101 62 180q79 101 210 101q136 0 217 -103q58 -73 59 -182h-478q2 -93 59 -152t141 -59q41 0 79 14t65 37.5t58 75.5zM523 319q-14 55 -39.5 87.5t-68.5 52.5t-91 20
q-78 0 -134 -50q-41 -37 -62 -110h395zM358.695 780h105l-144 -150h-68z" />
    <glyph glyph-name="ecircumflex" unicode="&#xea;" horiz-adv-x="649" 
d="M523 176v-112q-25 -26 -51 -41l-44 -23q-30 -14 -101 -14q-130 0 -203 85.5t-73 192.5q0 101 62 180q79 101 210 101q136 0 217 -103q58 -73 59 -182h-478q2 -93 59 -152t141 -59q41 0 79 14t65 37.5t58 75.5zM523 319q-14 55 -39.5 87.5t-68.5 52.5t-91 20
q-78 0 -134 -50q-41 -37 -62 -110h395zM330 753v0l172 -126h-88l-86 61l-89 -61h-91z" />
    <glyph glyph-name="edieresis" unicode="&#xeb;" horiz-adv-x="649" 
d="M523 176v-112q-25 -26 -51 -41l-44 -23q-30 -14 -101 -14q-130 0 -203 85.5t-73 192.5q0 101 62 180q79 101 210 101q136 0 217 -103q58 -73 59 -182h-478q2 -93 59 -152t141 -59q41 0 79 14t65 37.5t58 75.5zM523 319q-14 55 -39.5 87.5t-68.5 52.5t-91 20
q-78 0 -134 -50q-41 -37 -62 -110h395zM225.625 741q23 0 40 -16.5t17 -39.5t-17 -40t-40 -17t-40 16.5t-17 40.5q0 23 17 39.5t40 16.5zM424.625 741q23 0 40 -16.5t17 -39.5t-16.5 -40t-40.5 -17q-23 0 -39.5 16.5t-16.5 40.5q0 23 16.5 39.5t39.5 16.5z" />
    <glyph glyph-name="igrave" unicode="&#xec;" horiz-adv-x="200" 
d="M66 531h69v-531h-69v531zM70.1328 780l107 -150h-68l-144 150h105z" />
    <glyph glyph-name="iacute" unicode="&#xed;" horiz-adv-x="200" 
d="M66 531h69v-531h-69v531zM133.598 780h105l-144 -150h-68z" />
    <glyph glyph-name="icircumflex" unicode="&#xee;" horiz-adv-x="200" 
d="M66 531h69v-531h-69v531zM105 753v0l172 -126h-88l-86 61l-89 -61h-91z" />
    <glyph glyph-name="idieresis" unicode="&#xef;" horiz-adv-x="200" 
d="M66 531h69v-531h-69v531zM0.527344 741q23 0 40 -16.5t17 -39.5t-17 -40t-40 -17t-40 16.5t-17 40.5q0 23 17 39.5t40 16.5zM199.527 741q23 0 40 -16.5t17 -39.5t-16.5 -40t-40.5 -17q-23 0 -39.5 16.5t-16.5 40.5q0 23 16.5 39.5t39.5 16.5z" />
    <glyph glyph-name="eth" unicode="&#xf0;" horiz-adv-x="654" 
d="M210 736h96q25 -18 50 -38l80 33l25 -52l-57 -23q106 -102 153.5 -198.5t47.5 -180.5q0 -81 -36.5 -148.5t-101 -105t-142.5 -37.5q-113 0 -193.5 81.5t-80.5 199.5q0 116 79.5 197t188.5 81q57 0 122 -32q-46 62 -104 115l-106 -44l-25 52l85 35q-47 39 -81 65zM332 479
q-76 0 -137 -47q-75 -59 -75 -163q0 -92 61 -154.5t147 -62.5q56 0 104 28t75.5 77.5t27.5 110.5t-26.5 109.5t-73.5 75t-103 26.5z" />
    <glyph glyph-name="ntilde" unicode="&#xf1;" horiz-adv-x="609" 
d="M76 531h69v-95q41 55 90.5 82t108.5 27q60 0 106 -30.5t68 -81.5t22 -160v-273h-68v253q0 92 -8 123q-12 53 -46 79.5t-88 26.5q-62 0 -111 -41t-65 -102q-10 -40 -9 -144v-195h-69v531zM449 729l34 -48q-35 -25 -59 -34t-51 -9q-35 0 -72 18q-32 16 -41 18q-12 3 -25 4
q-17 0 -32.5 -6t-44.5 -28l-32 50q44 47 109 47q31 0 75 -19q42 -19 66 -19q26 0 73 26z" />
    <glyph glyph-name="ograve" unicode="&#xf2;" horiz-adv-x="654" 
d="M328 545q123 0 203 -89q73 -81 73 -192t-77.5 -194.5t-198.5 -83.5q-122 0 -199.5 83.5t-77.5 194.5q0 110 73 192q81 89 204 89zM328 478q-85 0 -146 -63t-61 -152q0 -58 27.5 -108t75 -77t104.5 -27t104 27t75 77t28 108q0 89 -61.5 152t-145.5 63zM297.672 780
l107 -150h-68l-144 150h105z" />
    <glyph glyph-name="oacute" unicode="&#xf3;" horiz-adv-x="654" 
d="M328 545q123 0 203 -89q73 -81 73 -192t-77.5 -194.5t-198.5 -83.5q-122 0 -199.5 83.5t-77.5 194.5q0 110 73 192q81 89 204 89zM328 478q-85 0 -146 -63t-61 -152q0 -58 27.5 -108t75 -77t104.5 -27t104 27t75 77t28 108q0 89 -61.5 152t-145.5 63zM361.137 780h105
l-144 -150h-68z" />
    <glyph glyph-name="ocircumflex" unicode="&#xf4;" horiz-adv-x="654" 
d="M328 545q123 0 203 -89q73 -81 73 -192t-77.5 -194.5t-198.5 -83.5q-122 0 -199.5 83.5t-77.5 194.5q0 110 73 192q81 89 204 89zM328 478q-85 0 -146 -63t-61 -152q0 -58 27.5 -108t75 -77t104.5 -27t104 27t75 77t28 108q0 89 -61.5 152t-145.5 63zM333 753v0l172 -126
h-88l-86 61l-89 -61h-91z" />
    <glyph glyph-name="otilde" unicode="&#xf5;" horiz-adv-x="654" 
d="M328 545q123 0 203 -89q73 -81 73 -192t-77.5 -194.5t-198.5 -83.5q-122 0 -199.5 83.5t-77.5 194.5q0 110 73 192q81 89 204 89zM328 478q-85 0 -146 -63t-61 -152q0 -58 27.5 -108t75 -77t104.5 -27t104 27t75 77t28 108q0 89 -61.5 152t-145.5 63zM472 729l34 -48
q-35 -25 -59 -34t-51 -9q-35 0 -72 18q-32 16 -41 18q-12 3 -25 4q-17 0 -32.5 -6t-44.5 -28l-32 50q44 47 109 47q31 0 75 -19q42 -19 66 -19q26 0 73 26z" />
    <glyph glyph-name="odieresis" unicode="&#xf6;" horiz-adv-x="654" 
d="M328 545q123 0 203 -89q73 -81 73 -192t-77.5 -194.5t-198.5 -83.5q-122 0 -199.5 83.5t-77.5 194.5q0 110 73 192q81 89 204 89zM328 478q-85 0 -146 -63t-61 -152q0 -58 27.5 -108t75 -77t104.5 -27t104 27t75 77t28 108q0 89 -61.5 152t-145.5 63zM228.066 741
q23 0 40 -16.5t17 -39.5t-17 -40t-40 -17t-40 16.5t-17 40.5q0 23 17 39.5t40 16.5zM427.066 741q23 0 40 -16.5t17 -39.5t-16.5 -40t-40.5 -17q-23 0 -39.5 16.5t-16.5 40.5q0 23 16.5 39.5t39.5 16.5z" />
    <glyph glyph-name="divide" unicode="&#xf7;" horiz-adv-x="548" 
d="M225 589h98v-98h-98v98zM27 393h494v-67h-494v67zM225 228h98v-101h-98v101z" />
    <glyph glyph-name="oslash" unicode="&#xf8;" horiz-adv-x="652" 
d="M538 446q65 -79 65 -182q0 -111 -77.5 -194.5t-198.5 -83.5q-80 0 -146 40l-57 -67l-43 37l55 65q-86 83 -86 203q0 111 77 196t199 85q98 0 172 -59l56 67l45 -36zM179 112l274 321q-58 45 -126 45q-54 0 -102.5 -28.5t-76.5 -79t-28 -107.5q0 -42 15.5 -82.5
t43.5 -68.5zM492 392l-268 -315q50 -26 102 -26q57 0 104.5 27t75.5 77t28 107q0 71 -42 130z" />
    <glyph glyph-name="ugrave" unicode="&#xf9;" horiz-adv-x="607" 
d="M67 531h69v-248q0 -91 10 -125q15 -49 56 -77t98 -28t97 27.5t55 72.5q10 31 10 130v248h70v-260q0 -110 -25.5 -166t-77 -87.5t-129.5 -31.5t-129.5 31.5t-77.5 88t-26 169.5v256zM273.746 780l107 -150h-68l-144 150h105z" />
    <glyph glyph-name="uacute" unicode="&#xfa;" horiz-adv-x="607" 
d="M67 531h69v-248q0 -91 10 -125q15 -49 56 -77t98 -28t97 27.5t55 72.5q10 31 10 130v248h70v-260q0 -110 -25.5 -166t-77 -87.5t-129.5 -31.5t-129.5 31.5t-77.5 88t-26 169.5v256zM337.211 780h105l-144 -150h-68z" />
    <glyph glyph-name="ucircumflex" unicode="&#xfb;" horiz-adv-x="607" 
d="M67 531h69v-248q0 -91 10 -125q15 -49 56 -77t98 -28t97 27.5t55 72.5q10 31 10 130v248h70v-260q0 -110 -25.5 -166t-77 -87.5t-129.5 -31.5t-129.5 31.5t-77.5 88t-26 169.5v256zM309 753v0l172 -126h-88l-86 61l-89 -61h-91z" />
    <glyph glyph-name="udieresis" unicode="&#xfc;" horiz-adv-x="607" 
d="M67 531h69v-248q0 -91 10 -125q15 -49 56 -77t98 -28t97 27.5t55 72.5q10 31 10 130v248h70v-260q0 -110 -25.5 -166t-77 -87.5t-129.5 -31.5t-129.5 31.5t-77.5 88t-26 169.5v256zM204.141 741q23 0 40 -16.5t17 -39.5t-17 -40t-40 -17t-40 16.5t-17 40.5q0 23 17 39.5
t40 16.5zM403.141 741q23 0 40 -16.5t17 -39.5t-16.5 -40t-40.5 -17q-23 0 -39.5 16.5t-16.5 40.5q0 23 16.5 39.5t39.5 16.5z" />
    <glyph glyph-name="yacute" unicode="&#xfd;" horiz-adv-x="536" 
d="M19 531h72l183 -409l177 409h73l-317 -725h-72l102 234zM301.566 780h105l-144 -150h-68z" />
    <glyph glyph-name="thorn" unicode="&#xfe;" horiz-adv-x="682" 
d="M77 736h68v-302q41 56 93.5 83.5t117.5 27.5q113 0 193.5 -81.5t80.5 -196.5q0 -117 -79.5 -199t-192.5 -82q-63 0 -116.5 26.5t-96.5 78.5v-285h-68v930zM351 479q-89 0 -150 -62t-61 -154q0 -61 27 -109.5t77.5 -76.5t107.5 -28q55 0 103.5 28.5t77.5 79.5t29 108
t-29 107.5t-77 78.5t-105 28z" />
    <glyph glyph-name="ydieresis" unicode="&#xff;" horiz-adv-x="536" 
d="M19 531h72l183 -409l177 409h73l-317 -725h-72l102 234zM173.379 741q23 0 40 -16.5t17 -39.5t-17 -40t-40 -17t-40 16.5t-17 40.5q0 23 17 39.5t40 16.5zM372.379 741q23 0 40 -16.5t17 -39.5t-16.5 -40t-40.5 -17q-23 0 -39.5 16.5t-16.5 40.5q0 23 16.5 39.5
t39.5 16.5z" />
    <glyph glyph-name="Amacron" unicode="&#x100;" horiz-adv-x="739" 
d="M373 719l343 -719h-77l-113 236h-310l-112 -236h-80l349 719v0zM372 566l-123 -260h245zM201 867h337v-58h-337v58z" />
    <glyph glyph-name="amacron" unicode="&#x101;" horiz-adv-x="683" 
d="M605 531v-531h-67v91q-43 -52 -96.5 -78.5t-116.5 -26.5q-113 0 -193 82t-80 199q0 115 80.5 196.5t194.5 81.5q65 0 118 -28t93 -83v97h67zM332 479q-57 0 -105.5 -28t-77 -79t-28.5 -107t29 -107.5t77.5 -80t104.5 -28.5t106 28t77 76.5t27 109.5q0 92 -60.5 154
t-149.5 62zM173 722h337v-58h-337v58z" />
    <glyph glyph-name="Abreve" unicode="&#x102;" horiz-adv-x="739" 
d="M373 719l343 -719h-77l-113 236h-310l-112 -236h-80l349 719v0zM372 566l-123 -260h245zM200 890h64q17 -25 44.5 -38t66.5 -13t63 11t45 40h63q-11 -44 -55 -73.5t-116 -29.5t-117.5 29t-57.5 74z" />
    <glyph glyph-name="abreve" unicode="&#x103;" horiz-adv-x="683" 
d="M605 531v-531h-67v91q-43 -52 -96.5 -78.5t-116.5 -26.5q-113 0 -193 82t-80 199q0 115 80.5 196.5t194.5 81.5q65 0 118 -28t93 -83v97h67zM332 479q-57 0 -105.5 -28t-77 -79t-28.5 -107t29 -107.5t77.5 -80t104.5 -28.5t106 28t77 76.5t27 109.5q0 92 -60.5 154
t-149.5 62zM152 745h64q17 -25 44.5 -38t66.5 -13t63 11t45 40h63q-11 -44 -55 -73.5t-116 -29.5t-117.5 29t-57.5 74z" />
    <glyph glyph-name="Aogonek" unicode="&#x104;" horiz-adv-x="739" 
d="M373 719l343 -719h-77l-113 236h-310l-112 -236h-80l349 719v0zM372 566l-123 -260h245zM643 0h53q-59 -50 -59 -94q0 -22 18.5 -38t52.5 -16q14 0 34 2l-4 -41q-21 -5 -42 -5q-54 0 -82.5 26t-28.5 62q0 63 58 104z" />
    <glyph glyph-name="aogonek" unicode="&#x105;" horiz-adv-x="683" 
d="M605 531v-531h-67v91q-43 -52 -96.5 -78.5t-116.5 -26.5q-113 0 -193 82t-80 199q0 115 80.5 196.5t194.5 81.5q65 0 118 -28t93 -83v97h67zM332 479q-57 0 -105.5 -28t-77 -79t-28.5 -107t29 -107.5t77.5 -80t104.5 -28.5t106 28t77 76.5t27 109.5q0 92 -60.5 154
t-149.5 62zM545 0h53q-59 -50 -59 -94q0 -22 18.5 -38t52.5 -16q14 0 34 2l-4 -41q-21 -5 -42 -5q-54 0 -82.5 26t-28.5 62q0 63 58 104z" />
    <glyph glyph-name="Cacute" unicode="&#x106;" horiz-adv-x="812" 
d="M756 585l-56 -43q-47 61 -113 92.5t-144 31.5q-86 0 -159.5 -41.5t-113.5 -111t-40 -156.5q0 -131 90 -219t227 -88q151 0 253 118l56 -43q-54 -68 -134 -105.5t-179 -37.5q-188 0 -297 125q-91 106 -92 256q0 158 110.5 265.5t277.5 107.5q101 0 181.5 -39.5
t132.5 -111.5zM481.254 923.066h105l-144 -150h-68z" />
    <glyph glyph-name="cacute" unicode="&#x107;" horiz-adv-x="646" 
d="M592 421l-54 -34q-70 93 -192 93q-97 0 -161.5 -62.5t-64.5 -151.5q0 -58 29.5 -109.5t81 -79.5t115.5 -28q117 0 192 93l54 -36q-38 -57 -102.5 -88.5t-146.5 -31.5q-126 0 -209 80t-83 195q0 77 39 143.5t107 103.5t152 37q53 0 102 -16t83 -42t58 -66zM374.809 780
h105l-144 -150h-68z" />
    <glyph glyph-name="Ccircumflex" unicode="&#x108;" horiz-adv-x="812" 
d="M756 585l-56 -43q-47 61 -113 92.5t-144 31.5q-86 0 -159.5 -41.5t-113.5 -111t-40 -156.5q0 -131 90 -219t227 -88q151 0 253 118l56 -43q-54 -68 -134 -105.5t-179 -37.5q-188 0 -297 125q-91 106 -92 256q0 158 110.5 265.5t277.5 107.5q101 0 181.5 -39.5
t132.5 -111.5zM431 899v0l172 -126h-88l-86 61l-89 -61h-91z" />
    <glyph glyph-name="ccircumflex" unicode="&#x109;" horiz-adv-x="646" 
d="M592 421l-54 -34q-70 93 -192 93q-97 0 -161.5 -62.5t-64.5 -151.5q0 -58 29.5 -109.5t81 -79.5t115.5 -28q117 0 192 93l54 -36q-38 -57 -102.5 -88.5t-146.5 -31.5q-126 0 -209 80t-83 195q0 77 39 143.5t107 103.5t152 37q53 0 102 -16t83 -42t58 -66zM329 753v0
l172 -126h-88l-86 61l-89 -61h-91z" />
    <glyph glyph-name="Cdot" unicode="&#x10a;" horiz-adv-x="812" 
d="M756 585l-56 -43q-47 61 -113 92.5t-144 31.5q-86 0 -159.5 -41.5t-113.5 -111t-40 -156.5q0 -131 90 -219t227 -88q151 0 253 118l56 -43q-54 -68 -134 -105.5t-179 -37.5q-188 0 -297 125q-91 106 -92 256q0 158 110.5 265.5t277.5 107.5q101 0 181.5 -39.5
t132.5 -111.5zM428 887q23 0 40 -16.5t17 -39.5t-16.5 -40t-40.5 -17q-23 0 -39.5 16.5t-16.5 40.5q0 23 16.5 39.5t39.5 16.5z" />
    <glyph glyph-name="cdot" unicode="&#x10b;" horiz-adv-x="646" 
d="M592 421l-54 -34q-70 93 -192 93q-97 0 -161.5 -62.5t-64.5 -151.5q0 -58 29.5 -109.5t81 -79.5t115.5 -28q117 0 192 93l54 -36q-38 -57 -102.5 -88.5t-146.5 -31.5q-126 0 -209 80t-83 195q0 77 39 143.5t107 103.5t152 37q53 0 102 -16t83 -42t58 -66zM333 741
q23 0 40 -16.5t17 -39.5t-16.5 -40t-40.5 -17q-23 0 -39.5 16.5t-16.5 40.5q0 23 16.5 39.5t39.5 16.5z" />
    <glyph glyph-name="Ccaron" unicode="&#x10c;" horiz-adv-x="812" 
d="M756 585l-56 -43q-47 61 -113 92.5t-144 31.5q-86 0 -159.5 -41.5t-113.5 -111t-40 -156.5q0 -131 90 -219t227 -88q151 0 253 118l56 -43q-54 -68 -134 -105.5t-179 -37.5q-188 0 -297 125q-91 106 -92 256q0 158 110.5 265.5t277.5 107.5q101 0 181.5 -39.5
t132.5 -111.5zM439 771v0l-174 125h88l86 -57l89 57h91z" />
    <glyph glyph-name="ccaron" unicode="&#x10d;" horiz-adv-x="646" 
d="M592 421l-54 -34q-70 93 -192 93q-97 0 -161.5 -62.5t-64.5 -151.5q0 -58 29.5 -109.5t81 -79.5t115.5 -28q117 0 192 93l54 -36q-38 -57 -102.5 -88.5t-146.5 -31.5q-126 0 -209 80t-83 195q0 77 39 143.5t107 103.5t152 37q53 0 102 -16t83 -42t58 -66zM344 628v0
l-174 125h88l86 -57l89 57h91z" />
    <glyph glyph-name="Dcaron" unicode="&#x10e;" horiz-adv-x="744" 
d="M87 0v718h149q161 0 234 -26q104 -37 163 -127t59 -215q0 -108 -46.5 -190t-121 -121t-208.5 -39h-229zM156 68h83q149 0 207 18q81 26 127.5 95t46.5 168q0 104 -50.5 178t-140.5 101q-67 21 -222 20h-51v-580zM322 771v0l-174 125h88l86 -57l89 57h91z" />
    <glyph glyph-name="dcaron" unicode="&#x10f;" horiz-adv-x="685" 
d="M606 736v-736h-67v91q-86 -105 -213 -105q-119 0 -196 85t-77 196q0 112 80 195t195 83q131 0 211 -111v302h67zM333 479q-91 0 -151 -64t-60 -150q0 -87 61.5 -151.5t149.5 -64.5q82 0 146 57t64 157q0 97 -62.5 156.5t-147.5 59.5zM683 508l-32 19q26 51 29 95h-37v114
h75v-71q0 -52 -6.5 -83t-28.5 -74z" />
    <glyph glyph-name="Dslash" unicode="&#x110;" horiz-adv-x="790" 
d="M104 326h-87v67h87v325h179q161 0 234 -26q104 -37 162.5 -127t58.5 -215q0 -108 -46.5 -190t-121 -121t-208.5 -39h-258v326zM173 326v-258h112q149 0 207 18q81 26 127.5 95t46.5 168q0 104 -50.5 178t-140.5 101q-67 21 -222 20h-80v-255h189v-67h-189z" />
    <glyph glyph-name="dmacron" unicode="&#x111;" horiz-adv-x="685" 
d="M606 650h79v-56h-79v-594h-67v91q-43 -52 -96.5 -78.5t-116.5 -26.5q-113 0 -193 82t-80 199q0 115 80.5 196.5t194.5 81.5q65 0 118 -28t93 -83v160h-149v56h149v86h67v-86zM333 479q-57 0 -105.5 -28t-77 -79t-28.5 -107t29 -107.5t77.5 -80t104.5 -28.5t106 28
t77 76.5t27 109.5q0 92 -60.5 154t-149.5 62z" />
    <glyph glyph-name="Emacron" unicode="&#x112;" horiz-adv-x="536" 
d="M88 718h412v-71h-340v-224h337v-70h-337v-282h337v-71h-409v718zM123 867h337v-58h-337v58z" />
    <glyph glyph-name="emacron" unicode="&#x113;" horiz-adv-x="649" 
d="M523 176v-112q-25 -26 -51 -41l-44 -23q-30 -14 -101 -14q-130 0 -203 85.5t-73 192.5q0 101 62 180q79 101 210 101q136 0 217 -103q58 -73 59 -182h-478q2 -93 59 -152t141 -59q41 0 79 14t65 37.5t58 75.5zM523 319q-14 55 -39.5 87.5t-68.5 52.5t-91 20
q-78 0 -134 -50q-41 -37 -62 -110h395zM156 722h337v-58h-337v58z" />
    <glyph glyph-name="Ebreve" unicode="&#x114;" horiz-adv-x="536" 
d="M88 718h412v-71h-340v-224h337v-70h-337v-282h337v-71h-409v718zM96 891h64q17 -25 44.5 -38t66.5 -13t63 11t45 40h63q-11 -44 -55 -73.5t-116 -29.5t-117.5 29t-57.5 74z" />
    <glyph glyph-name="ebreve" unicode="&#x115;" horiz-adv-x="649" 
d="M523 176v-112q-25 -26 -51 -41l-44 -23q-30 -14 -101 -14q-130 0 -203 85.5t-73 192.5q0 101 62 180q79 101 210 101q136 0 217 -103q58 -73 59 -182h-478q2 -93 59 -152t141 -59q41 0 79 14t65 37.5t58 75.5zM523 319q-14 55 -39.5 87.5t-68.5 52.5t-91 20
q-78 0 -134 -50q-41 -37 -62 -110h395zM152 745h64q17 -25 44.5 -38t66.5 -13t63 11t45 40h63q-11 -44 -55 -73.5t-116 -29.5t-117.5 29t-57.5 74z" />
    <glyph glyph-name="Edot" unicode="&#x116;" horiz-adv-x="536" 
d="M88 718h412v-71h-340v-224h337v-70h-337v-282h337v-71h-409v718zM294 887q23 0 40 -16.5t17 -39.5t-16.5 -40t-40.5 -17q-23 0 -39.5 16.5t-16.5 40.5q0 23 16.5 39.5t39.5 16.5z" />
    <glyph glyph-name="edot" unicode="&#x117;" horiz-adv-x="649" 
d="M523 176v-112q-25 -26 -51 -41l-44 -23q-30 -14 -101 -14q-130 0 -203 85.5t-73 192.5q0 101 62 180q79 101 210 101q136 0 217 -103q58 -73 59 -182h-478q2 -93 59 -152t141 -59q41 0 79 14t65 37.5t58 75.5zM523 319q-14 55 -39.5 87.5t-68.5 52.5t-91 20
q-78 0 -134 -50q-41 -37 -62 -110h395zM324 741q23 0 40 -16.5t17 -39.5t-16.5 -40t-40.5 -17q-23 0 -39.5 16.5t-16.5 40.5q0 23 16.5 39.5t39.5 16.5z" />
    <glyph glyph-name="Eogonek" unicode="&#x118;" horiz-adv-x="536" 
d="M88 718h412v-71h-340v-224h337v-70h-337v-282h337v-71h-409v718zM399 0h53q-59 -50 -59 -94q0 -22 18.5 -38t52.5 -16q14 0 34 2l-4 -41q-21 -5 -42 -5q-54 0 -82.5 26t-28.5 62q0 63 58 104z" />
    <glyph glyph-name="eogonek" unicode="&#x119;" horiz-adv-x="649" 
d="M523 176v-112q-25 -26 -51 -41l-44 -23q-30 -14 -101 -14q-130 0 -203 85.5t-73 192.5q0 101 62 180q79 101 210 101q136 0 217 -103q58 -73 59 -182h-478q2 -93 59 -152t141 -59q41 0 79 14t65 37.5t58 75.5zM523 319q-14 55 -39.5 87.5t-68.5 52.5t-91 20
q-78 0 -134 -50q-41 -37 -62 -110h395zM337 0h53q-59 -50 -59 -94q0 -22 18.5 -38t52.5 -16q14 0 34 2l-4 -41q-21 -5 -42 -5q-54 0 -82.5 26t-28.5 62q0 63 58 104z" />
    <glyph glyph-name="Ecaron" unicode="&#x11a;" horiz-adv-x="536" 
d="M88 718h412v-71h-340v-224h337v-70h-337v-282h337v-71h-409v718zM294 774v0l-174 125h88l86 -57l89 57h91z" />
    <glyph glyph-name="ecaron" unicode="&#x11b;" horiz-adv-x="649" 
d="M523 176v-112q-25 -26 -51 -41l-44 -23q-30 -14 -101 -14q-130 0 -203 85.5t-73 192.5q0 101 62 180q79 101 210 101q136 0 217 -103q58 -73 59 -182h-478q2 -93 59 -152t141 -59q41 0 79 14t65 37.5t58 75.5zM523 319q-14 55 -39.5 87.5t-68.5 52.5t-91 20
q-78 0 -134 -50q-41 -37 -62 -110h395zM322 628v0l-174 125h88l86 -57l89 57h91z" />
    <glyph glyph-name="Gcircumflex" unicode="&#x11c;" horiz-adv-x="872" 
d="M780 598l-55 -53q-60 59 -132 89.5t-139 30.5q-84 0 -161 -41.5t-119 -112.5t-42 -150q0 -81 43.5 -154t120.5 -115t168 -42q111 0 187.5 62.5t90.5 162.5h-229v69h310q-1 -167 -99 -264.5t-262 -97.5q-199 0 -316 136q-89 104 -89 241q0 102 51.5 190t140.5 137.5
t202 49.5q91 0 171.5 -32.5t157.5 -105.5zM445 899v0l172 -126h-88l-86 61l-89 -61h-91z" />
    <glyph glyph-name="gcircumflex" unicode="&#x11d;" horiz-adv-x="672" 
d="M534 531h69v-423q0 -112 -20 -164q-27 -73 -93.5 -112.5t-159.5 -39.5q-68 0 -122.5 19.5t-89 52t-62.5 94.5h74q30 -53 78 -78.5t119 -25.5q70 0 118 26.5t68.5 66t20.5 127.5v27q-39 -49 -94.5 -75t-118.5 -26q-73 0 -137.5 36.5t-99.5 98t-35 135.5t36.5 137.5
t101 100.5t136.5 37q60 0 111.5 -24.5t99.5 -81.5v92zM332 479q-58 0 -108 -28t-78 -77.5t-28 -107.5q0 -87 58.5 -144.5t151.5 -57.5q94 0 151.5 57t57.5 149q0 60 -26.5 107t-74.5 74.5t-104 27.5zM330 753v0l172 -126h-88l-86 61l-89 -61h-91z" />
    <glyph glyph-name="Gbreve" unicode="&#x11e;" horiz-adv-x="872" 
d="M780 598l-55 -53q-60 59 -132 89.5t-139 30.5q-84 0 -161 -41.5t-119 -112.5t-42 -150q0 -81 43.5 -154t120.5 -115t168 -42q111 0 187.5 62.5t90.5 162.5h-229v69h310q-1 -167 -99 -264.5t-262 -97.5q-199 0 -316 136q-89 104 -89 241q0 102 51.5 190t140.5 137.5
t202 49.5q91 0 171.5 -32.5t157.5 -105.5zM263 888h64q17 -25 44.5 -38t66.5 -13t63 11t45 40h63q-11 -44 -55 -73.5t-116 -29.5t-117.5 29t-57.5 74z" />
    <glyph glyph-name="gbreve" unicode="&#x11f;" horiz-adv-x="672" 
d="M534 531h69v-423q0 -112 -20 -164q-27 -73 -93.5 -112.5t-159.5 -39.5q-68 0 -122.5 19.5t-89 52t-62.5 94.5h74q30 -53 78 -78.5t119 -25.5q70 0 118 26.5t68.5 66t20.5 127.5v27q-39 -49 -94.5 -75t-118.5 -26q-73 0 -137.5 36.5t-99.5 98t-35 135.5t36.5 137.5
t101 100.5t136.5 37q60 0 111.5 -24.5t99.5 -81.5v92zM332 479q-58 0 -108 -28t-78 -77.5t-28 -107.5q0 -87 58.5 -144.5t151.5 -57.5q94 0 151.5 57t57.5 149q0 60 -26.5 107t-74.5 74.5t-104 27.5zM164 745h64q17 -25 44.5 -38t66.5 -13t63 11t45 40h63q-11 -44 -55 -73.5
t-116 -29.5t-117.5 29t-57.5 74z" />
    <glyph glyph-name="Gdot" unicode="&#x120;" horiz-adv-x="872" 
d="M780 598l-55 -53q-60 59 -132 89.5t-139 30.5q-84 0 -161 -41.5t-119 -112.5t-42 -150q0 -81 43.5 -154t120.5 -115t168 -42q111 0 187.5 62.5t90.5 162.5h-229v69h310q-1 -167 -99 -264.5t-262 -97.5q-199 0 -316 136q-89 104 -89 241q0 102 51.5 190t140.5 137.5
t202 49.5q91 0 171.5 -32.5t157.5 -105.5zM445 887q23 0 40 -16.5t17 -39.5t-16.5 -40t-40.5 -17q-23 0 -39.5 16.5t-16.5 40.5q0 23 16.5 39.5t39.5 16.5z" />
    <glyph glyph-name="gdot" unicode="&#x121;" horiz-adv-x="672" 
d="M534 531h69v-423q0 -112 -20 -164q-27 -73 -93.5 -112.5t-159.5 -39.5q-68 0 -122.5 19.5t-89 52t-62.5 94.5h74q30 -53 78 -78.5t119 -25.5q70 0 118 26.5t68.5 66t20.5 127.5v27q-39 -49 -94.5 -75t-118.5 -26q-73 0 -137.5 36.5t-99.5 98t-35 135.5t36.5 137.5
t101 100.5t136.5 37q60 0 111.5 -24.5t99.5 -81.5v92zM332 479q-58 0 -108 -28t-78 -77.5t-28 -107.5q0 -87 58.5 -144.5t151.5 -57.5q94 0 151.5 57t57.5 149q0 60 -26.5 107t-74.5 74.5t-104 27.5zM338 741q23 0 40 -16.5t17 -39.5t-16.5 -40t-40.5 -17q-23 0 -39.5 16.5
t-16.5 40.5q0 23 16.5 39.5t39.5 16.5z" />
    <glyph glyph-name="Gcedilla" unicode="&#x122;" horiz-adv-x="872" 
d="M780 598l-55 -53q-60 59 -132 89.5t-139 30.5q-84 0 -161 -41.5t-119 -112.5t-42 -150q0 -81 43.5 -154t120.5 -115t168 -42q111 0 187.5 62.5t90.5 162.5h-229v69h310q-1 -167 -99 -264.5t-262 -97.5q-199 0 -316 136q-89 104 -89 241q0 102 51.5 190t140.5 137.5
t202 49.5q91 0 171.5 -32.5t157.5 -105.5zM425.926 0h43l-8 -58q11 1 18 2q24 0 40 -15t16 -37q0 -32 -29 -55t-83 -23q-43 0 -81 15l11 34q31 -10 58 -10q37 0 51.5 9t14.5 23q0 8 -8 14.5t-22 6.5q-12 0 -34 -5z" />
    <glyph glyph-name="gcedilla" unicode="&#x123;" horiz-adv-x="672" 
d="M534 531h69v-423q0 -112 -20 -164q-27 -73 -93.5 -112.5t-159.5 -39.5q-68 0 -122.5 19.5t-89 52t-62.5 94.5h74q30 -53 78 -78.5t119 -25.5q70 0 118 26.5t68.5 66t20.5 127.5v27q-39 -49 -94.5 -75t-118.5 -26q-73 0 -137.5 36.5t-99.5 98t-35 135.5t36.5 137.5
t101 100.5t136.5 37q60 0 111.5 -24.5t99.5 -81.5v92zM332 479q-58 0 -108 -28t-78 -77.5t-28 -107.5q0 -87 58.5 -144.5t151.5 -57.5q94 0 151.5 57t57.5 149q0 60 -26.5 107t-74.5 74.5t-104 27.5zM331 887l38 -21q-19 -37 -25 -58t-9 -54h43v-135h-88v84q0 63 8.5 99
t32.5 85z" />
    <glyph glyph-name="Hcircumflex" unicode="&#x124;" horiz-adv-x="683" 
d="M86 718h73v-301h365v301h72v-718h-72v347h-365v-347h-73v718zM346 899v0l172 -126h-88l-86 61l-89 -61h-91z" />
    <glyph glyph-name="hcircumflex" unicode="&#x125;" horiz-adv-x="609" 
d="M76 736h69v-300q42 55 91.5 82t107.5 27q60 0 106 -30.5t68 -81.5t22 -160v-273h-69v253q0 92 -7 123q-13 53 -46.5 79.5t-87.5 26.5q-62 0 -111 -41t-65 -102q-10 -39 -9 -144v-195h-69v736zM310 899v0l172 -126h-88l-86 61l-89 -61h-91z" />
    <glyph glyph-name="Hbar" unicode="&#x126;" horiz-adv-x="683" 
d="M159 605h365v113h72v-113h65v-67h-65v-538h-72v347h-365v-347h-72v538h-65v67h65v113h72v-113zM159 538v-121h365v121h-365z" />
    <glyph glyph-name="hbar" unicode="&#x127;" horiz-adv-x="609" 
d="M145 662h182v-57h-182v-169q83 109 198 109q69 0 117.5 -38.5t64 -90t15.5 -143.5v-273h-69v253q0 92 -10 134t-43.5 68.5t-87.5 26.5q-47 0 -84 -21.5t-61.5 -57.5t-32 -74.5t-7.5 -133.5v-195h-69v605h-74v57h74v74h69v-74z" />
    <glyph glyph-name="Itilde" unicode="&#x128;" horiz-adv-x="226" 
d="M77 718h72v-718h-72v718zM258 875l34 -48q-35 -25 -59 -34t-51 -9q-35 0 -72 18q-32 16 -41 18q-12 3 -25 4q-17 0 -32.5 -6t-44.5 -28l-32 50q44 47 109 47q31 0 75 -19q42 -19 66 -19q26 0 73 26z" />
    <glyph glyph-name="itilde" unicode="&#x129;" horiz-adv-x="200" 
d="M66 531h69v-531h-69v531zM244 729l34 -48q-35 -25 -59 -34t-51 -9q-35 0 -72 18q-32 16 -41 18q-12 3 -25 4q-17 0 -32.5 -6t-44.5 -28l-32 50q44 47 109 47q31 0 75 -19q42 -19 66 -19q26 0 73 26z" />
    <glyph glyph-name="Imacron" unicode="&#x12a;" horiz-adv-x="226" 
d="M77 718h72v-718h-72v718zM-55 867h337v-58h-337v58z" />
    <glyph glyph-name="imacron" unicode="&#x12b;" horiz-adv-x="200" 
d="M66 531h69v-531h-69v531zM-69 722h337v-58h-337v58z" />
    <glyph glyph-name="Ibreve" unicode="&#x12c;" horiz-adv-x="226" 
d="M77 718h72v-718h-72v718zM-60 891h64q17 -25 44.5 -38t66.5 -13t63 11t45 40h63q-11 -44 -55 -73.5t-116 -29.5t-117.5 29t-57.5 74z" />
    <glyph glyph-name="ibreve" unicode="&#x12d;" horiz-adv-x="200" 
d="M66 531h69v-531h-69v531zM-72 745h64q17 -25 44.5 -38t66.5 -13t63 11t45 40h63q-11 -44 -55 -73.5t-116 -29.5t-117.5 29t-57.5 74z" />
    <glyph glyph-name="Iogonek" unicode="&#x12e;" horiz-adv-x="226" 
d="M77 718h72v-718h-72v718zM96 0h53q-59 -50 -59 -94q0 -22 18.5 -38t52.5 -16q14 0 34 2l-4 -41q-21 -5 -42 -5q-54 0 -82.5 26t-28.5 62q0 63 58 104z" />
    <glyph glyph-name="iogonek" unicode="&#x12f;" horiz-adv-x="200" 
d="M100 750q23 0 40 -16.5t17 -40.5q0 -23 -16.5 -39.5t-40.5 -16.5q-23 0 -39.5 16.5t-16.5 39.5t16.5 40t39.5 17zM66 531h69v-531h-69v531zM82 0h53q-59 -50 -59 -94q0 -22 18.5 -38t52.5 -16q14 0 34 2l-4 -41q-21 -5 -42 -5q-54 0 -82.5 26t-28.5 62q0 63 58 104z" />
    <glyph glyph-name="Idotaccent" unicode="&#x130;" horiz-adv-x="226" 
d="M77 718h72v-718h-72v718zM113 884q23 0 40 -16.5t17 -39.5t-16.5 -40t-40.5 -17q-23 0 -39.5 16.5t-16.5 40.5q0 23 16.5 39.5t39.5 16.5z" />
    <glyph glyph-name="dotlessi" unicode="&#x131;" horiz-adv-x="200" 
d="M66 531h69v-531h-69v531z" />
    <glyph glyph-name="IJ" unicode="&#x132;" horiz-adv-x="708" 
d="M77 718h72v-718h-72v718zM549 718h72v-485q0 -96 -12.5 -143t-55.5 -77.5t-106 -30.5q-89 0 -179 76l39 57q92 -66 140 -66q36 0 62.5 23.5t33 56.5t6.5 107v482z" />
    <glyph glyph-name="ij" unicode="&#x133;" horiz-adv-x="402" 
d="M100 750q23 0 40 -16.5t17 -39.5t-16.5 -40t-40.5 -17q-23 0 -39.5 16.5t-16.5 40.5t17 40t39 16zM302 750q23 0 39.5 -16t16.5 -40q0 -23 -16.5 -40t-39.5 -17t-39.5 16.5t-16.5 40.5t16.5 40t39.5 16zM66 531h69v-531h-69v531zM268 531h69v-611q0 -128 -90 -128
q-36 0 -78 17v61q26 -14 49 -14q19 0 31 10t15.5 23.5t3.5 50.5v591z" />
    <glyph glyph-name="Jcircumflex" unicode="&#x134;" horiz-adv-x="481" 
d="M322 718h73v-485q0 -112 -17.5 -155.5t-58 -69.5t-98.5 -26q-43 0 -85.5 17t-93.5 59l38 57q56 -40 93 -55q24 -11 48 -11q31 0 56 18.5t35 49t10 119.5v482zM310 899v0l172 -126h-88l-86 61l-89 -61h-91z" />
    <glyph glyph-name="jcircumflex" unicode="&#x135;" horiz-adv-x="203" 
d="M69 753h68l142 -126h-88l-86 75l-90 -75h-91zM68 531h69v-611q0 -128 -90 -128q-36 0 -78 17v61q26 -14 50 -14q19 0 30.5 10t15 23.5t3.5 50.5v591z" />
    <glyph glyph-name="Kcedilla" unicode="&#x136;" horiz-adv-x="590" 
d="M87 718h74v-269l286 269h97l-345 -322l372 -396h-95l-315 335v-335h-74v718zM241 -62q22 7 46 7q77 0 77 -53q0 -34 -30.5 -56t-81.5 -22q-30 0 -71 11l10 35q33 -7 51 -7q63 0 64 32q0 21 -36 21q-13 0 -35 -7z" />
    <glyph glyph-name="kcedilla" unicode="&#x137;" horiz-adv-x="501" 
d="M76 736h69v-419l245 214h101l-292 -253l309 -278h-97l-266 239v-239h-69v736zM205 -62q22 7 46 7q77 0 77 -53q0 -34 -30.5 -56t-81.5 -22q-30 0 -71 11l10 35q33 -7 51 -7q63 0 64 32q0 21 -36 21q-13 0 -35 -7z" />
    <glyph glyph-name="kgreenlandic" unicode="&#x138;" horiz-adv-x="501" 
d="M76 531h69v-214l245 214h101l-292 -253l309 -278h-97l-266 239v-239h-69v531z" />
    <glyph glyph-name="Lacute" unicode="&#x139;" horiz-adv-x="461" 
d="M87 718h73v-649h276v-69h-349v718zM267.387 925.508h105l-144 -150h-68z" />
    <glyph glyph-name="lacute" unicode="&#x13a;" horiz-adv-x="200" 
d="M66 736h68v-736h-68v736zM145.316 925.02h105l-144 -150h-68z" />
    <glyph glyph-name="Lcedilla" unicode="&#x13b;" horiz-adv-x="461" 
d="M87 718h73v-649h276v-69h-349v718zM199 -62q22 7 46 7q77 0 77 -53q0 -34 -30.5 -56t-81.5 -22q-30 0 -71 11l10 35q33 -7 51 -7q63 0 64 32q0 21 -36 21q-13 0 -35 -7z" />
    <glyph glyph-name="lcedilla" unicode="&#x13c;" horiz-adv-x="200" 
d="M66 736h68v-736h-68v736zM52 -62q22 7 46 7q77 0 77 -53q0 -34 -30.5 -56t-81.5 -22q-30 0 -71 11l10 35q33 -7 51 -7q63 0 64 32q0 21 -36 21q-13 0 -35 -7z" />
    <glyph glyph-name="Lcaron" unicode="&#x13d;" horiz-adv-x="461" 
d="M87 718h73v-649h276v-69h-349v718zM272 450l-37 22q19 37 25 58t9 54h-43v134h88v-84q0 -63 -8.5 -99t-33.5 -85z" />
    <glyph glyph-name="lcaron" unicode="&#x13e;" horiz-adv-x="206" 
d="M65 736h69v-736h-69v736zM210 508l-32 19q26 51 29 95h-37v114h75v-71q0 -52 -6.5 -83t-28.5 -74z" />
    <glyph glyph-name="Ldot" unicode="&#x13f;" horiz-adv-x="461" 
d="M87 718h73v-649h276v-69h-349v718zM298.883 425q23 0 40 -16.5t17 -40.5q0 -23 -17 -39.5t-40 -16.5t-40 16.5t-17 39.5t17 40t40 17z" />
    <glyph glyph-name="ldot" unicode="&#x140;" horiz-adv-x="263" 
d="M66 736h68v-736h-68v736zM230.523 425q23 0 40 -16.5t17 -40.5q0 -23 -17 -39.5t-40 -16.5t-40 16.5t-17 39.5t17 40t40 17z" />
    <glyph glyph-name="Lslash" unicode="&#x141;" horiz-adv-x="517" 
d="M214 418l130 108v-85l-130 -108v-264h276v-69h-348v273l-99 -82v85l99 82v360h72v-300z" />
    <glyph glyph-name="lslash" unicode="&#x142;" horiz-adv-x="299" 
d="M184 474l98 63v-68l-98 -63v-406h-68v362l-90 -58v68l90 58v306h68v-262z" />
    <glyph glyph-name="Nacute" unicode="&#x143;" horiz-adv-x="739" 
d="M88 0v718v0l496 -532l-3 532h71v-718v0l-488 528l-2 -528h-74zM420.219 925.02h105l-144 -150h-68z" />
    <glyph glyph-name="nacute" unicode="&#x144;" horiz-adv-x="609" 
d="M76 531h69v-95q41 55 90.5 82t108.5 27q60 0 106 -30.5t68 -81.5t22 -160v-273h-68v253q0 92 -8 123q-12 53 -46 79.5t-88 26.5q-62 0 -111 -41t-65 -102q-10 -40 -9 -144v-195h-69v531zM325.98 780h105l-144 -150h-68z" />
    <glyph glyph-name="Ncedilla" unicode="&#x145;" horiz-adv-x="739" 
d="M88 0v718v0l496 -532l-3 532h71v-718v0l-488 528l-2 -528h-74zM322 -62q22 7 46 7q77 0 77 -53q0 -34 -30.5 -56t-81.5 -22q-30 0 -71 11l10 35q33 -7 51 -7q63 0 64 32q0 21 -36 21q-13 0 -35 -7z" />
    <glyph glyph-name="ncedilla" unicode="&#x146;" horiz-adv-x="609" 
d="M76 531h69v-95q41 55 90.5 82t108.5 27q60 0 106 -30.5t68 -81.5t22 -160v-273h-68v253q0 92 -8 123q-12 53 -46 79.5t-88 26.5q-62 0 -111 -41t-65 -102q-10 -40 -9 -144v-195h-69v531zM257 -62q22 7 46 7q77 0 77 -53q0 -34 -30.5 -56t-81.5 -22q-30 0 -71 11l10 35
q33 -7 51 -7q63 0 64 32q0 21 -36 21q-13 0 -35 -7z" />
    <glyph glyph-name="Ncaron" unicode="&#x147;" horiz-adv-x="739" 
d="M88 0v718v0l496 -532l-3 532h71v-718v0l-488 528l-2 -528h-74zM370 773v0l-174 125h88l86 -57l89 57h91z" />
    <glyph glyph-name="ncaron" unicode="&#x148;" horiz-adv-x="609" 
d="M76 531h69v-95q41 55 90.5 82t108.5 27q60 0 106 -30.5t68 -81.5t22 -160v-273h-68v253q0 92 -8 123q-12 53 -46 79.5t-88 26.5q-62 0 -111 -41t-65 -102q-10 -40 -9 -144v-195h-69v531zM333 628v0l-174 125h88l86 -57l89 57h91z" />
    <glyph glyph-name="napostrophe" unicode="&#x149;" horiz-adv-x="612" 
d="M78.4414 531h69v-95q41 55 90.5 82t108.5 27q60 0 106 -30.5t68 -81.5t22 -160v-273h-68v253q0 92 -8 123q-12 53 -46 79.5t-88 26.5q-62 0 -111 -41t-65 -102q-10 -40 -9 -144v-195h-69v531zM12 468l-37 22q19 37 25 58t9 54h-43v134h88v-84q0 -63 -8.5 -99t-33.5 -85z
" />
    <glyph glyph-name="Eng" unicode="&#x14a;" horiz-adv-x="776" 
d="M258 74l52 44q50 -68 128 -68q90 0 149 89.5t59 221.5q0 134 -76 220.5t-187 86.5q-66 0 -125.5 -34t-98.5 -88v-546h-72v718h72v-87q96 105 234 105q145 0 236.5 -109.5t91.5 -271.5q0 -164 -81.5 -268.5t-204.5 -104.5q-107 0 -177 92z" />
    <glyph glyph-name="eng" unicode="&#x14b;" horiz-adv-x="609" 
d="M540 273v-353q0 -128 -92 -128q-35 0 -76 17v61q26 -14 49 -14q20 0 31.5 10t15.5 23.5t4 50.5v313q0 92 -10.5 134t-44 68.5t-87.5 26.5q-47 0 -84 -21.5t-61.5 -57.5t-32 -74.5t-7.5 -133.5v-195h-69v531h69v-95q82 109 198 109q69 0 117 -38t64 -90t16 -144z" />
    <glyph glyph-name="Omacron" unicode="&#x14c;" horiz-adv-x="869" 
d="M430 736q163 0 272.5 -108.5t109.5 -268.5q0 -158 -109.5 -267.5t-266.5 -109.5q-160 0 -270 109.5t-110 264.5q0 104 50 192t136.5 138t187.5 50zM433 666q-80 0 -151 -41.5t-111 -112t-40 -156.5q0 -128 88.5 -216t213.5 -88q83 0 154.5 40.5t111 110.5t39.5 156
q0 85 -39.5 154.5t-112 111t-153.5 41.5zM266 868h337v-58h-337v58z" />
    <glyph glyph-name="omacron" unicode="&#x14d;" horiz-adv-x="654" 
d="M328 545q123 0 203 -89q73 -81 73 -192t-77.5 -194.5t-198.5 -83.5q-122 0 -199.5 83.5t-77.5 194.5q0 110 73 192q81 89 204 89zM328 478q-85 0 -146 -63t-61 -152q0 -58 27.5 -108t75 -77t104.5 -27t104 27t75 77t28 108q0 89 -61.5 152t-145.5 63zM159 722h337v-58
h-337v58z" />
    <glyph glyph-name="Obreve" unicode="&#x14e;" horiz-adv-x="869" 
d="M430 736q163 0 272.5 -108.5t109.5 -268.5q0 -158 -109.5 -267.5t-266.5 -109.5q-160 0 -270 109.5t-110 264.5q0 104 50 192t136.5 138t187.5 50zM433 666q-80 0 -151 -41.5t-111 -112t-40 -156.5q0 -128 88.5 -216t213.5 -88q83 0 154.5 40.5t111 110.5t39.5 156
q0 85 -39.5 154.5t-112 111t-153.5 41.5zM262 891h64q17 -25 44.5 -38t66.5 -13t63 11t45 40h63q-11 -44 -55 -73.5t-116 -29.5t-117.5 29t-57.5 74z" />
    <glyph glyph-name="obreve" unicode="&#x14f;" horiz-adv-x="654" 
d="M328 545q123 0 203 -89q73 -81 73 -192t-77.5 -194.5t-198.5 -83.5q-122 0 -199.5 83.5t-77.5 194.5q0 110 73 192q81 89 204 89zM328 478q-85 0 -146 -63t-61 -152q0 -58 27.5 -108t75 -77t104.5 -27t104 27t75 77t28 108q0 89 -61.5 152t-145.5 63zM155 745h64
q17 -25 44.5 -38t66.5 -13t63 11t45 40h63q-11 -44 -55 -73.5t-116 -29.5t-117.5 29t-57.5 74z" />
    <glyph glyph-name="Odblacute" unicode="&#x150;" horiz-adv-x="869" 
d="M430 736q163 0 272.5 -108.5t109.5 -268.5q0 -158 -109.5 -267.5t-266.5 -109.5q-160 0 -270 109.5t-110 264.5q0 104 50 192t136.5 138t187.5 50zM433 666q-80 0 -151 -41.5t-111 -112t-40 -156.5q0 -128 88.5 -216t213.5 -88q83 0 154.5 40.5t111 110.5t39.5 156
q0 85 -39.5 154.5t-112 111t-153.5 41.5zM415 926h105l-144 -150h-68zM569 926h105l-144 -150h-67z" />
    <glyph glyph-name="odblacute" unicode="&#x151;" horiz-adv-x="654" 
d="M328 545q123 0 203 -89q73 -81 73 -192t-77.5 -194.5t-198.5 -83.5q-122 0 -199.5 83.5t-77.5 194.5q0 110 73 192q81 89 204 89zM328 478q-85 0 -146 -63t-61 -152q0 -58 27.5 -108t75 -77t104.5 -27t104 27t75 77t28 108q0 89 -61.5 152t-145.5 63zM316 780h105
l-144 -150h-68zM470 780h105l-144 -150h-67z" />
    <glyph glyph-name="OE" unicode="&#x152;" horiz-adv-x="1193" 
d="M743 718h409v-71h-336v-223h336v-70h-336v-283h336v-71h-409v139q-48 -62 -91.5 -93t-97.5 -47.5t-117 -16.5q-180 0 -292 133q-89 106 -89 240q0 102 50 191t140 139.5t192 50.5q97 0 184 -50q70 -40 121 -107v139zM435 667q-121 0 -211.5 -91.5t-90.5 -214.5
q0 -129 89.5 -219t218.5 -90q125 0 213 90t88 218q0 83 -40.5 153t-113.5 112t-153 42z" />
    <glyph glyph-name="oe" unicode="&#x153;" horiz-adv-x="1137" 
d="M1081 259h-477q7 -109 68.5 -159.5t139.5 -50.5q63 0 114.5 33t79.5 94l-1 -112q-28 -37 -74 -54q-65 -23 -123 -24q-48 0 -92.5 15t-75.5 39.5t-71 80.5q-44 -67 -104 -101t-134 -34q-115 0 -195.5 82t-80.5 201q0 132 100 213q78 63 176 63q79 0 146 -43q48 -31 92 -98
q41 65 87 96q66 45 153 45q114 0 193.5 -79t79.5 -189zM328 479q-54 0 -102 -28t-75.5 -79t-27.5 -107q0 -58 27.5 -108t77.5 -79t105 -29q54 0 102.5 28.5t75 77t26.5 107.5q0 92 -61 154.5t-148 62.5zM1006 318q-20 77 -72.5 119t-123.5 42q-77 0 -135 -49
q-44 -38 -64 -112h395z" />
    <glyph glyph-name="Racute" unicode="&#x154;" horiz-adv-x="606" 
d="M91 718h143q120 0 162 -10q64 -15 104.5 -62.5t40.5 -118.5q0 -59 -28 -103t-79 -67t-142 -23l259 -334h-89l-258 334h-41v-334h-72v718zM163 648v-244l124 -1q72 0 106 13.5t53.5 43.5t19.5 67q0 36 -19.5 66t-51.5 42.5t-105 12.5h-127zM354.301 925.02h105l-144 -150
h-68z" />
    <glyph glyph-name="racute" unicode="&#x155;" horiz-adv-x="300" 
d="M50 531h70v-77q31 46 66 68q34 22 72 23q30 0 59 -1v-55q-64 2 -72 -2q-42 -17 -64 -37q-32 -28 -48 -87q-13 -45 -13 -183v-180h-70v531zM206.352 780h105l-144 -150h-68z" />
    <glyph glyph-name="Rcedilla" unicode="&#x156;" horiz-adv-x="606" 
d="M91 718h143q120 0 162 -10q64 -15 104.5 -62.5t40.5 -118.5q0 -59 -28 -103t-79 -67t-142 -23l259 -334h-89l-258 334h-41v-334h-72v718zM163 648v-244l124 -1q72 0 106 13.5t53.5 43.5t19.5 67q0 36 -19.5 66t-51.5 42.5t-105 12.5h-127zM246 -62q22 7 46 7q77 0 77 -53
q0 -34 -30.5 -56t-81.5 -22q-30 0 -71 11l10 35q33 -7 51 -7q63 0 64 32q0 21 -36 21q-13 0 -35 -7z" />
    <glyph glyph-name="rcedilla" unicode="&#x157;" horiz-adv-x="300" 
d="M50 531h70v-77q31 46 66 68q34 22 72 23q30 0 59 -1v-55q-64 2 -72 -2q-42 -17 -64 -37q-32 -28 -48 -87q-13 -45 -13 -183v-180h-70v531zM96 -62q22 7 46 7q77 0 77 -53q0 -34 -30.5 -56t-81.5 -22q-30 0 -71 11l10 35q33 -7 51 -7q63 0 64 32q0 21 -36 21q-13 0 -35 -7
z" />
    <glyph glyph-name="Rcaron" unicode="&#x158;" horiz-adv-x="606" 
d="M91 718h143q120 0 162 -10q64 -15 104.5 -62.5t40.5 -118.5q0 -59 -28 -103t-79 -67t-142 -23l259 -334h-89l-258 334h-41v-334h-72v718zM163 648v-244l124 -1q72 0 106 13.5t53.5 43.5t19.5 67q0 36 -19.5 66t-51.5 42.5t-105 12.5h-127zM284 773v0l-174 125h88l86 -57
l89 57h91z" />
    <glyph glyph-name="rcaron" unicode="&#x159;" horiz-adv-x="300" 
d="M50 531h70v-77q31 46 66 68q34 22 72 23q30 0 59 -1v-55q-64 2 -72 -2q-42 -17 -64 -37q-32 -28 -48 -87q-13 -45 -13 -183v-180h-70v531zM159 628v0l-174 125h88l86 -57l89 57h91z" />
    <glyph glyph-name="Sacute" unicode="&#x15a;" horiz-adv-x="498" 
d="M13 134l61 36q64 -119 149 -118q36 0 68 16.5t48.5 45t16.5 60.5q0 36 -24 71q-34 48 -124 115q-90 68 -111 98q-38 51 -38 110q0 47 22.5 85.5t63 60.5t88.5 22q51 0 95 -25t93 -92l-58 -45q-41 54 -69.5 71t-62.5 17q-43 0 -70.5 -26.5t-27.5 -64.5q0 -23 9.5 -45.5
t35.5 -47.5q14 -14 93 -72q93 -69 128 -123t35 -108q0 -78 -59.5 -135.5t-144.5 -57.5q-65 0 -118.5 35t-98.5 117zM269.828 925.02h105l-144 -150h-68z" />
    <glyph glyph-name="sacute" unicode="&#x15b;" horiz-adv-x="388" 
d="M343 473l-44 -45q-55 53 -107 53q-33 0 -56.5 -22t-23.5 -51q0 -26 19 -50q20 -24 82 -56q76 -40 104 -76q27 -37 27 -83q0 -65 -46 -111t-115 -46q-46 0 -87.5 20t-69.5 56l43 48q52 -59 111 -59q41 0 70 26.5t29 62.5q0 29 -19 52q-19 22 -86 57q-72 37 -98 73t-26 82
q0 61 41.5 101t104.5 40q73 0 147 -72zM196.586 780h105l-144 -150h-68z" />
    <glyph glyph-name="Scircumflex" unicode="&#x15c;" horiz-adv-x="498" 
d="M13 134l61 36q64 -119 149 -118q36 0 68 16.5t48.5 45t16.5 60.5q0 36 -24 71q-34 48 -124 115q-90 68 -111 98q-38 51 -38 110q0 47 22.5 85.5t63 60.5t88.5 22q51 0 95 -25t93 -92l-58 -45q-41 54 -69.5 71t-62.5 17q-43 0 -70.5 -26.5t-27.5 -64.5q0 -23 9.5 -45.5
t35.5 -47.5q14 -14 93 -72q93 -69 128 -123t35 -108q0 -78 -59.5 -135.5t-144.5 -57.5q-65 0 -118.5 35t-98.5 117zM254 899v0l172 -126h-88l-86 61l-89 -61h-91z" />
    <glyph glyph-name="scircumflex" unicode="&#x15d;" horiz-adv-x="388" 
d="M343 473l-44 -45q-55 53 -107 53q-33 0 -56.5 -22t-23.5 -51q0 -26 19 -50q20 -24 82 -56q76 -40 104 -76q27 -37 27 -83q0 -65 -46 -111t-115 -46q-46 0 -87.5 20t-69.5 56l43 48q52 -59 111 -59q41 0 70 26.5t29 62.5q0 29 -19 52q-19 22 -86 57q-72 37 -98 73t-26 82
q0 61 41.5 101t104.5 40q73 0 147 -72zM199 753v0l172 -126h-88l-86 61l-89 -61h-91z" />
    <glyph glyph-name="Scedilla" unicode="&#x15e;" horiz-adv-x="498" 
d="M13 134l61 36q64 -119 149 -118q36 0 68 16.5t48.5 45t16.5 60.5q0 36 -24 71q-34 48 -124 115q-90 68 -111 98q-38 51 -38 110q0 47 22.5 85.5t63 60.5t88.5 22q51 0 95 -25t93 -92l-58 -45q-41 54 -69.5 71t-62.5 17q-43 0 -70.5 -26.5t-27.5 -64.5q0 -23 9.5 -45.5
t35.5 -47.5q14 -14 93 -72q93 -69 128 -123t35 -108q0 -78 -59.5 -135.5t-144.5 -57.5q-65 0 -118.5 35t-98.5 117zM209.617 0h43l-8 -58q11 1 18 2q24 0 40 -15t16 -37q0 -32 -29 -55t-83 -23q-43 0 -81 15l11 34q31 -10 58 -10q37 0 51.5 9t14.5 23q0 8 -8 14.5t-22 6.5
q-12 0 -34 -5z" />
    <glyph glyph-name="scedilla" unicode="&#x15f;" horiz-adv-x="388" 
d="M343 473l-44 -45q-55 53 -107 53q-33 0 -56.5 -22t-23.5 -51q0 -26 19 -50q20 -24 82 -56q76 -40 104 -76q27 -37 27 -83q0 -65 -46 -111t-115 -46q-46 0 -87.5 20t-69.5 56l43 48q52 -59 111 -59q41 0 70 26.5t29 62.5q0 29 -19 52q-19 22 -86 57q-72 37 -98 73t-26 82
q0 61 41.5 101t104.5 40q73 0 147 -72zM166.16 0h43l-8 -58q11 1 18 2q24 0 40 -15t16 -37q0 -32 -29 -55t-83 -23q-43 0 -81 15l11 34q31 -10 58 -10q37 0 51.5 9t14.5 23q0 8 -8 14.5t-22 6.5q-12 0 -34 -5z" />
    <glyph glyph-name="Scaron" unicode="&#x160;" horiz-adv-x="498" 
d="M13 134l61 36q64 -119 149 -118q36 0 68 16.5t48.5 45t16.5 60.5q0 36 -24 71q-34 48 -124 115q-90 68 -111 98q-38 51 -38 110q0 47 22.5 85.5t63 60.5t88.5 22q51 0 95 -25t93 -92l-58 -45q-41 54 -69.5 71t-62.5 17q-43 0 -70.5 -26.5t-27.5 -64.5q0 -23 9.5 -45.5
t35.5 -47.5q14 -14 93 -72q93 -69 128 -123t35 -108q0 -78 -59.5 -135.5t-144.5 -57.5q-65 0 -118.5 35t-98.5 117zM246 774v0l-174 125h88l86 -57l89 57h91z" />
    <glyph glyph-name="scaron" unicode="&#x161;" horiz-adv-x="388" 
d="M343 473l-44 -45q-55 53 -107 53q-33 0 -56.5 -22t-23.5 -51q0 -26 19 -50q20 -24 82 -56q76 -40 104 -76q27 -37 27 -83q0 -65 -46 -111t-115 -46q-46 0 -87.5 20t-69.5 56l43 48q52 -59 111 -59q41 0 70 26.5t29 62.5q0 29 -19 52q-19 22 -86 57q-72 37 -98 73t-26 82
q0 61 41.5 101t104.5 40q73 0 147 -72zM191 628v0l-174 125h88l86 -57l89 57h91z" />
    <glyph glyph-name="Tcedilla" unicode="&#x162;" horiz-adv-x="425" 
d="M16 648v70h394v-70h-160v-648h-73v648h-161zM230 -208l-32 13q16 35 17 61h-40v75h76v-25q0 -81 -21 -124z" />
    <glyph glyph-name="tcedilla" unicode="&#x163;" horiz-adv-x="338" 
d="M136 729h69v-198h108v-58h-108v-473h-69v473h-94v58h94v198zM187 -208l-32 13q16 35 16 61h-40v75h77v-25q0 -81 -21 -124z" />
    <glyph glyph-name="Tcaron" unicode="&#x164;" horiz-adv-x="425" 
d="M16 648v70h394v-70h-160v-648h-73v648h-161zM219 771v0l-174 125h88l86 -57l89 57h91z" />
    <glyph glyph-name="tcaron" unicode="&#x165;" horiz-adv-x="338" 
d="M289 568l-29 13q26 41 28 75h-34v80h68v-50q0 -42 -5.5 -63.5t-27.5 -54.5zM136 729h69v-198h108v-58h-108v-473h-69v473h-94v58h94v198z" />
    <glyph glyph-name="Tbar" unicode="&#x166;" horiz-adv-x="425" 
d="M250 379h137v-67h-137v-312h-73v312h-137v67h137v269h-161v70h394v-70h-160v-269z" />
    <glyph glyph-name="tbar" unicode="&#x167;" horiz-adv-x="338" 
d="M205 296h120v-56h-120v-240h-69v240h-105v56h105v177h-94v58h94v198h69v-198h108v-58h-108v-177z" />
    <glyph glyph-name="Utilde" unicode="&#x168;" horiz-adv-x="654" 
d="M90 718h72v-433q0 -77 3 -97q5 -42 24.5 -70.5t60 -48t81.5 -19.5q36 0 68.5 15.5t54.5 42t32 64.5q7 27 8 113v433h71v-433q0 -96 -18.5 -155.5t-75 -103.5t-136.5 -44q-87 0 -149 41.5t-83 109.5q-13 42 -13 152v433zM476 874l34 -48q-35 -25 -59 -34t-51 -9
q-35 0 -72 18q-32 16 -41 18q-12 3 -25 4q-17 0 -32.5 -6t-44.5 -28l-32 50q44 47 109 47q31 0 75 -19q42 -19 66 -19q26 0 73 26z" />
    <glyph glyph-name="utilde" unicode="&#x169;" horiz-adv-x="607" 
d="M67 531h69v-248q0 -91 10 -125q15 -49 56 -77t98 -28t97 27.5t55 72.5q10 31 10 130v248h70v-260q0 -110 -25.5 -166t-77 -87.5t-129.5 -31.5t-129.5 31.5t-77.5 88t-26 169.5v256zM448 729l34 -48q-35 -25 -59 -34t-51 -9q-35 0 -72 18q-32 16 -41 18q-12 3 -25 4
q-17 0 -32.5 -6t-44.5 -28l-32 50q44 47 109 47q31 0 75 -19q42 -19 66 -19q26 0 73 26z" />
    <glyph glyph-name="Umacron" unicode="&#x16a;" horiz-adv-x="654" 
d="M90 718h72v-433q0 -77 3 -97q5 -42 24.5 -70.5t60 -48t81.5 -19.5q36 0 68.5 15.5t54.5 42t32 64.5q7 27 8 113v433h71v-433q0 -96 -18.5 -155.5t-75 -103.5t-136.5 -44q-87 0 -149 41.5t-83 109.5q-13 42 -13 152v433zM158 868h337v-58h-337v58z" />
    <glyph glyph-name="umacron" unicode="&#x16b;" horiz-adv-x="607" 
d="M67 531h69v-248q0 -91 10 -125q15 -49 56 -77t98 -28t97 27.5t55 72.5q10 31 10 130v248h70v-260q0 -110 -25.5 -166t-77 -87.5t-129.5 -31.5t-129.5 31.5t-77.5 88t-26 169.5v256zM135 722h337v-58h-337v58z" />
    <glyph glyph-name="Ubreve" unicode="&#x16c;" horiz-adv-x="654" 
d="M90 718h72v-433q0 -77 3 -97q5 -42 24.5 -70.5t60 -48t81.5 -19.5q36 0 68.5 15.5t54.5 42t32 64.5q7 27 8 113v433h71v-433q0 -96 -18.5 -155.5t-75 -103.5t-136.5 -44q-87 0 -149 41.5t-83 109.5q-13 42 -13 152v433zM155 891h64q17 -25 44.5 -38t66.5 -13t63 11t45 40
h63q-11 -44 -55 -73.5t-116 -29.5t-117.5 29t-57.5 74z" />
    <glyph glyph-name="ubreve" unicode="&#x16d;" horiz-adv-x="607" 
d="M67 531h69v-248q0 -91 10 -125q15 -49 56 -77t98 -28t97 27.5t55 72.5q10 31 10 130v248h70v-260q0 -110 -25.5 -166t-77 -87.5t-129.5 -31.5t-129.5 31.5t-77.5 88t-26 169.5v256zM131 745h64q17 -25 44.5 -38t66.5 -13t63 11t45 40h63q-11 -44 -55 -73.5t-116 -29.5
t-117.5 29t-57.5 74z" />
    <glyph glyph-name="Uring" unicode="&#x16e;" horiz-adv-x="654" 
d="M90 718h72v-433q0 -77 3 -97q5 -42 24.5 -70.5t60 -48t81.5 -19.5q36 0 68.5 15.5t54.5 42t32 64.5q7 27 8 113v433h71v-433q0 -96 -18.5 -155.5t-75 -103.5t-136.5 -44q-87 0 -149 41.5t-83 109.5q-13 42 -13 152v433zM309 972q43 0 73.5 -30.5t30.5 -74.5
q0 -43 -30.5 -73.5t-73.5 -30.5t-73.5 30.5t-30.5 73.5t30.5 74t73.5 31zM309 922q-22 0 -38 -15.5t-16 -37.5t15.5 -38t38.5 -16q22 0 37.5 16t15.5 38t-15.5 37.5t-37.5 15.5z" />
    <glyph glyph-name="uring" unicode="&#x16f;" horiz-adv-x="607" 
d="M67 531h69v-248q0 -91 10 -125q15 -49 56 -77t98 -28t97 27.5t55 72.5q10 31 10 130v248h70v-260q0 -110 -25.5 -166t-77 -87.5t-129.5 -31.5t-129.5 31.5t-77.5 88t-26 169.5v256zM285 826q43 0 73.5 -30.5t30.5 -74.5q0 -43 -30.5 -73.5t-73.5 -30.5t-73.5 30.5
t-30.5 73.5t30.5 74t73.5 31zM285 776q-22 0 -38 -15.5t-16 -37.5t15.5 -38t38.5 -16q22 0 37.5 16t15.5 38t-15.5 37.5t-37.5 15.5z" />
    <glyph glyph-name="Udblacute" unicode="&#x170;" horiz-adv-x="654" 
d="M90 718h72v-433q0 -77 3 -97q5 -42 24.5 -70.5t60 -48t81.5 -19.5q36 0 68.5 15.5t54.5 42t32 64.5q7 27 8 113v433h71v-433q0 -96 -18.5 -155.5t-75 -103.5t-136.5 -44q-87 0 -149 41.5t-83 109.5q-13 42 -13 152v433zM316 926h105l-144 -150h-68zM470 926h105
l-144 -150h-67z" />
    <glyph glyph-name="udblacute" unicode="&#x171;" horiz-adv-x="607" 
d="M67 531h69v-248q0 -91 10 -125q15 -49 56 -77t98 -28t97 27.5t55 72.5q10 31 10 130v248h70v-260q0 -110 -25.5 -166t-77 -87.5t-129.5 -31.5t-129.5 31.5t-77.5 88t-26 169.5v256zM293 780h105l-144 -150h-68zM447 780h105l-144 -150h-67z" />
    <glyph glyph-name="Uogonek" unicode="&#x172;" horiz-adv-x="654" 
d="M90 718h72v-433q0 -77 3 -97q5 -42 24.5 -70.5t60 -48t81.5 -19.5q36 0 68.5 15.5t54.5 42t32 64.5q7 27 8 113v433h71v-433q0 -96 -18.5 -155.5t-75 -103.5t-136.5 -44q-87 0 -149 41.5t-83 109.5q-13 42 -13 152v433zM332 0h53q-59 -50 -59 -94q0 -22 18.5 -38
t52.5 -16q14 0 34 2l-4 -41q-21 -5 -42 -5q-54 0 -82.5 26t-28.5 62q0 63 58 104z" />
    <glyph glyph-name="uogonek" unicode="&#x173;" horiz-adv-x="607" 
d="M67 531h69v-248q0 -91 10 -125q15 -49 56 -77t98 -28t97 27.5t55 72.5q10 31 10 130v248h70v-260q0 -110 -25.5 -166t-77 -87.5t-129.5 -31.5t-129.5 31.5t-77.5 88t-26 169.5v256zM294 0h53q-59 -50 -59 -94q0 -22 18.5 -38t52.5 -16q14 0 34 2l-4 -41q-21 -5 -42 -5
q-54 0 -82.5 26t-28.5 62q0 63 58 104z" />
    <glyph glyph-name="Wcircumflex" unicode="&#x174;" horiz-adv-x="959" 
d="M47 718h74l146 -517l213 517v0l211 -517l149 517h73l-212 -718v0l-221 543l-224 -543v0zM485 899v0l172 -126h-88l-86 61l-89 -61h-91z" />
    <glyph glyph-name="wcircumflex" unicode="&#x175;" horiz-adv-x="831" 
d="M4 531h71l162 -385l177 385v0l176 -385l165 385h72l-237 -531v0l-176 380l-176 -380v0zM421 753v0l172 -126h-88l-86 61l-89 -61h-91z" />
    <glyph glyph-name="Ycircumflex" unicode="&#x176;" horiz-adv-x="591" 
d="M31 718h83l183 -296l181 296h83l-228 -375v-343h-70v343zM301 899v0l172 -126h-88l-86 61l-89 -61h-91z" />
    <glyph glyph-name="ycircumflex" unicode="&#x177;" horiz-adv-x="536" 
d="M19 531h72l183 -409l177 409h73l-317 -725h-72l102 234zM273 753v0l172 -126h-88l-86 61l-89 -61h-91z" />
    <glyph glyph-name="Ydieresis" unicode="&#x178;" horiz-adv-x="591" 
d="M31 718h83l183 -296l181 296h83l-228 -375v-343h-70v343zM196.328 886.508q23 0 40 -16.5t17 -39.5t-17 -40t-40 -17t-40 16.5t-17 40.5q0 23 17 39.5t40 16.5zM395.328 886.508q23 0 40 -16.5t17 -39.5t-16.5 -40t-40.5 -17q-23 0 -39.5 16.5t-16.5 40.5q0 23 16.5 39.5
t39.5 16.5z" />
    <glyph glyph-name="Zacute" unicode="&#x179;" horiz-adv-x="479" 
d="M60 649v69h378l-300 -648h285v-70h-396l303 649h-270zM257.621 925.02h105l-144 -150h-68z" />
    <glyph glyph-name="zacute" unicode="&#x17a;" horiz-adv-x="424" 
d="M33 531h390l-301 -470h291v-61h-409l301 471h-272v60zM260.062 780h105l-144 -150h-68z" />
    <glyph glyph-name="Zdot" unicode="&#x17b;" horiz-adv-x="479" 
d="M60 649v69h378l-300 -648h285v-70h-396l303 649h-270zM221 886q23 0 40 -16.5t17 -39.5t-16.5 -40t-40.5 -17q-23 0 -39.5 16.5t-16.5 40.5q0 23 16.5 39.5t39.5 16.5z" />
    <glyph glyph-name="zdot" unicode="&#x17c;" horiz-adv-x="424" 
d="M33 531h390l-301 -470h291v-61h-409l301 471h-272v60zM196 741q23 0 40 -16.5t17 -39.5t-16.5 -40t-40.5 -17q-23 0 -39.5 16.5t-16.5 40.5q0 23 16.5 39.5t39.5 16.5z" />
    <glyph glyph-name="Zcaron" unicode="&#x17d;" horiz-adv-x="479" 
d="M60 649v69h378l-300 -648h285v-70h-396l303 649h-270zM237 774v0l-174 125h88l86 -57l89 57h91z" />
    <glyph glyph-name="zcaron" unicode="&#x17e;" horiz-adv-x="424" 
d="M33 531h390l-301 -470h291v-61h-409l301 471h-272v60zM209 628v0l-174 125h88l86 -57l89 57h91z" />
    <glyph glyph-name="longs" unicode="&#x17f;" horiz-adv-x="200" 
d="M252 736v-67q-36 16 -64 17q-21 0 -35.5 -10t-16.5 -25t-2 -48v-603h-68v585q0 74 6.5 100t32.5 45.5t68 19.5q35 0 79 -14z" />
    <glyph glyph-name="florin" unicode="&#x192;" horiz-adv-x="554" 
d="M303 431h113l-8 -60h-114l-52 -347q-14 -96 -36 -142t-54 -68t-67 -22q-33 0 -69 24l8 60q27 -22 55 -22q35 0 60 36t40 145l50 336h-69l8 60h69l24 155q14 90 31 117q32 47 82 47q41 0 86 -32l-9 -65q-38 36 -68 36q-24 0 -37 -22t-22 -93z" />
    <glyph glyph-name="Aringacute" unicode="&#x1fa;" horiz-adv-x="739" 
d="M373 719l343 -719h-77l-113 236h-310l-112 -236h-80l349 719v0zM372 566l-123 -260h245zM372 890q43 0 73.5 -30.5t30.5 -74.5q0 -43 -30.5 -73.5t-73.5 -30.5t-73.5 30.5t-30.5 73.5t30.5 74t73.5 31zM372 840q-22 0 -38 -15.5t-16 -37.5t15.5 -38t38.5 -16
q22 0 37.5 16t15.5 38t-15.5 37.5t-37.5 15.5zM390.922 1059.3h105l-144 -150h-68z" />
    <glyph glyph-name="aringacute" unicode="&#x1fb;" horiz-adv-x="683" 
d="M605 531v-531h-67v91q-43 -52 -96.5 -78.5t-116.5 -26.5q-113 0 -193 82t-80 199q0 115 80.5 196.5t194.5 81.5q65 0 118 -28t93 -83v97h67zM332 479q-57 0 -105.5 -28t-77 -79t-28.5 -107t29 -107.5t77.5 -80t104.5 -28.5t106 28t77 76.5t27 109.5q0 92 -60.5 154
t-149.5 62zM342 806q43 0 73.5 -30.5t30.5 -74.5q0 -43 -30.5 -73.5t-73.5 -30.5t-73.5 30.5t-30.5 73.5t30.5 74t73.5 31zM342 756q-22 0 -38 -15.5t-16 -37.5t15.5 -38t38.5 -16q22 0 37.5 16t15.5 38t-15.5 37.5t-37.5 15.5zM364.066 975.312h105l-144 -150h-68z" />
    <glyph glyph-name="AEacute" unicode="&#x1fc;" horiz-adv-x="992" 
d="M0 0l464 718h445v-73h-339v-221h339v-71h-339v-283h339v-70h-411v235h-262l-152 -235h-84zM282 303h216v332zM634.574 925.02h105l-144 -150h-68z" />
    <glyph glyph-name="aeacute" unicode="&#x1fd;" horiz-adv-x="1157" 
d="M608 531v-96q52 62 100 86t113 24q120 0 198.5 -80.5t78.5 -205.5h-478q2 -57 30 -107t74.5 -76.5t103.5 -26.5q61 0 109.5 30t84.5 95l1 -109q-29 -30 -75 -56q-35 -21 -125 -23q-72 -1 -134 34q-42 24 -81 75v-95h-63v98q-43 -54 -84 -77q-59 -34 -128 -35
q-113 0 -193.5 82t-80.5 200q0 76 36 139t100 100.5t136 37.5q70 0 128 -34q42 -24 86 -76v96h63zM1022 318q-14 56 -39.5 88.5t-68.5 52.5t-89 20t-90 -20.5t-71.5 -55t-39.5 -85.5h398zM335 479q-56 0 -104 -28t-75.5 -77t-27.5 -108q0 -92 61 -153.5t149 -61.5t148.5 61
t60.5 153q0 64 -26 111t-76.5 75t-109.5 28zM611.625 780h105l-144 -150h-68z" />
    <glyph glyph-name="Oslashacute" unicode="&#x1fe;" horiz-adv-x="868" 
d="M710 620q49 -50 75.5 -116.5t26.5 -144.5q0 -158 -109.5 -267.5t-267.5 -109.5q-120 0 -213 62l-80 -94l-53 42l81 95q-114 111 -114 269q0 104 50 192.5t137 138t191 49.5q125 0 228 -72l70 85l52 -42zM217 142l396 466q-83 58 -180 58q-80 0 -151.5 -41.5t-111.5 -112
t-40 -157.5q1 -124 87 -213zM662 563l-393 -463q74 -48 164 -48q83 0 154 40.5t111 110.5t40 156q0 120 -76 204zM467.582 925.508h105l-144 -150h-68z" />
    <glyph glyph-name="oslashacute" unicode="&#x1ff;" horiz-adv-x="652" 
d="M538 446q65 -79 65 -182q0 -111 -77.5 -194.5t-198.5 -83.5q-80 0 -146 40l-57 -67l-43 37l55 65q-86 83 -86 203q0 111 77 196t199 85q98 0 172 -59l56 67l45 -36zM179 112l274 321q-58 45 -126 45q-54 0 -102.5 -28.5t-76.5 -79t-28 -107.5q0 -42 15.5 -82.5
t43.5 -68.5zM492 392l-268 -315q50 -26 102 -26q57 0 104.5 27t75.5 77t28 107q0 71 -42 130zM356.742 780h105l-144 -150h-68z" />
    <glyph glyph-name="circumflex" unicode="&#x2c6;" horiz-adv-x="501" 
d="M256 753v0l172 -126h-88l-86 61l-89 -61h-91z" />
    <glyph glyph-name="caron" unicode="&#x2c7;" horiz-adv-x="501" 
d="M248 628v0l-174 125h88l86 -57l89 57h91z" />
    <glyph glyph-name="macron" unicode="&#x2c9;" horiz-adv-x="484" 
d="M74 722h337v-58h-337v58z" />
    <glyph glyph-name="breve" unicode="&#x2d8;" horiz-adv-x="453" 
d="M54 745h64q17 -25 44.5 -38t66.5 -13t63 11t45 40h63q-11 -44 -55 -73.5t-116 -29.5t-117.5 29t-57.5 74z" />
    <glyph glyph-name="dotaccent" unicode="&#x2d9;" horiz-adv-x="222" 
d="M111 741q23 0 40 -16.5t17 -39.5t-16.5 -40t-40.5 -17q-23 0 -39.5 16.5t-16.5 40.5q0 23 16.5 39.5t39.5 16.5z" />
    <glyph glyph-name="ring" unicode="&#x2da;" horiz-adv-x="332" 
d="M166 826q43 0 73.5 -30.5t30.5 -74.5q0 -43 -30.5 -73.5t-73.5 -30.5t-73.5 30.5t-30.5 73.5t30.5 74t73.5 31zM166 776q-22 0 -38 -15.5t-16 -37.5t15.5 -38t38.5 -16q22 0 37.5 16t15.5 38t-15.5 37.5t-37.5 15.5z" />
    <glyph glyph-name="ogonek" unicode="&#x2db;" horiz-adv-x="301" 
d="M151 0h53q-59 -50 -59 -94q0 -22 18.5 -38t52.5 -16q14 0 34 2l-4 -41q-21 -5 -42 -5q-54 0 -82.5 26t-28.5 62q0 63 58 104z" />
    <glyph glyph-name="tilde" unicode="&#x2dc;" horiz-adv-x="438" 
d="M364 729l34 -48q-35 -25 -59 -34t-51 -9q-35 0 -72 18q-32 16 -41 18q-12 3 -25 4q-17 0 -32.5 -6t-44.5 -28l-32 50q44 47 109 47q31 0 75 -19q42 -19 66 -19q26 0 73 26z" />
    <glyph glyph-name="hungarumlaut" unicode="&#x2dd;" horiz-adv-x="551" 
d="M232 780h105l-144 -150h-68zM386 780h105l-144 -150h-67z" />
    <glyph glyph-name="tonos" unicode="&#x384;" horiz-adv-x="377" 
d="M231 780l-13 -165h-58l-14 165h85z" />
    <glyph glyph-name="dieresistonos" unicode="&#x385;" horiz-adv-x="377" 
d="M231 780l-13 -165h-58l-14 165h85zM309 630q-18 0 -30.5 13t-12.5 31q0 19 12.5 31t30.5 12t30.5 -12.5t12.5 -30.5t-12.5 -31t-30.5 -13zM69 630q-18 0 -31 13t-13 31t13 30.5t31 12.5t30.5 -12.5t12.5 -30.5t-12.5 -31t-30.5 -13z" />
    <glyph glyph-name="Alphatonos" unicode="&#x386;" horiz-adv-x="739" 
d="M373 719l343 -719h-77l-113 236h-310l-112 -236h-80l349 719v0zM372 566l-123 -260h245zM206.586 736.055l-13 -165h-58l-14 165h85z" />
    <glyph glyph-name="anoteleia" unicode="&#x387;" horiz-adv-x="276" 
d="M211 484q0 -25 -17 -42.5t-43 -17.5q-25 0 -42.5 17.5t-17.5 42.5t17.5 43t42.5 18t42.5 -18t17.5 -43z" />
    <glyph glyph-name="Epsilontonos" unicode="&#x388;" horiz-adv-x="580" 
d="M131.945 718h412v-71h-340v-224h337v-70h-337v-282h337v-71h-409v718zM36.1758 736.055l-13 -165h-58l-14 165h85z" />
    <glyph glyph-name="Etatonos" unicode="&#x389;" horiz-adv-x="727" 
d="M129.945 718h73v-301h365v301h72v-718h-72v347h-365v-347h-73v718zM36.1758 736.055l-13 -165h-58l-14 165h85z" />
    <glyph glyph-name="Iotatonos" unicode="&#x38a;" horiz-adv-x="270" 
d="M120.945 718h72v-718h-72v718zM36.1758 736.055l-13 -165h-58l-14 165h85z" />
    <glyph glyph-name="Omicrontonos" unicode="&#x38c;" horiz-adv-x="869" 
d="M430 736q163 0 272.5 -108.5t109.5 -268.5q0 -158 -109.5 -267.5t-266.5 -109.5q-160 0 -270 109.5t-110 264.5q0 104 50 192t136.5 138t187.5 50zM433 666q-80 0 -151 -41.5t-111 -112t-40 -156.5q0 -128 88.5 -216t213.5 -88q83 0 154.5 40.5t111 110.5t39.5 156
q0 85 -39.5 154.5t-112 111t-153.5 41.5zM36.1758 736.055l-13 -165h-58l-14 165h85z" />
    <glyph glyph-name="Upsilontonos" unicode="&#x38e;" horiz-adv-x="645" 
d="M84.7109 718h83l183 -296l181 296h83l-228 -375v-343h-70v343zM36.1758 736.055l-13 -165h-58l-14 165h85z" />
    <glyph glyph-name="Omegatonos" unicode="&#x38f;" horiz-adv-x="836" 
d="M539 67h211v-67h-274v96q146 95 184.5 162.5t38.5 142.5q0 121 -78 193t-203 72t-202.5 -72.5t-77.5 -192.5q0 -74 36.5 -141t185.5 -164v-96h-274v67h212q-142 88 -188.5 165t-46.5 170q0 149 100.5 241.5t254.5 92.5q155 0 255 -92.5t100 -241.5q0 -93 -46 -170
t-188 -165zM36.1758 736.055l-13 -165h-58l-14 165h85z" />
    <glyph glyph-name="iotadieresistonos" unicode="&#x390;" horiz-adv-x="200" 
d="M66 531h69v-531h-69v531zM142.621 780l-13 -165h-58l-14 165h85zM220.621 630q-18 0 -30.5 13t-12.5 31q0 19 12.5 31t30.5 12t30.5 -12.5t12.5 -30.5t-12.5 -31t-30.5 -13zM-19.3789 630q-18 0 -31 13t-13 31t13 30.5t31 12.5t30.5 -12.5t12.5 -30.5t-12.5 -31
t-30.5 -13z" />
    <glyph glyph-name="Alpha" unicode="&#x391;" horiz-adv-x="739" 
d="M373 719l343 -719h-77l-113 236h-310l-112 -236h-80l349 719v0zM372 566l-123 -260h245z" />
    <glyph glyph-name="Beta" unicode="&#x392;" horiz-adv-x="574" 
d="M89 718h142q85 0 131 -20t72.5 -62t26.5 -94q0 -48 -23 -87t-69 -63q56 -19 86.5 -45t47.5 -62t17 -79q0 -86 -63.5 -146t-169.5 -60h-198v718zM160 648v-230h41q75 0 110 14t55.5 44t20.5 66q0 49 -34.5 77.5t-109.5 28.5h-83zM160 346v-276h89q79 0 115 15.5t58.5 48.5
t22.5 71q0 48 -31.5 83.5t-85.5 48.5q-37 9 -128 9h-40z" />
    <glyph glyph-name="Gamma" unicode="&#x393;" horiz-adv-x="461" 
d="M446 647h-288v-647h-72v718h360v-71z" />
    <glyph glyph-name="uni0394" unicode="&#x394;" horiz-adv-x="739" 
d="M716 0h-692l348 718v0zM605 71l-233 495l-235 -495h468z" />
    <glyph glyph-name="Epsilon" unicode="&#x395;" horiz-adv-x="536" 
d="M88 718h412v-71h-340v-224h337v-70h-337v-282h337v-71h-409v718z" />
    <glyph glyph-name="Zeta" unicode="&#x396;" horiz-adv-x="479" 
d="M60 649v69h378l-300 -648h285v-70h-396l303 649h-270z" />
    <glyph glyph-name="Eta" unicode="&#x397;" horiz-adv-x="683" 
d="M86 718h73v-301h365v301h72v-718h-72v347h-365v-347h-73v718z" />
    <glyph glyph-name="Theta" unicode="&#x398;" horiz-adv-x="869" 
d="M436 -18q-159 0 -269.5 108t-110.5 266q0 159 109 269.5t265 110.5q163 0 272.5 -107.5t109.5 -269.5q0 -159 -108.5 -268t-267.5 -109zM433 666q-121 0 -211.5 -88t-90.5 -222q0 -127 87.5 -215.5t214.5 -88.5t216 87.5t89 219.5q0 142 -95 224.5t-210 82.5zM614 328
h-360v70h360v-70z" />
    <glyph glyph-name="Iota" unicode="&#x399;" horiz-adv-x="226" 
d="M77 718h72v-718h-72v718z" />
    <glyph glyph-name="Kappa" unicode="&#x39a;" horiz-adv-x="590" 
d="M87 718h74v-269l286 269h97l-345 -322l372 -396h-95l-315 335v-335h-74v718z" />
    <glyph glyph-name="Lambda" unicode="&#x39b;" horiz-adv-x="702" 
d="M668.66 0.261719h-78l-238 555l-242 -555h-78l321 718v0z" />
    <glyph glyph-name="Mu" unicode="&#x39c;" horiz-adv-x="918" 
d="M55 0l102 718v0l303 -589l301 589v0l103 -718h-71l-70 514l-263 -514v0l-266 518l-70 -518h-69z" />
    <glyph glyph-name="Nu" unicode="&#x39d;" horiz-adv-x="739" 
d="M88 0v718v0l496 -532l-3 532h71v-718v0l-488 528l-2 -528h-74z" />
    <glyph glyph-name="Xi" unicode="&#x39e;" horiz-adv-x="530" 
d="M475 647h-419v71h419v-71zM475 353h-419v70h419v-70zM475 0h-419v71h419v-71z" />
    <glyph glyph-name="Omicron" unicode="&#x39f;" horiz-adv-x="869" 
d="M430 736q163 0 272.5 -108.5t109.5 -268.5q0 -158 -109.5 -267.5t-266.5 -109.5q-160 0 -270 109.5t-110 264.5q0 104 50 192t136.5 138t187.5 50zM433 666q-80 0 -151 -41.5t-111 -112t-40 -156.5q0 -128 88.5 -216t213.5 -88q83 0 154.5 40.5t111 110.5t39.5 156
q0 85 -39.5 154.5t-112 111t-153.5 41.5z" />
    <glyph glyph-name="Pi" unicode="&#x3a0;" horiz-adv-x="683" 
d="M596 0h-72v650h-365v-650h-73v718h510v-718z" />
    <glyph glyph-name="Rho" unicode="&#x3a1;" horiz-adv-x="591" 
d="M87 718h143q123 0 166 -10q62 -15 101 -62.5t39 -118.5q0 -72 -38.5 -118.5t-104.5 -62.5q-49 -12 -183 -12h-51v-334h-72v718zM159 648v-244l121 -1q74 0 108 13.5t53.5 43.5t19.5 67q0 36 -19.5 66t-51.5 42.5t-104 12.5h-127z" />
    <glyph glyph-name="Sigma" unicode="&#x3a3;" horiz-adv-x="501" 
d="M453 0h-421l201 358l-198 360h410v-69h-293l161 -291l-162 -288h302v-70z" />
    <glyph glyph-name="Tau" unicode="&#x3a4;" horiz-adv-x="425" 
d="M16 648v70h394v-70h-160v-648h-73v648h-161z" />
    <glyph glyph-name="Upsilon" unicode="&#x3a5;" horiz-adv-x="591" 
d="M31 718h83l183 -296l181 296h83l-228 -375v-343h-70v343z" />
    <glyph glyph-name="Phi" unicode="&#x3a6;" horiz-adv-x="859" 
d="M466 71v-71h-72v71q-158 10 -251.5 87.5t-93.5 204.5t94 205.5t251 88.5v61h72v-61q158 -10 251.5 -87.5t93.5 -205.5q0 -127 -94.5 -205.5t-250.5 -87.5zM466 590v-452q116 7 193 60.5t77 165.5q0 100 -71.5 159t-198.5 67zM394 138v452q-116 -7 -193.5 -60.5
t-77.5 -165.5q0 -100 72 -159t199 -67z" />
    <glyph glyph-name="Chi" unicode="&#x3a7;" horiz-adv-x="608" 
d="M49 718h84l172 -280l174 280h83l-214 -348l228 -370h-84l-187 301l-187 -301h-84l229 370z" />
    <glyph glyph-name="Psi" unicode="&#x3a8;" horiz-adv-x="791" 
d="M723 471q0 -101 -29 -159.5t-97 -95t-165 -41.5v-175h-73v175q-90 5 -153 35t-100.5 87t-37.5 179v242h74v-218q0 -89 14 -136t66 -80t137 -39v473h73v-473q89 7 140 41t64 78t13 136v218h74v-247z" />
    <glyph glyph-name="Omega" unicode="&#x3a9;" horiz-adv-x="836" 
d="M539 67h211v-67h-274v96q146 95 184.5 162.5t38.5 142.5q0 121 -78 193t-203 72t-202.5 -72.5t-77.5 -192.5q0 -74 36.5 -141t185.5 -164v-96h-274v67h212q-142 88 -188.5 165t-46.5 170q0 149 100.5 241.5t254.5 92.5q155 0 255 -92.5t100 -241.5q0 -93 -46 -170
t-188 -165z" />
    <glyph glyph-name="Iotadieresis" unicode="&#x3aa;" horiz-adv-x="226" 
d="M77 718h72v-718h-72v718zM13.7109 886.508q23 0 40 -16.5t17 -39.5t-17 -40t-40 -17t-40 16.5t-17 40.5q0 23 17 39.5t40 16.5zM212.711 886.508q23 0 40 -16.5t17 -39.5t-16.5 -40t-40.5 -17q-23 0 -39.5 16.5t-16.5 40.5q0 23 16.5 39.5t39.5 16.5z" />
    <glyph glyph-name="Upsilondieresis" unicode="&#x3ab;" horiz-adv-x="591" 
d="M31 718h83l183 -296l181 296h83l-228 -375v-343h-70v343zM196.328 886.508q23 0 40 -16.5t17 -39.5t-17 -40t-40 -17t-40 16.5t-17 40.5q0 23 17 39.5t40 16.5zM395.328 886.508q23 0 40 -16.5t17 -39.5t-16.5 -40t-40.5 -17q-23 0 -39.5 16.5t-16.5 40.5q0 23 16.5 39.5
t39.5 16.5z" />
    <glyph glyph-name="alphatonos" unicode="&#x3ac;" horiz-adv-x="683" 
d="M605 531v-531h-67v91q-43 -52 -96.5 -78.5t-116.5 -26.5q-113 0 -193 82t-80 199q0 115 80.5 196.5t194.5 81.5q65 0 118 -28t93 -83v97h67zM332 479q-57 0 -105.5 -28t-77 -79t-28.5 -107t29 -107.5t77.5 -80t104.5 -28.5t106 28t77 76.5t27 109.5q0 92 -60.5 154
t-149.5 62zM383.832 780l-13 -165h-58l-14 165h85z" />
    <glyph glyph-name="epsilontonos" unicode="&#x3ad;" horiz-adv-x="422" 
d="M404 57q-66 -71 -175 -71q-78 0 -128.5 45.5t-50.5 119.5q0 100 96 141q-73 30 -73 112q0 63 44.5 102.5t111.5 39.5q81 0 152 -60l-38 -48q-56 43 -111 43q-43 0 -68 -23t-25 -63q0 -38 25.5 -62.5t65.5 -24.5h36v-59h-42q-43 0 -71.5 -28t-28.5 -70q0 -47 30 -74
t80 -27q77 0 127 55zM253.461 780l-13 -165h-58l-14 165h85z" />
    <glyph glyph-name="etatonos" unicode="&#x3ae;" horiz-adv-x="609" 
d="M540 -194h-68v447q0 80 -8 124.5t-42 74.5t-92 30q-63 0 -111.5 -41t-61 -89.5t-12.5 -156.5v-195h-69v531h69v-95q82 109 199 109q57 0 103 -28.5t69.5 -80t23.5 -163.5v-467zM347.211 780l-13 -165h-58l-14 165h85z" />
    <glyph glyph-name="iotatonos" unicode="&#x3af;" horiz-adv-x="200" 
d="M66 531h69v-531h-69v531zM142.133 780l-13 -165h-58l-14 165h85z" />
    <glyph glyph-name="upsilondieresistonos" unicode="&#x3b0;" horiz-adv-x="595" 
d="M66 531h69v-248q0 -80 8.5 -122.5t50 -75t105.5 -32.5q86 0 131 57.5t45 155.5q0 133 -124 217l37 62q156 -92 156 -292q0 -117 -66 -192t-179 -75q-104 0 -168.5 61t-64.5 228v256zM339.887 780l-13 -165h-58l-14 165h85zM417.887 630q-18 0 -30.5 13t-12.5 31
q0 19 12.5 31t30.5 12t30.5 -12.5t12.5 -30.5t-12.5 -31t-30.5 -13zM177.887 630q-18 0 -31 13t-13 31t13 30.5t31 12.5t30.5 -12.5t12.5 -30.5t-12.5 -31t-30.5 -13z" />
    <glyph glyph-name="alpha" unicode="&#x3b1;" horiz-adv-x="683" 
d="M605 531v-531h-67v91q-43 -52 -96.5 -78.5t-116.5 -26.5q-113 0 -193 82t-80 199q0 115 80.5 196.5t194.5 81.5q65 0 118 -28t93 -83v97h67zM332 479q-57 0 -105.5 -28t-77 -79t-28.5 -107t29 -107.5t77.5 -80t104.5 -28.5t106 28t77 76.5t27 109.5q0 92 -60.5 154
t-149.5 62z" />
    <glyph glyph-name="beta" unicode="&#x3b2;" horiz-adv-x="596" 
d="M145 80v-274h-69v735q0 112 58 160.5t137 48.5q81 0 129 -43t48 -116q0 -113 -107 -152q94 -9 149.5 -66.5t55.5 -146.5q0 -102 -68 -171t-168 -69q-104 0 -165 94zM212 393v57q166 4 166 134q0 45 -27.5 73.5t-73.5 28.5q-64 0 -98 -35.5t-34 -126.5l1 -299
q0 -79 47.5 -126.5t115.5 -47.5q71 0 119 49t48 121q0 71 -48.5 121.5t-180.5 50.5h-35z" />
    <glyph glyph-name="gamma" unicode="&#x3b3;" horiz-adv-x="554" 
d="M526 531l-216 -471v-254h-67v255l-217 470h73l177 -386l177 386h73z" />
    <glyph glyph-name="delta" unicode="&#x3b4;" horiz-adv-x="571" 
d="M217 442q-81 54 -80 142q0 74 56.5 120t140.5 46q62 0 117 -14l-18 -61q-41 11 -93 11q-62 0 -97.5 -27.5t-35.5 -72.5q0 -39 23.5 -67t125.5 -69q165 -66 165 -227q0 -100 -67.5 -168.5t-167.5 -68.5t-167.5 68.5t-67.5 168.5q-1 160 166 219zM286 394q-69 0 -117 -51
t-48 -122t47.5 -120.5t117.5 -49.5t118 49.5t48 120.5t-48.5 122t-117.5 51zM286 458z" />
    <glyph glyph-name="epsilon" unicode="&#x3b5;" horiz-adv-x="422" 
d="M404 57q-66 -71 -175 -71q-78 0 -128.5 45.5t-50.5 119.5q0 100 96 141q-73 30 -73 112q0 63 44.5 102.5t111.5 39.5q81 0 152 -60l-38 -48q-56 43 -111 43q-43 0 -68 -23t-25 -63q0 -38 25.5 -62.5t65.5 -24.5h36v-59h-42q-43 0 -71.5 -28t-28.5 -70q0 -47 30 -74
t80 -27q77 0 127 55z" />
    <glyph glyph-name="zeta" unicode="&#x3b6;" horiz-adv-x="465" 
d="M189 -198l18 61q31 -8 58 -8q121 0 121 78q0 29 -27 46t-101 31q-200 39 -200 237q0 103 71 204.5t230 224.5h-245v60h329v-60q-176 -148 -246 -242t-70 -183q0 -76 35 -119.5t128 -62.5q112 -23 139 -55t26 -78q0 -67 -51.5 -105.5t-133.5 -38.5q-43 0 -81 10z" />
    <glyph glyph-name="eta" unicode="&#x3b7;" horiz-adv-x="609" 
d="M540 -194h-68v447q0 80 -8 124.5t-42 74.5t-92 30q-63 0 -111.5 -41t-61 -89.5t-12.5 -156.5v-195h-69v531h69v-95q82 109 199 109q57 0 103 -28.5t69.5 -80t23.5 -163.5v-467z" />
    <glyph glyph-name="theta" unicode="&#x3b8;" horiz-adv-x="654" 
d="M328 -14q-131 0 -204 102.5t-73 277.5q0 176 73 280t204 104t203.5 -104t72.5 -280q0 -175 -72.5 -277.5t-203.5 -102.5zM534 398q-6 134 -60 212t-146 78t-146 -77.5t-61 -212.5h413zM534 338h-413q5 -137 58.5 -213t148.5 -76t148 75.5t58 213.5z" />
    <glyph glyph-name="iota" unicode="&#x3b9;" horiz-adv-x="200" 
d="M66 531h69v-531h-69v531z" />
    <glyph glyph-name="kappa" unicode="&#x3ba;" horiz-adv-x="501" 
d="M508 0h-97l-266 239v-239h-69v532h69v-215l245 214h101l-292 -253z" />
    <glyph glyph-name="lambda" unicode="&#x3bb;" horiz-adv-x="536" 
d="M524 0h-73l-177 409l-183 -409h-72l218 491l-107 245h72z" />
    <glyph glyph-name="mu" unicode="&#x3bc;" horiz-adv-x="609" 
d="M534 0h-69v96q-82 -109 -199 -109q-85 0 -127 56v-237h-69v726h69v-254q0 -80 7.5 -124t41.5 -74t92 -30q63 0 111 40.5t61 89.5t13 157v195h69v-532z" />
    <glyph glyph-name="nu" unicode="&#x3bd;" horiz-adv-x="554" 
d="M26 531h73l179 -373l175 373h73l-249 -531v0z" />
    <glyph glyph-name="xi" unicode="&#x3be;" horiz-adv-x="465" 
d="M189 -198l18 61q31 -8 58 -8q121 0 121 78q0 25 -22 42t-115 35q-191 36 -191 222q0 71 40.5 124.5t110.5 75.5q-112 55 -111 152q0 78 59 122t153 44q75 0 136 -18l-16 -65q-56 20 -129 19q-61 0 -97.5 -31t-36.5 -81q0 -55 55.5 -87.5t129.5 -32.5h58v-59h-98
q-72 0 -128.5 -39t-56.5 -119q0 -68 33.5 -108t118.5 -59q101 -22 138.5 -47t37.5 -87q0 -67 -51.5 -105.5t-133.5 -38.5q-43 0 -81 10z" />
    <glyph glyph-name="omicron" unicode="&#x3bf;" horiz-adv-x="654" 
d="M328 545q123 0 203 -89q73 -81 73 -192t-77.5 -194.5t-198.5 -83.5q-122 0 -199.5 83.5t-77.5 194.5q0 110 73 192q81 89 204 89zM328 478q-85 0 -146 -63t-61 -152q0 -58 27.5 -108t75 -77t104.5 -27t104 27t75 77t28 108q0 89 -61.5 152t-145.5 63z" />
    <glyph glyph-name="pi" unicode="&#x3c0;" horiz-adv-x="670" 
d="M646 471h-108v-471h-69v471h-268v-471h-69v471h-108v60h622v-60z" />
    <glyph glyph-name="rho" unicode="&#x3c1;" horiz-adv-x="669" 
d="M134 100v-294h-68v444q0 130 79.5 212.5t197.5 82.5q119 0 197.5 -83t78.5 -198q0 -117 -79.5 -197.5t-196.5 -80.5q-131 0 -209 114zM343 478q-87 0 -147 -63.5t-60 -151.5q0 -87 58.5 -149.5t148.5 -62.5q94 0 150.5 63t56.5 149q0 88 -60.5 151.5t-146.5 63.5z" />
    <glyph glyph-name="sigma1" unicode="&#x3c2;" horiz-adv-x="578" 
d="M552 421l-54 -34q-70 93 -177 93q-86 0 -143.5 -60t-57.5 -154q0 -80 44.5 -126t158.5 -67q110 -21 151.5 -47t41.5 -90q0 -67 -51.5 -105.5t-133.5 -38.5q-42 0 -81 10l18 61q31 -8 58 -8q121 0 120 78q0 29 -26 46t-116 31q-253 41 -253 251q0 124 78 204t195 80
q154 0 228 -124z" />
    <glyph glyph-name="sigma" unicode="&#x3c3;" horiz-adv-x="716" 
d="M697 471h-181q88 -85 88 -207q0 -117 -79.5 -197.5t-196.5 -80.5q-118 0 -197.5 80t-79.5 198q0 115 79 198t198 83q48 0 89 -14h280v-60zM328 478q-85 0 -146 -62.5t-61 -152.5q0 -87 58.5 -149.5t148.5 -62.5q96 0 151.5 65t55.5 147q0 88 -60.5 151.5t-146.5 63.5z
" />
    <glyph glyph-name="tau" unicode="&#x3c4;" horiz-adv-x="401" 
d="M377 471h-142v-471h-68v471h-143v60h353v-60z" />
    <glyph glyph-name="upsilon" unicode="&#x3c5;" horiz-adv-x="595" 
d="M66 531h69v-248q0 -80 8.5 -122.5t50 -75t105.5 -32.5q86 0 131 57.5t45 155.5q0 133 -124 217l37 62q156 -92 156 -292q0 -117 -66 -192t-179 -75q-104 0 -168.5 61t-64.5 228v256z" />
    <glyph glyph-name="phi" unicode="&#x3c6;" horiz-adv-x="765" 
d="M417 -13v-181h-69v182q-137 9 -217 82t-80 194q0 95 55.5 165t150.5 103l22 -65q-159 -57 -158 -204q0 -188 227 -208v488q19 1 35 2q154 0 243 -75t89 -206q0 -121 -80.5 -194.5t-217.5 -82.5zM417 478v-423q228 21 228 208q0 98 -61.5 155t-166.5 60z" />
    <glyph glyph-name="chi" unicode="&#x3c7;" horiz-adv-x="479" 
d="M461 531l-184 -342l207 -383h-78l-168 311l-168 -311h-73l204 381l-185 344h77l147 -273l146 273h75z" />
    <glyph glyph-name="psi" unicode="&#x3c8;" horiz-adv-x="735" 
d="M670 271q0 -159 -81 -219.5t-187 -64.5v-181h-68v181q-83 5 -141 33.5t-92.5 83t-34.5 171.5v256h68v-233q0 -85 13 -129.5t61 -76t126 -38.5v477h68v-477q81 6 128 38.5t59.5 74.5t12.5 131v233h68v-260z" />
    <glyph glyph-name="omega" unicode="&#x3c9;" horiz-adv-x="857" 
d="M429 97q-14 -50 -55.5 -80.5t-96.5 -30.5q-105 0 -165.5 68.5t-60.5 188.5q0 127 81.5 211t208.5 91l6 -66q-104 -8 -165 -73.5t-61 -165.5q0 -91 40 -141t111 -50q57 0 89.5 48.5t32.5 140.5v66h69v-66q0 -92 33 -140.5t89 -48.5q68 0 110 48.5t42 142.5
q0 102 -61.5 167t-164.5 72l5 66q127 -6 209 -91t82 -211q0 -120 -60.5 -188.5t-166.5 -68.5q-55 0 -96 30.5t-55 80.5z" />
    <glyph glyph-name="iotadieresis" unicode="&#x3ca;" horiz-adv-x="200" 
d="M66 531h69v-531h-69v531zM0.527344 741q23 0 40 -16.5t17 -39.5t-17 -40t-40 -17t-40 16.5t-17 40.5q0 23 17 39.5t40 16.5zM199.527 741q23 0 40 -16.5t17 -39.5t-16.5 -40t-40.5 -17q-23 0 -39.5 16.5t-16.5 40.5q0 23 16.5 39.5t39.5 16.5z" />
    <glyph glyph-name="upsilondieresis" unicode="&#x3cb;" horiz-adv-x="595" 
d="M66 531h69v-248q0 -80 8.5 -122.5t50 -75t105.5 -32.5q86 0 131 57.5t45 155.5q0 133 -124 217l37 62q156 -92 156 -292q0 -117 -66 -192t-179 -75q-104 0 -168.5 61t-64.5 228v256zM198.281 741q23 0 40 -16.5t17 -39.5t-17 -40t-40 -17t-40 16.5t-17 40.5q0 23 17 39.5
t40 16.5zM397.281 741q23 0 40 -16.5t17 -39.5t-16.5 -40t-40.5 -17q-23 0 -39.5 16.5t-16.5 40.5q0 23 16.5 39.5t39.5 16.5z" />
    <glyph glyph-name="omicrontonos" unicode="&#x3cc;" horiz-adv-x="654" 
d="M328 545q123 0 203 -89q73 -81 73 -192t-77.5 -194.5t-198.5 -83.5q-122 0 -199.5 83.5t-77.5 194.5q0 110 73 192q81 89 204 89zM328 478q-85 0 -146 -63t-61 -152q0 -58 27.5 -108t75 -77t104.5 -27t104 27t75 77t28 108q0 89 -61.5 152t-145.5 63zM369.672 780
l-13 -165h-58l-14 165h85z" />
    <glyph glyph-name="upsilontonos" unicode="&#x3cd;" horiz-adv-x="595" 
d="M66 531h69v-248q0 -80 8.5 -122.5t50 -75t105.5 -32.5q86 0 131 57.5t45 155.5q0 133 -124 217l37 62q156 -92 156 -292q0 -117 -66 -192t-179 -75q-104 0 -168.5 61t-64.5 228v256zM339.887 780l-13 -165h-58l-14 165h85z" />
    <glyph glyph-name="omegatonos" unicode="&#x3ce;" horiz-adv-x="857" 
d="M429 97q-14 -50 -55.5 -80.5t-96.5 -30.5q-105 0 -165.5 68.5t-60.5 188.5q0 127 81.5 211t208.5 91l6 -66q-104 -8 -165 -73.5t-61 -165.5q0 -91 40 -141t111 -50q57 0 89.5 48.5t32.5 140.5v66h69v-66q0 -92 33 -140.5t89 -48.5q68 0 110 48.5t42 142.5
q0 102 -61.5 167t-164.5 72l5 66q127 -6 209 -91t82 -211q0 -120 -60.5 -188.5t-166.5 -68.5q-55 0 -96 30.5t-55 80.5zM470.746 780l-13 -165h-58l-14 165h85z" />
    <glyph glyph-name="afii10023" unicode="&#x401;" horiz-adv-x="536" 
d="M88 718h412v-71h-340v-224h337v-70h-337v-282h337v-71h-409v718zM198.281 886.508q23 0 40 -16.5t17 -39.5t-17 -40t-40 -17t-40 16.5t-17 40.5q0 23 17 39.5t40 16.5zM397.281 886.508q23 0 40 -16.5t17 -39.5t-16.5 -40t-40.5 -17q-23 0 -39.5 16.5t-16.5 40.5
q0 23 16.5 39.5t39.5 16.5z" />
    <glyph glyph-name="afii10051" unicode="&#x402;" horiz-adv-x="670" 
d="M250 648v-231h65q115 0 173 -17.5t92.5 -71.5t34.5 -136q0 -100 -44 -154.5t-125 -54.5q-71 0 -119 48l45 50q32 -30 68 -30q48 0 74.5 38t26.5 103t-21.5 98.5t-61.5 45t-121 11.5h-87v-347h-74v648h-160v70h394v-70h-160z" />
    <glyph glyph-name="afii10052" unicode="&#x403;" horiz-adv-x="461" 
d="M158 0h-72v718h360v-71h-288v-647zM346.488 925.02h105l-144 -150h-68z" />
    <glyph glyph-name="afii10053" unicode="&#x404;" horiz-adv-x="812" 
d="M135 327h340v70h-337q9 123 102 196t205 73q162 0 257 -124l57 43q-49 70 -132 110.5t-183 40.5q-165 0 -276 -107.5t-111 -265.5q0 -160 105 -270.5t283 -110.5q201 0 314 143l-57 43q-101 -118 -252 -118q-116 0 -205.5 67.5t-109.5 209.5z" />
    <glyph glyph-name="afii10054" unicode="&#x405;" horiz-adv-x="498" 
d="M13 134l61 36q64 -119 149 -118q36 0 68 16.5t48.5 45t16.5 60.5q0 36 -24 71q-34 48 -124 115q-90 68 -111 98q-38 51 -38 110q0 47 22.5 85.5t63 60.5t88.5 22q51 0 95 -25t93 -92l-58 -45q-41 54 -69.5 71t-62.5 17q-43 0 -70.5 -26.5t-27.5 -64.5q0 -23 9.5 -45.5
t35.5 -47.5q14 -14 93 -72q93 -69 128 -123t35 -108q0 -78 -59.5 -135.5t-144.5 -57.5q-65 0 -118.5 35t-98.5 117z" />
    <glyph glyph-name="afii10055" unicode="&#x406;" horiz-adv-x="226" 
d="M77 718h72v-718h-72v718z" />
    <glyph glyph-name="afii10056" unicode="&#x407;" horiz-adv-x="226" 
d="M77 718h72v-718h-72v718zM13.7109 886.508q23 0 40 -16.5t17 -39.5t-17 -40t-40 -17t-40 16.5t-17 40.5q0 23 17 39.5t40 16.5zM212.711 886.508q23 0 40 -16.5t17 -39.5t-16.5 -40t-40.5 -17q-23 0 -39.5 16.5t-16.5 40.5q0 23 16.5 39.5t39.5 16.5z" />
    <glyph glyph-name="afii10057" unicode="&#x408;" horiz-adv-x="481" 
d="M322 718h73v-485q0 -112 -17.5 -155.5t-58 -69.5t-98.5 -26q-43 0 -85.5 17t-93.5 59l38 57q56 -40 93 -55q24 -11 48 -11q31 0 56 18.5t35 49t10 119.5v482z" />
    <glyph glyph-name="afii10058" unicode="&#x409;" horiz-adv-x="1064" 
d="M381 718l150 -308h163q116 0 180 -17.5t99.5 -67t35.5 -121.5q0 -74 -36.5 -123.5t-94 -65t-162.5 -15.5h-77l-267 566l-269 -566h-79l339 718h18zM684 69h35q90 0 129.5 10.5t62 43.5t22.5 81q0 50 -24 83t-63.5 43t-141.5 10h-147z" />
    <glyph glyph-name="afii10059" unicode="&#x40a;" horiz-adv-x="1042" 
d="M159 417h365v301h72v-301h51q104 0 155.5 -4.5t95 -28t66.5 -66.5t23 -103q0 -83 -35 -132.5t-92.5 -66t-192.5 -16.5h-143v347h-365v-347h-73v718h73v-301zM596 69h76q104 0 147 8t67.5 41.5t24.5 91.5q0 54 -26 87.5t-68 41.5t-160 8h-61v-278z" />
    <glyph glyph-name="afii10060" unicode="&#x40b;" horiz-adv-x="679" 
d="M250 0h-73v648h-161v70h394v-70h-160v-231h150q80 0 127 -22t67.5 -67.5t20.5 -147.5v-180h-73v184q0 77 -12 106t-42.5 43t-85.5 14h-152v-347z" />
    <glyph glyph-name="afii10061" unicode="&#x40c;" horiz-adv-x="590" 
d="M87 718h74v-269l286 269h97l-345 -322l372 -396h-95l-315 335v-335h-74v718zM377.25 925.02h105l-144 -150h-68z" />
    <glyph glyph-name="afii10062" unicode="&#x40e;" horiz-adv-x="645" 
d="M33 716h81l217 -487l199 489h78l-272 -645q-38 -91 -135 -91q-39 0 -74 16t-88 75l52 43q54 -53 72.5 -60.5t36.5 -7.5q28 0 49 15t46 76zM150.191 890.508h64q17 -25 44.5 -38t66.5 -13t63 11t45 40h63q-11 -44 -55 -73.5t-116 -29.5t-117.5 29t-57.5 74z" />
    <glyph glyph-name="afii10145" unicode="&#x40f;" horiz-adv-x="648" 
d="M292 0h-206v718h73v-650h331v650h72v-718h-203v-107h-67v107z" />
    <glyph glyph-name="afii10017" unicode="&#x410;" horiz-adv-x="739" 
d="M373 719l343 -719h-77l-113 236h-310l-112 -236h-80l349 719v0zM372 566l-123 -260h245z" />
    <glyph glyph-name="afii10018" unicode="&#x411;" horiz-adv-x="572" 
d="M87 0v718h360v-71h-289v-229h33q134 0 195 -23.5t96 -74.5t35 -114q0 -82 -61.5 -144t-171.5 -62h-197zM158 346v-276h88q79 0 115.5 15.5t58 47.5t21.5 72q0 50 -30.5 84.5t-76.5 45.5t-136 11h-40z" />
    <glyph glyph-name="afii10019" unicode="&#x412;" horiz-adv-x="574" 
d="M89 718h142q85 0 131 -20t72.5 -62t26.5 -94q0 -48 -23 -87t-69 -63q56 -19 86.5 -45t47.5 -62t17 -79q0 -86 -63.5 -146t-169.5 -60h-198v718zM160 648v-230h41q75 0 110 14t55.5 44t20.5 66q0 49 -34.5 77.5t-109.5 28.5h-83zM160 346v-276h89q79 0 115 15.5t58.5 48.5
t22.5 71q0 48 -31.5 83.5t-85.5 48.5q-37 9 -128 9h-40z" />
    <glyph glyph-name="afii10020" unicode="&#x413;" horiz-adv-x="461" 
d="M158 0h-72v718h360v-71h-288v-647z" />
    <glyph glyph-name="afii10021" unicode="&#x414;" horiz-adv-x="748" 
d="M85 -107h-70v174h58l282 651h25l297 -651h56v-174h-70v107h-578v-107zM154 67h438l-224 503z" />
    <glyph glyph-name="afii10022" unicode="&#x415;" horiz-adv-x="536" 
d="M88 718h412v-71h-340v-224h337v-70h-337v-282h337v-71h-409v718z" />
    <glyph glyph-name="afii10024" unicode="&#x416;" horiz-adv-x="935" 
d="M503 333v-333h-72v333l-22 21l-294 -354h-95l342 398l-315 320h97l287 -303v303h72v-303l288 303h97l-315 -320l342 -398h-95l-295 354z" />
    <glyph glyph-name="afii10025" unicode="&#x417;" horiz-adv-x="581" 
d="M102 648q76 88 187 88q88 0 146 -51t58 -132q0 -115 -108 -164q142 -44 142 -191q0 -98 -63.5 -157.5t-173.5 -59.5q-77 0 -134 32t-108 112l56 33q50 -73 93.5 -94t90.5 -21q68 0 116 40t48 116q0 41 -16.5 71t-46.5 48.5t-56.5 23.5t-88.5 5h-12v63h24q160 0 160 129
q0 60 -36.5 95.5t-92.5 35.5q-72 0 -136 -66z" />
    <glyph glyph-name="afii10026" unicode="&#x418;" horiz-adv-x="739" 
d="M652 0h-75v550l-473 -550h-16v718h72v-560l476 560h16v-718z" />
    <glyph glyph-name="afii10027" unicode="&#x419;" horiz-adv-x="739" 
d="M652 0h-75v550l-473 -550h-16v718h72v-560l476 560h16v-718zM197.066 890.508h64q17 -25 44.5 -38t66.5 -13t63 11t45 40h63q-11 -44 -55 -73.5t-116 -29.5t-117.5 29t-57.5 74z" />
    <glyph glyph-name="afii10028" unicode="&#x41a;" horiz-adv-x="590" 
d="M87 718h74v-269l286 269h97l-345 -322l372 -396h-95l-315 335v-335h-74v718z" />
    <glyph glyph-name="afii10029" unicode="&#x41b;" horiz-adv-x="702" 
d="M668.66 0.261719h-78l-238 555l-242 -555h-78l321 718v0z" />
    <glyph glyph-name="afii10030" unicode="&#x41c;" horiz-adv-x="918" 
d="M55 0l102 718v0l303 -589l301 589v0l103 -718h-71l-70 514l-263 -514v0l-266 518l-70 -518h-69z" />
    <glyph glyph-name="afii10031" unicode="&#x41d;" horiz-adv-x="683" 
d="M86 718h73v-301h365v301h72v-718h-72v347h-365v-347h-73v718z" />
    <glyph glyph-name="afii10032" unicode="&#x41e;" horiz-adv-x="869" 
d="M430 736q163 0 272.5 -108.5t109.5 -268.5q0 -158 -109.5 -267.5t-266.5 -109.5q-160 0 -270 109.5t-110 264.5q0 104 50 192t136.5 138t187.5 50zM433 666q-80 0 -151 -41.5t-111 -112t-40 -156.5q0 -128 88.5 -216t213.5 -88q83 0 154.5 40.5t111 110.5t39.5 156
q0 85 -39.5 154.5t-112 111t-153.5 41.5z" />
    <glyph glyph-name="afii10033" unicode="&#x41f;" horiz-adv-x="683" 
d="M86 718h510v-718h-72v650h-365v-650h-73v718z" />
    <glyph glyph-name="afii10034" unicode="&#x420;" horiz-adv-x="591" 
d="M87 718h143q123 0 166 -10q62 -15 101 -62.5t39 -118.5q0 -72 -38.5 -118.5t-104.5 -62.5q-49 -12 -183 -12h-51v-334h-72v718zM159 648v-244l121 -1q74 0 108 13.5t53.5 43.5t19.5 67q0 36 -19.5 66t-51.5 42.5t-104 12.5h-127z" />
    <glyph glyph-name="afii10035" unicode="&#x421;" horiz-adv-x="812" 
d="M756 585l-56 -43q-47 61 -113 92.5t-144 31.5q-86 0 -159.5 -41.5t-113.5 -111t-40 -156.5q0 -131 90 -219t227 -88q151 0 253 118l56 -43q-54 -68 -134 -105.5t-179 -37.5q-188 0 -297 125q-91 106 -92 256q0 158 110.5 265.5t277.5 107.5q101 0 181.5 -39.5
t132.5 -111.5z" />
    <glyph glyph-name="afii10036" unicode="&#x422;" horiz-adv-x="425" 
d="M16 648v70h394v-70h-160v-648h-73v648h-161z" />
    <glyph glyph-name="afii10037" unicode="&#x423;" horiz-adv-x="645" 
d="M33 716h81l217 -487l199 489h78l-272 -645q-38 -91 -135 -91q-39 0 -74 16t-88 75l52 43q54 -53 72.5 -60.5t36.5 -7.5q28 0 49 15t46 76z" />
    <glyph glyph-name="afii10038" unicode="&#x424;" horiz-adv-x="871" 
d="M399 718h72v-92h55q162 0 225 -63t63 -151q0 -81 -55 -143.5t-210 -62.5h-78v-206h-72v206h-77q-82 0 -135.5 15.5t-92 67.5t-38.5 123q0 88 62.5 151t226.5 63h54v92zM471 557v-282h76l38 -1q75 0 115 39.5t40 99.5q0 66 -47 105t-141 39h-81zM399 557h-80
q-88 0 -138.5 -37.5t-50.5 -106.5q0 -60 39.5 -99.5t118.5 -39.5l36 1h75v282z" />
    <glyph glyph-name="afii10039" unicode="&#x425;" horiz-adv-x="608" 
d="M49 718h84l172 -280l174 280h83l-214 -348l228 -370h-84l-187 301l-187 -301h-84l229 370z" />
    <glyph glyph-name="afii10040" unicode="&#x426;" horiz-adv-x="708" 
d="M619 0h-532v718h72v-651h332v651h72v-651h123v-174h-67v107z" />
    <glyph glyph-name="afii10041" unicode="&#x427;" horiz-adv-x="539" 
d="M381 408v310h72v-718h-72v338h-52q-107 0 -156.5 9t-89 38.5t-53.5 72t-14 118.5v142h70v-147q0 -90 36.5 -126.5t121.5 -36.5l50 1l22 -1h65z" />
    <glyph glyph-name="afii10042" unicode="&#x428;" horiz-adv-x="1007" 
d="M159 68h306v650h73v-650h311v650h72v-718h-835v718h73v-650z" />
    <glyph glyph-name="afii10043" unicode="&#x429;" horiz-adv-x="1065" 
d="M921 68h123v-175h-67v107h-891v718h73v-650h306v650h73v-650h311v650h72v-650zM1008 195z" />
    <glyph glyph-name="afii10044" unicode="&#x42a;" horiz-adv-x="684" 
d="M165 651h-149v67h221v-308h51q142 0 203.5 -13.5t99 -62.5t37.5 -127q0 -77 -36.5 -126.5t-93.5 -65t-190 -15.5h-143v651zM237 69h76q121 0 158 11.5t59 43t22 80.5q0 54 -27.5 87.5t-69.5 41t-158 7.5h-60v-271z" />
    <glyph glyph-name="afii10045" unicode="&#x42b;" horiz-adv-x="792" 
d="M87 718h72v-308h51q141 0 203 -13.5t99.5 -62.5t37.5 -127q0 -76 -36.5 -126t-93.5 -65.5t-190 -15.5h-143v718zM159 69h76q121 0 158 11.5t59 43t22 80.5q0 54 -27.5 87.5t-70 41t-157.5 7.5h-60v-271zM634 718h72v-718h-72v718z" />
    <glyph glyph-name="afii10046" unicode="&#x42c;" horiz-adv-x="605" 
d="M87 718h72v-308h51q141 0 203 -13.5t99.5 -62.5t37.5 -127q0 -76 -36.5 -126t-93.5 -65.5t-190 -15.5h-143v718zM159 69h76q121 0 158 11.5t59 43t22 80.5q0 54 -27.5 87.5t-70 41t-157.5 7.5h-60v-271z" />
    <glyph glyph-name="afii10047" unicode="&#x42d;" horiz-adv-x="812" 
d="M678 327h-340v70h337q-9 123 -102 196t-205 73q-162 0 -257 -124l-57 43q49 70 132 110.5t183 40.5q165 0 276 -107.5t111 -265.5q0 -160 -105 -270.5t-283 -110.5q-201 0 -314 143l57 43q101 -118 252 -118q116 0 205.5 67.5t109.5 209.5z" />
    <glyph glyph-name="afii10048" unicode="&#x42e;" horiz-adv-x="1095" 
d="M158 397h126q27 173 137 256t235 83q163 0 273 -108.5t110 -268.5q0 -157 -109.5 -267t-267.5 -110q-146 0 -254 93.5t-124 255.5h-126v-331h-72v718h72v-321zM965 359q0 133 -92 220.5t-213 87.5t-212 -88.5t-91 -222.5q0 -131 90.5 -217.5t212.5 -86.5q126 0 215.5 87
t89.5 220z" />
    <glyph glyph-name="afii10049" unicode="&#x42f;" horiz-adv-x="583" 
d="M494.938 718h-143q-120 0 -162 -10q-64 -15 -104.5 -62.5t-40.5 -118.5q0 -59 28 -103t79 -67t142 -23l-259 -334h89l258 334h41v-334h72v718zM422.938 648v-244l-124 -1q-72 0 -106 13.5t-53.5 43.5t-19.5 67q0 36 19.5 66t51.5 42.5t105 12.5h127z" />
    <glyph glyph-name="afii10065" unicode="&#x430;" horiz-adv-x="683" 
d="M605 531v-531h-67v91q-43 -52 -96.5 -78.5t-116.5 -26.5q-113 0 -193 82t-80 199q0 115 80.5 196.5t194.5 81.5q65 0 118 -28t93 -83v97h67zM332 479q-57 0 -105.5 -28t-77 -79t-28.5 -107t29 -107.5t77.5 -80t104.5 -28.5t106 28t77 76.5t27 109.5q0 92 -60.5 154
t-149.5 62z" />
    <glyph glyph-name="afii10066" unicode="&#x431;" horiz-adv-x="668" 
d="M584 748v-66q-49 -8 -167 -12q-86 -3 -132.5 -11.5t-81.5 -32.5t-58.5 -73t-29.5 -110l-7 -74q28 91 92 133.5t141 42.5q118 0 197.5 -83t79.5 -198q0 -114 -79 -196t-198 -82q-122 0 -206 91t-84 286q0 136 31 206.5t71 101t103.5 48t237.5 22.5q53 2 90 7zM549 263
q0 88 -61.5 151.5t-146.5 63.5q-84 0 -145.5 -63.5t-61.5 -151.5t59.5 -150t147.5 -62q89 0 148.5 62t59.5 150z" />
    <glyph glyph-name="afii10067" unicode="&#x432;" horiz-adv-x="467" 
d="M230 0h-154v531h152q87 0 125.5 -40t38.5 -94q0 -81 -72 -109q104 -37 104 -142q-1 -146 -194 -146zM145 472v-166h44q61 0 79.5 5t35 24t16.5 51q0 33 -17 55.5t-36 26.5t-78 4h-44zM145 244v-186h73q52 0 74 6.5t38 28.5t16 55q0 43 -27 69.5t-72 26.5h-102z" />
    <glyph glyph-name="afii10068" unicode="&#x433;" horiz-adv-x="360" 
d="M144 471v-471h-68v531h269v-60h-201z" />
    <glyph glyph-name="afii10069" unicode="&#x434;" horiz-adv-x="604" 
d="M81 58l205 473h35l204 -473h64v-126h-66v68h-440v-71h-67v129h65zM302 426l-155 -368h304z" />
    <glyph glyph-name="afii10070" unicode="&#x435;" horiz-adv-x="649" 
d="M523 176v-112q-25 -26 -51 -41l-44 -23q-30 -14 -101 -14q-130 0 -203 85.5t-73 192.5q0 101 62 180q79 101 210 101q136 0 217 -103q58 -73 59 -182h-478q2 -93 59 -152t141 -59q41 0 79 14t65 37.5t58 75.5zM523 319q-14 55 -39.5 87.5t-68.5 52.5t-91 20
q-78 0 -134 -50q-41 -37 -62 -110h395z" />
    <glyph glyph-name="afii10072" unicode="&#x436;" horiz-adv-x="769" 
d="M349 531h69v-235l254 235h83l-251 -237l270 -294h-87l-230 257l-39 -33v-224h-69v224l-38 33l-229 -257h-88l267 294l-247 237h84l251 -235v235z" />
    <glyph glyph-name="afii10073" unicode="&#x437;" horiz-adv-x="422" 
d="M165 308h36q34 0 62.5 22.5t28.5 64.5q0 36 -23 61t-70 25q-55 0 -111 -43l-39 48q72 60 153 60q66 0 111 -39.5t45 -102.5q0 -83 -73 -112q96 -40 95 -141q0 -63 -44.5 -114t-133.5 -51q-109 0 -175 71l43 48q49 -56 126 -55q52 0 81.5 27.5t29.5 73.5q0 44 -29.5 71
t-70.5 27h-42v59z" />
    <glyph glyph-name="afii10074" unicode="&#x438;" horiz-adv-x="616" 
d="M145 531v-393l390 393h5v-531h-68v390l-388 -390h-8v531h69z" />
    <glyph glyph-name="afii10075" unicode="&#x439;" horiz-adv-x="616" 
d="M145 531v-393l390 393h5v-531h-68v390l-388 -390h-8v531h69zM135.543 745h64q17 -25 44.5 -38t66.5 -13t63 11t45 40h63q-11 -44 -55 -73.5t-116 -29.5t-117.5 29t-57.5 74z" />
    <glyph glyph-name="afii10076" unicode="&#x43a;" horiz-adv-x="501" 
d="M76 531h69v-223l246 223h95l-269 -243l290 -288h-96l-244 246l-22 -19v-227h-69v531z" />
    <glyph glyph-name="afii10077" unicode="&#x43b;" horiz-adv-x="554" 
d="M526 0h-73l-178 387l-176 -387h-73l243 531h12z" />
    <glyph glyph-name="afii10078" unicode="&#x43c;" horiz-adv-x="878" 
d="M661 531v0l192 -531h-72l-131 391l-212 -391v0l-209 391l-131 -391h-72l192 531v0l222 -415z" />
    <glyph glyph-name="afii10079" unicode="&#x43d;" horiz-adv-x="598" 
d="M454 256h-309v-256h-69v531h69v-211h309v211h68v-531h-68v256z" />
    <glyph glyph-name="afii10080" unicode="&#x43e;" horiz-adv-x="654" 
d="M328 545q123 0 203 -89q73 -81 73 -192t-77.5 -194.5t-198.5 -83.5q-122 0 -199.5 83.5t-77.5 194.5q0 110 73 192q81 89 204 89zM328 478q-85 0 -146 -63t-61 -152q0 -58 27.5 -108t75 -77t104.5 -27t104 27t75 77t28 108q0 89 -61.5 152t-145.5 63z" />
    <glyph glyph-name="afii10081" unicode="&#x43f;" horiz-adv-x="598" 
d="M76 531h446v-531h-68v467h-309v-467h-69v531z" />
    <glyph glyph-name="afii10082" unicode="&#x440;" horiz-adv-x="682" 
d="M77 531h68v-97q41 56 93.5 83.5t117.5 27.5q113 0 193.5 -81.5t80.5 -196.5q0 -117 -79.5 -199t-192.5 -82q-63 0 -116.5 26.5t-96.5 78.5v-285h-68v725zM351 479q-89 0 -150 -62t-61 -154q0 -61 27 -109.5t77.5 -76.5t107.5 -28q55 0 103.5 28.5t77.5 79.5t29 108
t-29 107.5t-77 78.5t-105 28z" />
    <glyph glyph-name="afii10083" unicode="&#x441;" horiz-adv-x="646" 
d="M592 421l-54 -34q-70 93 -192 93q-97 0 -161.5 -62.5t-64.5 -151.5q0 -58 29.5 -109.5t81 -79.5t115.5 -28q117 0 192 93l54 -36q-38 -57 -102.5 -88.5t-146.5 -31.5q-126 0 -209 80t-83 195q0 77 39 143.5t107 103.5t152 37q53 0 102 -16t83 -42t58 -66z" />
    <glyph glyph-name="afii10084" unicode="&#x442;" horiz-adv-x="382" 
d="M17 531h349v-59h-140v-472h-69v472h-140v59z" />
    <glyph glyph-name="afii10085" unicode="&#x443;" horiz-adv-x="536" 
d="M19 531h72l183 -409l177 409h73l-317 -725h-72l102 234z" />
    <glyph glyph-name="afii10086" unicode="&#x444;" horiz-adv-x="1082" 
d="M507 736h68v-285q64 91 184 91q116 0 194.5 -78.5t78.5 -201.5q0 -122 -79 -200t-192 -78q-123 0 -186 96v-274h-68v274q-62 -96 -187 -97q-110 0 -189.5 78.5t-79.5 200.5q0 123 78.5 201.5t193.5 78.5q123 0 184 -91v285zM573 253q0 -95 54.5 -149.5t124.5 -54.5
q96 0 153.5 63.5t57.5 153.5q0 92 -61 153t-146 61q-77 0 -130 -54.5t-53 -172.5zM120 265q0 -89 57 -152.5t154 -63.5q33 0 71 17t61 42.5t35 59.5t12 99q0 104 -54 158.5t-130 54.5q-85 0 -145.5 -61t-60.5 -154z" />
    <glyph glyph-name="afii10087" unicode="&#x445;" horiz-adv-x="479" 
d="M16 531h82l140 -197l141 197h82l-182 -252l205 -279h-83l-163 223l-160 -223h-81l201 279z" />
    <glyph glyph-name="afii10088" unicode="&#x446;" horiz-adv-x="652" 
d="M573 0h-497v531h69v-467h309v467h68v-467h115v-148h-64v84z" />
    <glyph glyph-name="afii10089" unicode="&#x447;" horiz-adv-x="458" 
d="M314 240h-120q-82 0 -121 42t-39 116v133h67v-96q0 -93 26 -115t87 -22h100v233h68v-531h-68v240z" />
    <glyph glyph-name="afii10090" unicode="&#x448;" horiz-adv-x="945" 
d="M870 0h-794v531h69v-467h293v467h69v-467h293v467h70v-531z" />
    <glyph glyph-name="afii10091" unicode="&#x449;" horiz-adv-x="1000" 
d="M920 0h-844v531h69v-467h293v467h69v-467h293v467h70v-467h115v-148h-65v84zM946 146z" />
    <glyph glyph-name="afii10092" unicode="&#x44a;" horiz-adv-x="519" 
d="M192 321h65q78 0 122 -12.5t75.5 -54t31.5 -95.5q0 -65 -46 -112t-139 -47h-176v469h-98v62h165v-210zM192 263v-205h79q141 0 140 101q0 35 -18.5 61t-49.5 34.5t-93 8.5h-58z" />
    <glyph glyph-name="afii10093" unicode="&#x44b;" horiz-adv-x="670" 
d="M144 321h65q78 0 122 -12.5t75.5 -54t31.5 -95.5q0 -65 -46 -112t-139 -47h-177v531h68v-210zM146 258v-200h79q139 0 139 97q0 28 -15 55t-43.5 37.5t-100.5 10.5h-59zM532 531h69v-531h-69v531z" />
    <glyph glyph-name="afii10094" unicode="&#x44c;" horiz-adv-x="471" 
d="M144 321h65q78 0 122 -12.5t75.5 -54t31.5 -95.5q0 -65 -46 -112t-139 -47h-177v531h68v-210zM146 258v-200h79q139 0 139 97q0 28 -15 55t-43.5 37.5t-100.5 10.5h-59z" />
    <glyph glyph-name="afii10095" unicode="&#x44d;" horiz-adv-x="642" 
d="M521 246q-10 -89 -73 -143t-152 -54q-117 0 -191 93l-54 -36q38 -61 106 -90.5t142 -29.5q128 0 210 81.5t82 193.5q0 119 -84 201.5t-213 82.5q-75 0 -142.5 -32.5t-100.5 -91.5l54 -34q70 93 192 93q85 0 146 -49t78 -127h-236v-58h236z" />
    <glyph glyph-name="afii10096" unicode="&#x44e;" horiz-adv-x="835" 
d="M146 0h-69v531h69v-223h88q18 106 95 171.5t179 65.5q118 0 197.5 -83t79.5 -198q0 -114 -79 -196t-197 -82q-105 0 -184 69.5t-91 185.5h-88v-241zM716 263q0 88 -61.5 151.5t-145.5 63.5t-146 -63.5t-62 -151.5t59 -150t149 -62q88 0 147.5 62t59.5 150z" />
    <glyph glyph-name="afii10097" unicode="&#x44f;" horiz-adv-x="444" 
d="M300 238h-49l-151 -238h-74l160 245q-60 7 -97 45t-37 94q0 70 43 108.5t112 38.5h162v-531h-69v238zM300 472h-45q-65 0 -87.5 -8t-35.5 -28.5t-13 -54.5q0 -33 17 -54t38 -26t81 -5h45v176z" />
    <glyph glyph-name="afii10071" unicode="&#x451;" horiz-adv-x="649" 
d="M523 176v-112q-25 -26 -51 -41l-44 -23q-30 -14 -101 -14q-130 0 -203 85.5t-73 192.5q0 101 62 180q79 101 210 101q136 0 217 -103q58 -73 59 -182h-478q2 -93 59 -152t141 -59q41 0 79 14t65 37.5t58 75.5zM523 319q-14 55 -39.5 87.5t-68.5 52.5t-91 20
q-78 0 -134 -50q-41 -37 -62 -110h395zM225.625 741q23 0 40 -16.5t17 -39.5t-17 -40t-40 -17t-40 16.5t-17 40.5q0 23 17 39.5t40 16.5zM424.625 741q23 0 40 -16.5t17 -39.5t-16.5 -40t-40.5 -17q-23 0 -39.5 16.5t-16.5 40.5q0 23 16.5 39.5t39.5 16.5z" />
    <glyph glyph-name="afii10099" unicode="&#x452;" horiz-adv-x="626" 
d="M161 736v-66h234v-59h-234v-175q83 109 199 109q69 0 117.5 -38.5t63.5 -90t15 -143.5v-273l1 -80q0 -128 -91 -128q-36 0 -77 17v61q26 -14 49 -14q24 0 36 15.5t13 35.5t1 93v253q0 92 -10 134t-43.5 68.5t-87.5 26.5q-47 0 -84 -21.5t-62 -57.5t-32.5 -74.5
t-7.5 -133.5v-195h-68v611h-76v59h76v66h68z" />
    <glyph glyph-name="afii10100" unicode="&#x453;" horiz-adv-x="360" 
d="M144 471v-471h-68v531h269v-60h-201zM255.668 780h105l-144 -150h-68z" />
    <glyph glyph-name="afii10101" unicode="&#x454;" horiz-adv-x="642" 
d="M121 246q10 -89 73 -143t152 -54q117 0 191 93l54 -36q-38 -61 -106 -90.5t-142 -29.5q-128 0 -210 81.5t-82 193.5q0 119 84 201.5t213 82.5q75 0 142.5 -32.5t100.5 -91.5l-54 -34q-70 93 -192 93q-85 0 -146 -49t-78 -127h236v-58h-236z" />
    <glyph glyph-name="afii10102" unicode="&#x455;" horiz-adv-x="388" 
d="M343 473l-44 -45q-55 53 -107 53q-33 0 -56.5 -22t-23.5 -51q0 -26 19 -50q20 -24 82 -56q76 -40 104 -76q27 -37 27 -83q0 -65 -46 -111t-115 -46q-46 0 -87.5 20t-69.5 56l43 48q52 -59 111 -59q41 0 70 26.5t29 62.5q0 29 -19 52q-19 22 -86 57q-72 37 -98 73t-26 82
q0 61 41.5 101t104.5 40q73 0 147 -72z" />
    <glyph glyph-name="afii10103" unicode="&#x456;" horiz-adv-x="200" 
d="M100 750q23 0 40 -16.5t17 -40.5q0 -23 -16.5 -39.5t-40.5 -16.5q-23 0 -39.5 16.5t-16.5 39.5t16.5 40t39.5 17zM66 531h69v-531h-69v531z" />
    <glyph glyph-name="afii10104" unicode="&#x457;" horiz-adv-x="200" 
d="M66 531h69v-531h-69v531zM0.527344 741q23 0 40 -16.5t17 -39.5t-17 -40t-40 -17t-40 16.5t-17 40.5q0 23 17 39.5t40 16.5zM199.527 741q23 0 40 -16.5t17 -39.5t-16.5 -40t-40.5 -17q-23 0 -39.5 16.5t-16.5 40.5q0 23 16.5 39.5t39.5 16.5z" />
    <glyph glyph-name="afii10105" unicode="&#x458;" horiz-adv-x="203" 
d="M102 750q23 0 39.5 -16.5t16.5 -40.5q0 -23 -16.5 -39.5t-39.5 -16.5t-40 16.5t-17 39.5t17 40t40 17zM68 531h69v-611q0 -67 -24 -97.5t-66 -30.5q-35 0 -78 17v61q27 -14 49 -14q28 0 42 23q8 15 8 61v591z" />
    <glyph glyph-name="afii10106" unicode="&#x459;" horiz-adv-x="791" 
d="M282 531l97 -210h152q78 0 122 -12.5t75.5 -54.5t31.5 -96q0 -51 -34.5 -98t-118.5 -60h-153l-181 404l-178 -404h-69l244 531h12zM407 258l90 -200h50q139 0 139 97q0 35 -18.5 60.5t-47.5 34t-94 8.5h-119zM523 0z" />
    <glyph glyph-name="afii10107" unicode="&#x45a;" horiz-adv-x="846" 
d="M522 320h62q77 0 121.5 -12.5t76 -54t31.5 -95.5q0 -65 -46 -111.5t-139 -46.5h-174v256h-308v-256h-70v531h70v-211h308v211h68v-211zM522 256v-198h78q139 0 139 96q0 27 -15 53.5t-44 37.5t-100 11h-58z" />
    <glyph glyph-name="afii10108" unicode="&#x45b;" horiz-adv-x="626" 
d="M93 611h-75v59h75v66h68v-66h235v-59h-235v-175q83 109 199 109q69 0 117.5 -38.5t64 -90t15.5 -143.5v-273h-69v253q0 92 -10 134t-43.5 68.5t-87.5 26.5q-47 0 -84 -21.5t-61.5 -57.5t-32.5 -74.5t-8 -133.5v-195h-68v611z" />
    <glyph glyph-name="afii10109" unicode="&#x45c;" horiz-adv-x="501" 
d="M76 531h69v-223l246 223h95l-269 -243l290 -288h-96l-244 246l-22 -19v-227h-69v531zM318.168 780h105l-144 -150h-68z" />
    <glyph glyph-name="afii10110" unicode="&#x45e;" horiz-adv-x="536" 
d="M19 531h72l183 -409l177 409h73l-317 -725h-72l102 234zM95.0156 745h64q17 -25 44.5 -38t66.5 -13t63 11t45 40h63q-11 -44 -55 -73.5t-116 -29.5t-117.5 29t-57.5 74z" />
    <glyph glyph-name="afii10193" unicode="&#x45f;" horiz-adv-x="599" 
d="M264 0h-187v531h69v-467h308v467h69v-531h-194v-84h-65v84z" />
    <glyph glyph-name="afii10050" unicode="&#x490;" horiz-adv-x="404" 
d="M158 0h-72v718h232v105h71v-176h-231v-647z" />
    <glyph glyph-name="afii10098" unicode="&#x491;" horiz-adv-x="355" 
d="M144 471v-471h-68v531h187v66h67v-126h-186z" />
    <glyph glyph-name="Wgrave" unicode="&#x1e80;" horiz-adv-x="959" 
d="M47 718h74l146 -517l213 517v0l211 -517l149 517h73l-212 -718v0l-221 543l-224 -543v0zM450.016 925.02l107 -150h-68l-144 150h105z" />
    <glyph glyph-name="wgrave" unicode="&#x1e81;" horiz-adv-x="831" 
d="M4 531h71l162 -385l177 385v0l176 -385l165 385h72l-237 -531v0l-176 380l-176 -380v0zM385.562 780l107 -150h-68l-144 150h105z" />
    <glyph glyph-name="Wacute" unicode="&#x1e82;" horiz-adv-x="959" 
d="M47 718h74l146 -517l213 517v0l211 -517l149 517h73l-212 -718v0l-221 543l-224 -543v0zM513.48 925.02h105l-144 -150h-68z" />
    <glyph glyph-name="wacute" unicode="&#x1e83;" horiz-adv-x="831" 
d="M4 531h71l162 -385l177 385v0l176 -385l165 385h72l-237 -531v0l-176 380l-176 -380v0zM449.027 780h105l-144 -150h-68z" />
    <glyph glyph-name="Wdieresis" unicode="&#x1e84;" horiz-adv-x="959" 
d="M47 718h74l146 -517l213 517v0l211 -517l149 517h73l-212 -718v0l-221 543l-224 -543v0zM380.898 886.508q23 0 40 -16.5t17 -39.5t-17 -40t-40 -17t-40 16.5t-17 40.5q0 23 17 39.5t40 16.5zM579.898 886.508q23 0 40 -16.5t17 -39.5t-16.5 -40t-40.5 -17
q-23 0 -39.5 16.5t-16.5 40.5q0 23 16.5 39.5t39.5 16.5z" />
    <glyph glyph-name="wdieresis" unicode="&#x1e85;" horiz-adv-x="831" 
d="M4 531h71l162 -385l177 385v0l176 -385l165 385h72l-237 -531v0l-176 380l-176 -380v0zM316.934 741q23 0 40 -16.5t17 -39.5t-17 -40t-40 -17t-40 16.5t-17 40.5q0 23 17 39.5t40 16.5zM515.934 741q23 0 40 -16.5t17 -39.5t-16.5 -40t-40.5 -17q-23 0 -39.5 16.5
t-16.5 40.5q0 23 16.5 39.5t39.5 16.5z" />
    <glyph glyph-name="Ygrave" unicode="&#x1ef2;" horiz-adv-x="591" 
d="M31 718h83l183 -296l181 296h83l-228 -375v-343h-70v343zM266.422 925.02l107 -150h-68l-144 150h105z" />
    <glyph glyph-name="ygrave" unicode="&#x1ef3;" horiz-adv-x="536" 
d="M19 531h72l183 -409l177 409h73l-317 -725h-72l102 234zM238.102 780l107 -150h-68l-144 150h105z" />
    <glyph glyph-name="endash" unicode="&#x2013;" horiz-adv-x="500" 
d="M-6 311h512v-63h-512v63z" />
    <glyph glyph-name="emdash" unicode="&#x2014;" horiz-adv-x="1000" 
d="M-6 311h1012v-63h-1012v63z" />
    <glyph glyph-name="afii00208" unicode="&#x2015;" horiz-adv-x="750" 
d="M-6 311h762v-63h-762v63z" />
    <glyph glyph-name="underscoredbl" unicode="&#x2017;" horiz-adv-x="500" 
d="M-6 -71h512v-51h-512v51zM-6 -158h512v-50h-512v50z" />
    <glyph glyph-name="quoteleft" unicode="&#x2018;" horiz-adv-x="351" 
d="M181 736l38 -21q-19 -37 -25 -58t-9 -54h43v-135h-88v84q0 63 8.5 99t32.5 85z" />
    <glyph glyph-name="quoteright" unicode="&#x2019;" horiz-adv-x="351" 
d="M169 468l-37 22q19 37 25 58t9 54h-43v134h88v-84q0 -63 -8.5 -99t-33.5 -85z" />
    <glyph glyph-name="quotesinglbase" unicode="&#x201a;" horiz-adv-x="354" 
d="M171 -134l-38 21q19 37 25.5 58.5t8.5 54.5h-42v134h88v-84q0 -63 -8.5 -99t-33.5 -85z" />
    <glyph glyph-name="quotereversed" unicode="&#x201b;" horiz-adv-x="351" 
d="M181 468q-26 51 -33.5 87.5t-7.5 96.5v84h88v-134h-43q4 -52 34 -112z" />
    <glyph glyph-name="quotedblleft" unicode="&#x201c;" horiz-adv-x="501" 
d="M141 736l38 -21q-19 -37 -25 -58t-9 -54h43v-135h-88v84q0 63 8.5 99t32.5 85zM358 736l38 -21q-19 -37 -25 -58t-9 -54h43v-135h-88v84q0 63 8 99t33 85z" />
    <glyph glyph-name="quotedblright" unicode="&#x201d;" horiz-adv-x="483" 
d="M352 468l-38 22q19 37 25.5 58t9.5 54h-43v134h88v-84q0 -63 -8.5 -99t-33.5 -85zM135 468l-38 22q19 37 25 58t9 54h-43v134h89v-84q0 -63 -8.5 -99t-33.5 -85z" />
    <glyph glyph-name="quotedblbase" unicode="&#x201e;" horiz-adv-x="501" 
d="M360 -134l-37 22q19 37 25 58t9 54h-43v134h88v-84q0 -63 -8.5 -99t-33.5 -85zM143 -134l-38 22q19 37 25.5 58t9.5 54h-43v134h88v-84q0 -63 -8.5 -99t-33.5 -85z" />
    <glyph glyph-name="dagger" unicode="&#x2020;" horiz-adv-x="553" 
d="M239 736h73l-12 -223l176 10v-72l-176 12l13 -616h-74l14 616l-176 -12v72l176 -10z" />
    <glyph glyph-name="daggerdbl" unicode="&#x2021;" horiz-adv-x="553" 
d="M240 736h72l-11 -173l175 12v-73l-175 14l11 -224l-11 -221l175 10v-73l-175 14l11 -175h-72l12 175l-174 -14v73l174 -10l-12 221l12 224l-174 -14v73l174 -12z" />
    <glyph glyph-name="bullet" unicode="&#x2022;" horiz-adv-x="605" 
d="M303 514q62 0 106 -44t44 -106t-44 -106t-106 -44t-106 44t-44 106t44 106t106 44z" />
    <glyph glyph-name="ellipsis" unicode="&#x2026;" horiz-adv-x="1000" 
d="M500 107q25 0 42.5 -17.5t17.5 -42.5t-17.5 -43t-42.5 -18t-42.5 18t-17.5 43t17.5 42.5t42.5 17.5zM167 107q25 0 42.5 -17.5t17.5 -42.5t-18 -43t-42 -18q-25 0 -43 18t-18 43t18 42.5t43 17.5zM833 107q24 0 42.5 -17.5t18.5 -42.5t-18 -43t-43 -18t-42.5 18t-17.5 43
t17.5 42.5t42.5 17.5z" />
    <glyph glyph-name="perthousand" unicode="&#x2030;" horiz-adv-x="1173" 
d="M676 750l-524 -800h-64l476 729q-84 -21 -206 -21l-26 1q30 -42 30 -89q0 -67 -46.5 -120t-124.5 -53q-71 0 -119 49.5t-48 119.5q0 47 22 85t62.5 61.5t82.5 23.5q18 0 60 -8q63 -14 138 -14q55 0 103.5 7t125.5 29h58zM193 674q-44 0 -75.5 -31.5t-31.5 -75.5t31 -75.5
t76 -31.5q44 0 75.5 31t31.5 76q0 44 -31.5 75.5t-75.5 31.5zM585 317q70 0 119.5 -49.5t49.5 -119.5t-49.5 -119.5t-119.5 -49.5t-119.5 49.5t-49.5 119.5t49.5 119.5t119.5 49.5zM585 255q-44 0 -75.5 -31.5t-31.5 -75.5t31.5 -75.5t75.5 -31.5t75.5 31.5t31.5 75.5
t-31.5 75.5t-75.5 31.5zM975 317q70 0 119 -49.5t49 -119.5t-49.5 -119.5t-118.5 -49.5q-70 0 -119.5 49.5t-49.5 119.5t49.5 119.5t119.5 49.5zM975 255q-44 0 -76 -31.5t-32 -75.5t31.5 -75.5t76.5 -31.5q44 0 75.5 31.5t31.5 75.5t-31.5 75.5t-75.5 31.5z" />
    <glyph glyph-name="minute" unicode="&#x2032;" horiz-adv-x="197" 
d="M113 510h-50l21 226h72z" />
    <glyph glyph-name="second" unicode="&#x2033;" horiz-adv-x="309" 
d="M264 510h-51l21 226h73zM74 510h-51l21 226h73z" />
    <glyph glyph-name="guilsinglleft" unicode="&#x2039;" horiz-adv-x="250" 
d="M217 531l-109 -266l109 -265h-72l-108 265l108 266h72z" />
    <glyph glyph-name="guilsinglright" unicode="&#x203a;" horiz-adv-x="250" 
d="M34 0l109 266l-109 265h72l109 -265l-109 -266h-72z" />
    <glyph glyph-name="exclamdbl" unicode="&#x203c;" horiz-adv-x="530" 
d="M182 736v-556h-71v556h71zM417 736v-556h-70v556h70zM147 107q24 0 42.5 -17t18.5 -43q0 -25 -18 -43t-43 -18q-24 0 -42 18t-18 43q0 26 18 43t42 17zM383 107q24 0 42 -17.5t18 -42.5t-17.5 -43t-42.5 -18t-42.5 18t-17.5 43t17.5 42.5t42.5 17.5z" />
    <glyph glyph-name="radicalex" unicode="&#x203e;" horiz-adv-x="554" 
d="M-21 913h596v-37h-596v37zM187 521z" />
    <glyph glyph-name="fraction" unicode="&#x2044;" horiz-adv-x="166" 
d="M-169 -18l450 754h55l-452 -754h-53z" />
    <glyph glyph-name="fraction" unicode="&#x2215;" horiz-adv-x="166" 
d="M-169 -18l450 754h55l-452 -754h-53z" />
    <glyph glyph-name="nsuperior" unicode="&#x207f;" horiz-adv-x="355" 
d="M37 613h56v-47q45 56 109 56q40 0 68.5 -23.5t38.5 -56t10 -90.5v-171h-56v159q0 52 -5 76t-22.5 39t-45.5 15q-32 0 -58 -23.5t-32.5 -52t-6.5 -90.5v-123h-56v332z" />
    <glyph glyph-name="franc" unicode="&#x20a3;" horiz-adv-x="484" 
d="M159 203h137v-68h-137v-135h-72v135h-87v68h87v515h360v-71h-288v-224h288v-71h-288v-149z" />
    <glyph glyph-name="afii08941" unicode="&#x20a4;" horiz-adv-x="554" 
d="M227 471h175v-63h-155l15 -54h140v-63h-127q5 -33 5 -67q0 -61 -10 -96q93 -74 133 -73q48 0 53 113h69q0 -81 -29.5 -133.5t-82.5 -52.5q-74 0 -167 78q-41 -78 -118 -78q-40 0 -70 22t-30 70t32.5 80.5t75.5 32.5q35 0 71 -19q3 31 3 53q0 37 -7 70h-155v63h140l-15 54
h-125v63h108q-18 62 -18 101q0 71 52 117.5t123 46.5q74 0 119.5 -50t50.5 -137h-66q-6 122 -101 122q-53 0 -81.5 -29t-28.5 -70q0 -39 21 -101zM188 101q-32 20 -56 20q-17 0 -27 -11t-10 -27t9.5 -26t23.5 -10q38 0 60 54z" />
    <glyph glyph-name="peseta" unicode="&#x20a7;" horiz-adv-x="1083" 
d="M536 531h36v198h69v-198h186q30 14 64 14q75 0 148 -72l-44 -45q-53 53 -107 53q-30 0 -55.5 -20.5t-25.5 -52.5q0 -25 18.5 -49t83.5 -57q69 -36 99.5 -71t30.5 -88q0 -62 -44 -109.5t-117 -47.5q-49 0 -90 21.5t-66 54.5l43 48q52 -59 110 -59q38 0 68.5 25t30.5 64
q0 31 -20.5 53.5t-84.5 55.5q-65 34 -94 68.5t-29 86.5q0 37 16 69h-121v-473h-69v473h-44q-16 -57 -52.5 -88t-90.5 -41t-175 -10h-51v-334h-72v718h143q118 0 171 -12t93.5 -58.5t41.5 -116.5zM159 648v-244q107 -1 119 -1q82 0 116.5 16t50.5 46.5t16 61.5q0 35 -19.5 66
t-52.5 43t-103 12h-127z" />
    <glyph glyph-name="Euro" unicode="&#x20ac;" horiz-adv-x="554" 
d="M96 471q38 123 139 194t233 71q32 0 78 -7l-18 -69q-28 6 -59 6q-97 0 -177 -52t-116 -143h312l-18 -67h-311q-3 -22 -3 -47q0 -15 2 -38h289l-18 -67h-256q34 -95 115 -149t185 -54q32 0 68 8v-68q-31 -6 -73 -6q-137 0 -237 71t-136 198h-72l17 67h43q-2 27 -2 44
q0 16 2 41h-60l18 67h55z" />
    <glyph glyph-name="afii61248" unicode="&#x2105;" horiz-adv-x="870" 
d="M337 652l-46 -26q-35 58 -100 58q-51 0 -81.5 -37.5q-30.5 -38.5 -30.5 -84.5q0 -51 31.5 -87.5t80.5 -36.5q62 0 101 58l45 -27q-49 -81 -147 -81q-81 0 -124.5 54t-43.5 117q0 74 48.5 125.5t122.5 51.5q97 0 144 -84zM182 -18l451 754h55l-452 -754h-54zM690 341
q68 0 113 -52.5t45 -122.5t-44 -122t-114 -52q-67 0 -112 51t-45 123q0 71 44.5 123t112.5 52zM690 287q-41 0 -70.5 -36t-29.5 -86t29 -85.5t71 -35.5q43 0 72 35t29 86q0 50 -30 86t-71 36z" />
    <glyph glyph-name="afii61289" unicode="&#x2113;" horiz-adv-x="358" 
d="M20 206l86 115v222q0 108 29.5 146.5t83.5 38.5q52 0 80.5 -34t28.5 -81t-29.5 -112t-109.5 -176v-203q0 -41 6.5 -52.5t20.5 -11.5q25 0 97 52v-79q-51 -42 -109 -43q-47 0 -72.5 29t-25.5 89v110l-38 -48zM189 439q44 77 57.5 109.5t13.5 62.5q0 29 -11 43.5t-26 14.5
q-21 0 -27.5 -24.5t-6.5 -94.5v-111z" />
    <glyph glyph-name="afii61352" unicode="&#x2116;" horiz-adv-x="1098" 
d="M88 0v718h16l477 -550v550h71v-718h-16l-474 543v-543h-74zM1071 309q0 -69 -49.5 -119t-118.5 -50q-70 0 -119.5 49.5t-49.5 119.5t49.5 119.5t119.5 49.5q69 0 118.5 -49.5t49.5 -119.5zM1010 309q0 44 -31.5 76t-75.5 32t-76 -31.5t-32 -76.5q0 -44 31.5 -75.5
t76.5 -31.5q44 0 75.5 31.5t31.5 75.5zM734 50h337v-50h-337v50z" />
    <glyph glyph-name="trademark" unicode="&#x2122;" horiz-adv-x="1000" 
d="M960 739v-421h-73v347l-157 -347h-48l-152 347v-347h-73v421h119l130 -292l138 292h116zM376 739v-67h-149v-354h-73v354h-148v67h370z" />
    <glyph glyph-name="Ohm" unicode="&#x2126;" horiz-adv-x="768" 
d="M242 78q-62 39 -96 82t-53.5 102t-19.5 130q0 103 41.5 181t113 119.5t167.5 41.5q158 0 245 -115q71 -93 70 -228q0 -67 -19 -125t-54 -103.5t-95 -84.5l178 3v-81h-281v86q44 22 71 47q45 43 72 107t27 139q0 83 -29.5 149t-76 96t-110.5 30q-95 0 -155.5 -71.5
t-60.5 -201.5q0 -107 45 -182.5t122 -110.5v-88h-282v82z" />
    <glyph glyph-name="estimated" unicode="&#x212e;" horiz-adv-x="600" 
d="M157 259v-181q59 -59 145 -59q124 0 193 120l35 -21q-58 -83 -113 -109t-115 -26q-113 0 -185.5 77.5t-72.5 198.5q0 123 73 199.5t185 76.5q104 0 178.5 -69.5t80.5 -206.5h-404zM448 295v145q-61 59 -147 60q-85 0 -144 -60v-145h291z" />
    <glyph glyph-name="oneeighth" unicode="&#x215b;" horiz-adv-x="831" 
d="M139 -18l450 754h55l-452 -754h-53zM110 727h91v-369h-54v321h-73zM737 202q71 -33 71 -95q0 -46 -38 -81t-106 -35q-70 0 -106.5 35.5t-36.5 77.5q0 63 74 98q-53 27 -53 78q0 40 36.5 69t88.5 29q53 0 87.5 -30t34.5 -70q0 -49 -52 -76zM734 280q0 22 -18.5 36
t-50.5 14q-28 0 -48.5 -14t-20.5 -37t21.5 -39.5t48.5 -16.5q28 0 48 16.5t20 40.5zM754 107q0 30 -25 50t-62 20q-36 0 -63.5 -20t-27.5 -53t26 -49t63 -16q38 0 63.5 19t25.5 49z" />
    <glyph glyph-name="threeeighths" unicode="&#x215c;" horiz-adv-x="831" 
d="M84 631h-54q26 105 132 105q53 0 90.5 -28.5t37.5 -70.5t-44 -71q67 -32 67 -94q0 -50 -41.5 -86.5t-108.5 -36.5q-125 0 -147 118h53q17 -69 95 -70q44 0 69.5 21.5t25.5 49.5q0 26 -25.5 48t-98.5 23v46q43 0 71 14t28 39q0 20 -20.5 35t-50.5 15q-56 0 -79 -57z
M163 -18l451 754h54l-451 -754h-54zM737 202q71 -33 71 -95q0 -46 -38 -81t-106 -35q-67 0 -105 34.5t-38 78.5q0 63 73 98q-53 27 -52 78q0 40 36.5 69t88.5 29q53 0 87 -30t34 -70q0 -49 -51 -76zM734 280q0 22 -18.5 36t-50.5 14q-28 0 -48.5 -14t-20.5 -37t21.5 -39.5
t48.5 -16.5q28 0 48 16.5t20 40.5zM754 107q0 30 -25 50t-62 20q-36 0 -64 -20t-28 -53t26.5 -49t63.5 -16q39 0 64 19t25 49z" />
    <glyph glyph-name="fiveeighths" unicode="&#x215d;" horiz-adv-x="831" 
d="M163 -18l451 754h54l-451 -754h-54zM299 727v-47h-153l-18 -84q21 5 43 5q63 0 101 -35.5t38 -86.5q0 -53 -41.5 -91.5t-111.5 -38.5q-60 0 -96 31t-40 72h55q14 -55 83 -55q40 0 68 24t28 60q0 32 -25.5 52t-68.5 20q-39 0 -98 -15l41 189h195zM737 202q71 -33 71 -95
q0 -46 -38 -81t-106 -35q-71 0 -107 35.5t-36 77.5q0 63 73 98q-53 27 -52 78q0 40 36.5 69t88.5 29q51 0 86 -29.5t35 -70.5q0 -49 -51 -76zM734 280q0 22 -18.5 36t-50.5 14q-28 0 -48.5 -14t-20.5 -37t21.5 -39.5t48.5 -16.5q28 0 48 16.5t20 40.5zM754 107q0 30 -25 50
t-62 20q-36 0 -64 -20t-28 -53t26.5 -49t63.5 -16q39 0 64 19t25 49z" />
    <glyph glyph-name="seveneighths" unicode="&#x215e;" horiz-adv-x="831" 
d="M126 -18l451 754h54l-451 -754h-54zM40 727h282l-232 -378l-44 20l189 311h-195v47zM737 202q71 -33 71 -95q0 -46 -38 -81t-106 -35q-70 0 -106.5 35.5t-36.5 77.5q0 63 74 98q-53 27 -53 78q0 40 36.5 69t88.5 29q51 0 86.5 -29.5t35.5 -70.5q0 -49 -52 -76zM734 280
q0 22 -18.5 36t-50.5 14q-28 0 -48.5 -14t-20.5 -37t21.5 -39.5t48.5 -16.5q28 0 48 16.5t20 40.5zM754 107q0 30 -25.5 50t-61.5 20t-64 -20t-28 -53t26.5 -49t63.5 -16q38 0 63.5 19t25.5 49z" />
    <glyph glyph-name="arrowleft" unicode="&#x2190;" horiz-adv-x="1000" 
d="M240 428h37q-40 -83 -95 -151h779v-49h-779q50 -50 97 -151h-38q-109 124 -202 166v22q86 35 201 163z" />
    <glyph glyph-name="arrowup" unicode="&#x2191;" horiz-adv-x="500" 
d="M75 513q128 115 162 201h23q42 -94 166 -202v-38q-101 47 -151 96v-779h-49v779q-68 -56 -151 -95v38z" />
    <glyph glyph-name="arrowright" unicode="&#x2192;" horiz-adv-x="1000" 
d="M759 428q116 -128 202 -163v-22q-93 -43 -202 -166h-38q46 101 96 151h-778v49h778q-56 68 -95 151h37z" />
    <glyph glyph-name="arrowdown" unicode="&#x2193;" horiz-adv-x="500" 
d="M75 -8v37q83 -40 151 -95v780h49v-780q50 50 151 96v-37q-124 -109 -166 -202h-23q-34 85 -162 201z" />
    <glyph glyph-name="arrowboth" unicode="&#x2194;" horiz-adv-x="1000" 
d="M961 264v-22q-88 -39 -198 -165h-39q34 84 94 152h-637q61 -68 95 -152h-39q-109 126 -198 165v22q89 39 198 165h39q-34 -84 -95 -152h637q-61 68 -94 152h39q110 -126 198 -165z" />
    <glyph glyph-name="arrowupdn" unicode="&#x2195;" horiz-adv-x="500" 
d="M239 714h22q39 -89 164 -198v-39q-83 34 -152 95v-638q68 62 152 95v-39q-126 -110 -164 -198h-22q-39 89 -165 198v39q83 -33 152 -95v638q-68 -62 -152 -95v39q126 109 165 198z" />
    <glyph glyph-name="arrowupdnbse" unicode="&#x21a8;" horiz-adv-x="500" 
d="M239 714h22q39 -89 164 -198v-39q-83 34 -152 95v-638q68 62 152 95v-39q-126 -110 -164 -198h-22q-39 89 -165 198v39q83 -33 152 -95v638q-68 -62 -152 -95v39q126 109 165 198zM75 -255h350v-48h-350v48z" />
    <glyph glyph-name="partialdiff" unicode="&#x2202;" horiz-adv-x="494" 
d="M208 556l-66 29q33 73 80 108t96 35q43 0 79 -27.5t57 -88.5t21 -160q0 -144 -42.5 -251t-113 -160t-141.5 -53q-67 0 -109 45t-42 124q0 115 80 195q97 96 312 99q-2 93 -14.5 135t-35 61t-50.5 19q-70 0 -111 -110zM417 389q-121 -7 -175 -33.5t-90.5 -86t-36.5 -121.5
q0 -41 25 -67t58 -26q42 0 90.5 35.5t82.5 109.5t46 189z" />
    <glyph glyph-name="Delta" unicode="&#x2206;" horiz-adv-x="611" 
d="M599 0h-586l306 677zM483 40l-194 472l-215 -472h409z" />
    <glyph glyph-name="product" unicode="&#x220f;" horiz-adv-x="822" 
d="M79 750h665v-958h-93v873h-478v-873h-94v958z" />
    <glyph glyph-name="summation" unicode="&#x2211;" 
d="M68 750h604v-80h-483l297 -389l-316 -410h507v-79h-617v91l302 395l-294 386v86z" />
    <glyph glyph-name="minus" unicode="&#x2212;" horiz-adv-x="605" 
d="M56 393h494v-67h-494v67z" />
    <glyph glyph-name="periodcentered" unicode="&#x2219;" horiz-adv-x="276" 
d="M139 419q25 0 42.5 -17.5t17.5 -42.5t-17.5 -43t-42.5 -18t-42.5 18t-17.5 43t17.5 42.5t42.5 17.5z" />
    <glyph glyph-name="radical" unicode="&#x221a;" horiz-adv-x="548" 
d="M511 913h36l-152 -951l-242 498l-97 -44l-16 31l147 74l197 -402z" />
    <glyph glyph-name="infinity" unicode="&#x221e;" 
d="M335 396q57 71 91 92.5t72 21.5q54 0 97.5 -38t43.5 -119q0 -82 -41 -123t-100 -41q-42 0 -76 24t-87 90q-66 -83 -141 -84q-50 0 -85 38t-35 93t35.5 92.5t84.5 37.5q75 -1 141 -84zM369 350q41 -62 74 -88q24 -19 54 -18q38 0 62.5 27.5t24.5 76.5q0 51 -25 79t-64 28
q-26 0 -50.5 -18t-75.5 -87zM302 350q-38 47 -61.5 61.5t-46.5 14.5q-29 0 -47.5 -20t-18.5 -55q0 -34 19.5 -55t47.5 -21q50 0 107 75z" />
    <glyph glyph-name="orthogonal" unicode="&#x221f;" horiz-adv-x="979" 
d="M177 625h49v-576h576v-49h-625v625z" />
    <glyph glyph-name="intersection" unicode="&#x2229;" horiz-adv-x="588" 
d="M117 0h-54v303l1 116q0 57 9 102.5t29 82.5t51.5 66t68 44t72.5 15q58 0 110.5 -33.5t80.5 -85t34.5 -109.5t6.5 -198v-303h-53v307q0 119 -5 170t-25.5 92.5t-62.5 68.5t-86 27t-85 -27t-61.5 -67t-25.5 -92.5t-5 -171.5v-307z" />
    <glyph glyph-name="integral" unicode="&#x222b;" horiz-adv-x="273" 
d="M98 463q0 102 8 244q5 90 26 142q12 29 35 45t45 16q24 0 42.5 -16.5t18.5 -36.5q0 -22 -12.5 -36t-31.5 -14q-17 0 -38 17q-11 10 -19 10q-9 0 -14.5 -7t-5.5 -24q0 -21 5 -71q18 -200 18 -325q0 -33 -8 -277q-4 -149 -41 -200q-27 -38 -68 -37q-25 0 -41.5 16.5
t-16.5 42.5q0 21 12.5 34.5t31.5 13.5q20 0 34 -16q14 -15 24 -15q8 0 13.5 7t5.5 23q0 21 -5 58q-18 155 -18 406z" />
    <glyph glyph-name="approxequal" unicode="&#x2248;" horiz-adv-x="548" 
d="M522 500v-80q-55 -31 -78.5 -38.5t-44.5 -7.5q-46 0 -129 37q-64 29 -82 35t-34 6q-21 0 -47 -9.5t-81 -42.5v79q54 31 78 38.5t46 7.5q47 0 131 -39q58 -27 79 -34t38 -7q21 0 41.5 8.5t82.5 46.5zM522 318v-79q-55 -31 -78.5 -39t-44.5 -8q-46 0 -129 37q-64 29 -82 35
t-34 6q-21 0 -47 -9.5t-81 -41.5v78q54 30 78 38.5t46 8.5q47 0 131 -40q58 -27 79 -33.5t38 -6.5q21 0 41.5 8t82.5 46z" />
    <glyph glyph-name="notequal" unicode="&#x2260;" horiz-adv-x="548" 
d="M362 500h159v-67h-185l-57 -148h242v-67h-268l-91 -236h-67l91 236h-159v67h184l57 148h-241v67h266l91 236h70z" />
    <glyph glyph-name="equivalence" unicode="&#x2261;" horiz-adv-x="605" 
d="M550 588v-67h-494v67h494zM56 393h494v-67h-494v67zM550 197v-67h-494v67h494z" />
    <glyph glyph-name="lessequal" unicode="&#x2264;" horiz-adv-x="548" 
d="M527 235v-71l-505 229v63l505 230v-72l-410 -190zM527 113v-67h-505v67h505z" />
    <glyph glyph-name="greaterequal" unicode="&#x2265;" horiz-adv-x="548" 
d="M22 235l410 189l-410 190v72l505 -230v-63l-505 -229v71zM527 113v-67h-505v67h505z" />
    <glyph glyph-name="house" unicode="&#x2302;" horiz-adv-x="600" 
d="M75 0v310l225 253l225 -253v-310h-450zM114 40h372v253l-186 208l-186 -208v-253z" />
    <glyph glyph-name="revlogicalnot" unicode="&#x2310;" horiz-adv-x="605" 
d="M56 500h494v-67h-427v-215h-67v282z" />
    <glyph glyph-name="integraltp" unicode="&#x2320;" horiz-adv-x="600" 
d="M335 -251h-70v884q0 101 42 158t100 57q36 0 52 -17t16 -36q0 -20 -13 -32.5t-30 -12.5t-27.5 6.5t-20.5 23.5q-12 18 -23 18q-14 0 -20 -12t-6 -75v-962z" />
    <glyph glyph-name="integralbt" unicode="&#x2321;" horiz-adv-x="600" 
d="M265 848h70v-884q0 -101 -42 -158t-100 -57q-29 0 -48.5 13.5t-19.5 39.5q0 20 13 32.5t30 12.5t27.5 -7t20.5 -23q12 -18 23 -18q14 0 20 11.5t6 75.5v962z" />
    <glyph glyph-name="SF100000" unicode="&#x2500;" 
d="M722 261h-731v85h731v-85z" />
    <glyph glyph-name="SF110000" unicode="&#x2502;" 
d="M314 -303v1213h85v-1213h-85z" />
    <glyph glyph-name="SF010000" unicode="&#x250c;" 
d="M722 346v-85h-323v-564h-85v649h408z" />
    <glyph glyph-name="SF030000" unicode="&#x2510;" 
d="M313 261h-322v85h408v-649h-86v564z" />
    <glyph glyph-name="SF020000" unicode="&#x2514;" 
d="M314 261v649h85v-564h323v-85h-408z" />
    <glyph glyph-name="SF040000" unicode="&#x2518;" 
d="M399 261h-408v85h322v564h86v-649z" />
    <glyph glyph-name="SF080000" unicode="&#x251c;" 
d="M314 -303v1213h85v-564h323v-85h-323v-564h-85z" />
    <glyph glyph-name="SF090000" unicode="&#x2524;" 
d="M313 -303v564h-322v85h322v564h86v-1213h-86z" />
    <glyph glyph-name="SF060000" unicode="&#x252c;" 
d="M313 261h-322v85h731v-85h-323v-564h-86v564z" />
    <glyph glyph-name="SF070000" unicode="&#x2534;" 
d="M722 261h-731v85h322v564h86v-564h323v-85z" />
    <glyph glyph-name="SF050000" unicode="&#x253c;" 
d="M313 261h-322v85h322v564h86v-564h323v-85h-323v-564h-86v564z" />
    <glyph glyph-name="SF430000" unicode="&#x2550;" 
d="M722 354h-731v85h731v-85zM722 168h-731v85h731v-85z" />
    <glyph glyph-name="SF240000" unicode="&#x2551;" 
d="M407 -303v1213h85v-1213h-85zM221 -303v1213h86v-1213h-86z" />
    <glyph glyph-name="SF510000" unicode="&#x2552;" 
d="M314 -303v742h408v-85h-323v-101h323v-85h-323v-471h-85z" />
    <glyph glyph-name="SF520000" unicode="&#x2553;" 
d="M221 -303v649h501v-85h-230v-564h-85v556h-100v-556h-86z" />
    <glyph glyph-name="SF390000" unicode="&#x2554;" 
d="M307 -303h-86v742h501v-85h-415v-657zM492 168v-471h-85v556h315v-85h-230z" />
    <glyph glyph-name="SF220000" unicode="&#x2555;" 
d="M313 168h-322v85h322v101h-322v85h408v-742h-86v471z" />
    <glyph glyph-name="SF210000" unicode="&#x2556;" 
d="M221 -303v564h-230v85h501v-649h-86v564h-100v-564h-85z" />
    <glyph glyph-name="SF250000" unicode="&#x2557;" 
d="M406 -303v657h-415v85h501v-742h-86zM221 168h-230v85h315v-556h-85v471z" />
    <glyph glyph-name="SF500000" unicode="&#x2558;" 
d="M314 168v742h85v-471h323v-85h-323v-101h323v-85h-408z" />
    <glyph glyph-name="SF490000" unicode="&#x2559;" 
d="M722 261h-501v649h86v-564h100v564h85v-564h230v-85z" />
    <glyph glyph-name="SF380000" unicode="&#x255a;" 
d="M307 910v-657h415v-85h-501v742h86zM492 439h230v-85h-315v556h85v-471z" />
    <glyph glyph-name="SF280000" unicode="&#x255b;" 
d="M399 168h-408v85h322v101h-322v85h322v471h86v-742z" />
    <glyph glyph-name="SF270000" unicode="&#x255c;" 
d="M492 261h-501v85h230v564h85v-564h100v564h86v-649z" />
    <glyph glyph-name="SF260000" unicode="&#x255d;" 
d="M406 910h86v-742h-501v85h415v657zM221 439v471h85v-556h-315v85h230z" />
    <glyph glyph-name="SF360000" unicode="&#x255e;" 
d="M314 -303v1213h85v-471h323v-85h-323v-101h323v-85h-323v-471h-85z" />
    <glyph glyph-name="SF370000" unicode="&#x255f;" 
d="M407 -303v1213h85v-564h230v-85h-230v-564h-85zM221 -303v1213h86v-1213h-86z" />
    <glyph glyph-name="SF420000" unicode="&#x2560;" 
d="M221 -303v1213h86v-1213h-86zM407 354v556h85v-471h230v-85h-315zM407 -303v556h315v-85h-230v-471h-85z" />
    <glyph glyph-name="SF190000" unicode="&#x2561;" 
d="M313 168h-322v85h322v101h-322v85h322v471h86v-1213h-86v471z" />
    <glyph glyph-name="SF200000" unicode="&#x2562;" 
d="M221 -303v564h-230v85h230v564h85v-1213h-85zM406 -303v1213h86v-1213h-86z" />
    <glyph glyph-name="SF230000" unicode="&#x2563;" 
d="M406 -303v1213h86v-1213h-86zM306 910v-556h-315v85h230v471h85zM221 168h-230v85h315v-556h-85v471z" />
    <glyph glyph-name="SF470000" unicode="&#x2564;" 
d="M722 354h-731v85h731v-85zM313 168h-322v85h731v-85h-323v-471h-86v471z" />
    <glyph glyph-name="SF480000" unicode="&#x2565;" 
d="M221 -303v564h-230v85h731v-85h-230v-564h-86v556h-100v-556h-85z" />
    <glyph glyph-name="SF410000" unicode="&#x2566;" 
d="M722 354h-731v85h731v-85zM221 168h-230v85h315v-556h-85v471zM406 -303v556h316v-85h-230v-471h-86z" />
    <glyph glyph-name="SF450000" unicode="&#x2567;" 
d="M722 354h-731v85h322v471h86v-471h323v-85zM722 168h-731v85h731v-85z" />
    <glyph glyph-name="SF460000" unicode="&#x2568;" 
d="M722 261h-731v85h230v564h85v-564h100v564h86v-564h230v-85z" />
    <glyph glyph-name="SF400000" unicode="&#x2569;" 
d="M306 354h-315v85h230v471h85v-556zM722 354h-316v556h86v-471h230v-85zM722 168h-731v85h731v-85z" />
    <glyph glyph-name="SF540000" unicode="&#x256a;" 
d="M313 168h-322v85h322v101h-322v85h322v471h86v-471h323v-85h-323v-101h323v-85h-323v-471h-86v471z" />
    <glyph glyph-name="SF530000" unicode="&#x256b;" 
d="M221 -303v564h-230v85h230v564h85v-564h100v564h86v-564h230v-85h-230v-564h-86v564h-100v-564h-85z" />
    <glyph glyph-name="SF440000" unicode="&#x256c;" 
d="M492 439h230v-85h-315v556h85v-471zM221 439v471h85v-556h-315v85h230zM221 168h-230v85h315v-556h-85v471zM492 168v-471h-85v556h315v-85h-230z" />
    <glyph glyph-name="upblock" unicode="&#x2580;" 
d="M722 303h-731v607h731v-607z" />
    <glyph glyph-name="dnblock" unicode="&#x2584;" 
d="M722 -303h-731v606h731v-606z" />
    <glyph glyph-name="block" unicode="&#x2588;" 
d="M-9 -303v1213h731v-1213h-731z" />
    <glyph glyph-name="lfblock" unicode="&#x258c;" 
d="M-9 -303v1213h365v-1213h-365z" />
    <glyph glyph-name="rtblock" unicode="&#x2590;" 
d="M356 -303v1213h366v-1213h-366z" />
    <glyph glyph-name="ltshade" unicode="&#x2591;" 
d="M52 910h61v-61h-61v61zM295 910h61v-61h-61v61zM539 910h61v-61h-61v61zM174 789h61v-61h-61v61zM417 789h61v-61h-61v61zM661 789h61v-61h-61v61zM539 667h61v-61h-61v61zM295 667h61v-61h-61v61zM52 667h61v-61h-61v61zM661 545h61v-61h-61v61zM417 545h61v-61h-61v61z
M174 545h61v-61h-61v61zM52 423h61v-61h-61v61zM295 423h61v-61h-61v61zM539 423h61v-61h-61v61zM661 302h61v-61h-61v61zM417 302h61v-61h-61v61zM174 302h61v-61h-61v61zM52 180h61v-61h-61v61zM295 180h61v-61h-61v61zM539 180h61v-61h-61v61zM174 58h61v-60h-61v60z
M417 58h61v-60h-61v60zM661 58h61v-60h-61v60zM539 -63h61v-62h-61v62zM295 -63h61v-62h-61v62zM52 -63h61v-62h-61v62zM174 -185h61v-61h-61v61zM417 -185h61v-61h-61v61zM661 -185h61v-61h-61v61z" />
    <glyph glyph-name="shade" unicode="&#x2592;" 
d="M52 910h61v-61h-61v61zM174 910h60v-61h-60v61zM295 910h61v-61h-61v61zM417 910h61v-61h-61v61zM539 910h61v-61h-61v61zM661 910h60v-61h-60v61zM-9 789h61v-61h-61v61zM113 789h61v-61h-61v61zM234 789h61v-61h-61v61zM356 789h61v-61h-61v61zM478 789h61v-61h-61v61z
M600 789h61v-61h-61v61zM52 667h61v-61h-61v61zM174 667h60v-61h-60v61zM295 667h61v-61h-61v61zM417 667h61v-61h-61v61zM539 667h61v-61h-61v61zM661 667h60v-61h-60v61zM-9 545h61v-61h-61v61zM113 545h61v-61h-61v61zM234 545h61v-61h-61v61zM356 545h61v-61h-61v61z
M478 545h61v-61h-61v61zM600 545h61v-61h-61v61zM52 423h61v-61h-61v61zM174 423h60v-61h-60v61zM295 423h61v-61h-61v61zM417 423h61v-61h-61v61zM539 423h61v-61h-61v61zM661 423h60v-61h-60v61zM-9 302h61v-61h-61v61zM234 302h61v-61h-61v61zM356 302h61v-61h-61v61z
M478 302h61v-61h-61v61zM600 302h61v-61h-61v61zM113 302h61v-61h-61v61zM661 180h60v-61h-60v61zM539 180h61v-61h-61v61zM417 180h61v-61h-61v61zM295 180h61v-61h-61v61zM174 180h60v-61h-60v61zM52 180h61v-61h-61v61zM-9 58h61v-60h-61v60zM113 58h61v-60h-61v60z
M234 58h61v-60h-61v60zM356 58h61v-60h-61v60zM478 58h61v-60h-61v60zM600 58h61v-60h-61v60zM661 -63h60v-62h-60v62zM539 -63h61v-62h-61v62zM417 -63h61v-62h-61v62zM295 -63h61v-62h-61v62zM174 -63h60v-62h-60v62zM52 -63h61v-62h-61v62zM-9 -185h61v-61h-61v61z
M113 -185h61v-61h-61v61zM234 -185h61v-61h-61v61zM356 -185h61v-61h-61v61zM478 -185h61v-61h-61v61zM600 -185h61v-61h-61v61z" />
    <glyph glyph-name="dkshade" unicode="&#x2593;" horiz-adv-x="729" 
d="M730 728v-183h-61v-61h61v-182h-61v-61h61v-183h-61v-60h61v-183h-61v-61h61v-61h-730v182h61v62h-61v182h61v61h-61v182h61v61h-61v183h61v61h-61v182h61v61h61v-61h61v61h60v-61h61v61h61v-61h61v61h61v-61h61v61h60v-61h61v61h61v-121h-61v-61h61zM61 789v-61h61v61
h-61zM183 789v-61h60v61h-60zM304 789v-61h61v61h-61zM426 789v-61h61v61h-61zM548 789v-61h60v61h-60zM669 667h-61v-61h61v61zM548 667h-61v-61h61v61zM426 667h-61v-61h61v61zM304 667h-61v-61h61v61zM183 667h-61v-61h61v61zM61 545v-61h61v61h-61zM183 545v-61h60v61
h-60zM304 545v-61h61v61h-61zM426 545v-61h61v61h-61zM548 545v-61h60v61h-60zM183 423h-61v-61h61v61zM243 423v-61h61v61h-61zM365 423v-61h61v61h-61zM487 423v-61h61v61h-61zM608 423v-61h61v61h-61zM61 302v-61h61v61h-61zM304 302v-61h61v61h-61zM243 241v61h-60v-61
h60zM426 302v-61h61v61h-61zM548 302v-61h60v61h-60zM669 119v61h-61v-61h61zM548 119v61h-61v-61h61zM426 119v61h-61v-61h61zM304 119v61h-61v-61h61zM183 119v61h-61v-61h61zM61 58v-60h61v60h-61zM183 58v-60h60v60h-60zM304 58v-60h61v60h-61zM426 58v-60h61v60h-61z
M548 58v-60h60v60h-60zM669 -125v62h-61v-62h61zM548 -125v62h-61v-62h61zM426 -125v62h-61v-62h61zM304 -125v62h-61v-62h61zM183 -125v62h-61v-62h61zM61 -185v-61h61v61h-61zM183 -185v-61h60v61h-60zM304 -185v-61h61v61h-61zM426 -185v-61h61v61h-61zM548 -185v-61h60
v61h-60z" />
    <glyph glyph-name="filledbox" unicode="&#x25a0;" horiz-adv-x="604" 
d="M71 461h461v-461h-461v461z" />
    <glyph glyph-name="H22073" unicode="&#x25a1;" horiz-adv-x="604" 
d="M71 461h461v-461h-461v461zM108 424v-387h387v387h-387z" />
    <glyph glyph-name="H18543" unicode="&#x25aa;" horiz-adv-x="354" 
d="M290 444v-227h-226v226z" />
    <glyph glyph-name="H18551" unicode="&#x25ab;" horiz-adv-x="354" 
d="M290 444v-227h-226v226zM253 407l-152 -1v-152h152v153z" />
    <glyph glyph-name="filledrect" unicode="&#x25ac;" horiz-adv-x="1000" 
d="M0 343h1000v-188h-1000v188z" />
    <glyph glyph-name="triagup" unicode="&#x25b2;" horiz-adv-x="989" 
d="M148 0l347 693l347 -693h-694z" />
    <glyph glyph-name="triagrt" unicode="&#x25ba;" horiz-adv-x="989" 
d="M141 692l708 -354l-708 -353v707z" />
    <glyph glyph-name="triagdn" unicode="&#x25bc;" horiz-adv-x="989" 
d="M842 678l-347 -693l-347 693h694z" />
    <glyph glyph-name="triaglf" unicode="&#x25c4;" horiz-adv-x="989" 
d="M849 692v-707l-708 353z" />
    <glyph glyph-name="lozenge" unicode="&#x25ca;" horiz-adv-x="494" 
d="M268 694l204 -348l-204 -346h-54l-191 346l191 348h54zM242 647l-166 -301l166 -300l175 300z" />
    <glyph glyph-name="circle" unicode="&#x25cb;" horiz-adv-x="600" 
d="M515 282q0 -89 -63 -152t-152 -63t-152 63t-63 152t63 152t152 63t152 -63t63 -152zM478 282q0 73 -52 125.5t-126 52.5t-126 -52.5t-52 -125.5t52.5 -125.5t125.5 -52.5t125.5 52.5t52.5 125.5z" />
    <glyph glyph-name="H18533" unicode="&#x25cf;" horiz-adv-x="604" 
d="M302 497q88 0 151.5 -63t63.5 -152t-63 -152t-152 -63t-152 63t-63 152q0 92 64 153.5t151 61.5z" />
    <glyph glyph-name="invbullet" unicode="&#x25d8;" horiz-adv-x="600" 
d="M61 0v479h478v-479h-478zM398 239q0 41 -28.5 70t-69.5 29q-40 0 -69.5 -29t-29.5 -70t29 -69.5t70 -28.5t69.5 29t28.5 69z" />
    <glyph glyph-name="invcircle" unicode="&#x25d9;" horiz-adv-x="600" 
d="M19 0v564h564v-564h-564zM516 282q0 88 -63.5 151.5t-151.5 63.5q-89 0 -152.5 -63.5t-63.5 -151.5t63 -151.5t153 -63.5q88 0 151.5 63.5t63.5 151.5zM479 282q0 -73 -52.5 -125.5t-125.5 -52.5q-74 0 -126 52t-52 126t52.5 126t125.5 52t125.5 -52t52.5 -126z" />
    <glyph glyph-name="openbullet" unicode="&#x25e6;" horiz-adv-x="354" 
d="M177 453q49 0 86 -35t37 -87q0 -51 -36 -87t-87 -36t-86.5 36t-35.5 87t36 86.5t86 35.5zM177 416q-35 0 -60 -24.5t-25 -60.5t25 -61t60 -25t60.5 25t25.5 61t-25.5 60.5t-60.5 24.5z" />
    <glyph glyph-name="smileface" unicode="&#x263a;" horiz-adv-x="1020" 
d="M822 253q0 -128 -91.5 -219.5t-219.5 -91.5q-129 0 -220.5 91t-91.5 220q0 128 91.5 219.5t220.5 91.5t220 -91t91 -220zM777 253q0 110 -78.5 188t-187.5 78q-110 0 -188 -78t-78 -188q0 -109 78 -187.5t188 -78.5q109 0 187.5 78.5t78.5 187.5zM431 317
q0 -16 -11.5 -27.5t-28.5 -11.5q-16 0 -27.5 11.5t-11.5 27.5q0 17 11.5 28.5t27.5 11.5q17 0 28.5 -11.5t11.5 -28.5zM669 317q0 -16 -11.5 -27.5t-27.5 -11.5t-28 11.5t-12 27.5q0 17 12 28.5t28 11.5t27.5 -11.5t11.5 -28.5zM367 153l30 17q39 -70 114 -70t113 70l30 -17
q-51 -95 -143 -95q-94 0 -144 95z" />
    <glyph glyph-name="invsmileface" unicode="&#x263b;" horiz-adv-x="1052" 
d="M837 253q0 -128 -91 -219.5t-220 -91.5t-220 91t-91 220q0 128 91.5 219.5t219.5 91.5q129 0 220 -91t91 -220zM446 317q0 17 -11.5 28.5t-27.5 11.5t-28 -11.5t-12 -28.5q0 -16 12 -27.5t28 -11.5q17 0 28 11.5t11 27.5zM685 317q0 17 -11.5 28.5t-27.5 11.5t-28 -11.5
t-12 -28.5q0 -16 11.5 -27.5t28.5 -11.5q16 0 27.5 11.5t11.5 27.5zM383 153q50 -95 143 -95t144 95l-31 17q-38 -70 -113 -70t-113 70z" />
    <glyph glyph-name="sun" unicode="&#x263c;" horiz-adv-x="916" 
d="M440 792h38v-165q93 -3 170 -68l142 138l25 -26l-140 -140q68 -85 70 -175h164v-33h-164q-7 -93 -70 -170l140 -141l-28 -25l-139 137q-82 -61 -170 -68v-165h-38v165q-99 12 -168 68l-145 -137l-23 25l138 141q-61 75 -70 172h-164v33h164q7 96 70 171l-138 140l23 28
l143 -138q88 63 170 68v165zM708 341q0 104 -73.5 177t-176.5 73t-176.5 -73.5t-73.5 -176.5t73 -176.5t177 -73.5q103 0 176.5 73.5t73.5 176.5z" />
    <glyph glyph-name="female" unicode="&#x2640;" horiz-adv-x="552" 
d="M289 235v-178h203v-27h-203v-195h-27v195h-204v27h204v178q-40 0 -92.5 25t-89.5 81.5t-37 125.5q0 96 68.5 164t164.5 68t164 -68.5t68 -163.5q0 -90 -62 -158t-157 -74zM484 466q0 86 -61 147t-147 61t-147.5 -61t-61.5 -147t61.5 -147t147.5 -61t147 61t61 147z" />
    <glyph glyph-name="male" unicode="&#x2642;" horiz-adv-x="666" 
d="M541 670l14 -5q17 -175 78 -300l-12 -8q-73 92 -108 203l-144 -310q54 -21 98 -79.5t44 -130.5q0 -92 -65 -149t-159 -57q-100 0 -168.5 66t-68.5 158t63.5 154t149.5 62q37 0 83 -16l143 311q-104 -44 -223 -51v13q81 25 125.5 48t149.5 91zM259 252q-77 0 -132.5 -55.5
t-55.5 -131.5q0 -84 57 -137.5t134 -53.5q79 0 133.5 55t54.5 131q0 83 -58 137.5t-133 54.5z" />
    <glyph glyph-name="spade" unicode="&#x2660;" horiz-adv-x="533" 
d="M267 601q9 -40 31.5 -82.5t99.5 -112.5q60 -54 83 -88t23 -74q0 -47 -31.5 -78.5t-76.5 -31.5q-75 0 -124 93q0 -112 49.5 -159t135.5 -50l3 -18h-387l4 18q89 0 138 51.5t49 137.5v20q-44 -93 -128 -93q-45 0 -76 32.5t-31 75.5q0 73 92 149q128 105 146 210z" />
    <glyph glyph-name="club" unicode="&#x2663;" horiz-adv-x="661" 
d="M539 0h-414l3 17q75 16 107.5 33t61 67.5t28.5 111.5v21q-27 -57 -70.5 -87t-89.5 -30q-56 0 -96 39.5t-40 97.5q0 54 35.5 94t82.5 40q31 0 80 -25q-33 52 -33 89q0 55 38.5 94t96.5 39t97 -39t39 -91q0 -46 -33 -92q52 26 79 26q51 0 85.5 -40t34.5 -93
q0 -59 -39.5 -98.5t-93.5 -39.5q-38 0 -81.5 24t-81.5 92q2 -77 23.5 -122.5t60 -70.5t116.5 -40z" />
    <glyph glyph-name="heart" unicode="&#x2665;" horiz-adv-x="590" 
d="M296 -12q-16 60 -45 112t-134 190q-49 65 -68.5 103.5t-19.5 79.5q0 54 36.5 91t89.5 37q101 0 141 -123q17 63 56 93t84 30q53 0 89.5 -36.5t36.5 -86.5q0 -41 -20 -87.5t-85 -128.5q-139 -176 -161 -274z" />
    <glyph glyph-name="diamond" unicode="&#x2666;" horiz-adv-x="506" 
d="M252 601q94 -158 226 -306q-25 -25 -104.5 -129t-121.5 -178q-49 93 -223 307q158 187 223 306z" />
    <glyph glyph-name="musicalnote" unicode="&#x266a;" horiz-adv-x="770" 
d="M452 750h29q80 -49 179 -151t99 -140q0 -8 -10 -21.5t-19 -13.5q-14 0 -31 21q-27 32 -95 93t-118 92l13 -671q0 -60 -35 -94.5t-106 -64t-143 -29.5q-96 0 -149 48.5t-53 111.5q0 78 79 136t182 58q94 0 193 -45z" />
    <glyph glyph-name="musicalnotedbl" unicode="&#x266b;" horiz-adv-x="1000" 
d="M406 583l456 143v-636q0 -72 -18 -107.5t-61 -59t-98 -23.5q-71 0 -104 37.5t-33 90.5q0 57 44 98.5t115 41.5q41 0 97 -24v415l-341 -106v-479q0 -60 -14.5 -99t-59 -66.5t-105.5 -27.5q-59 0 -97.5 33.5t-38.5 93.5q0 63 45.5 103t112.5 40q46 0 100 -27v559z" />
    <glyph glyph-name="apple" unicode="&#xf000;" horiz-adv-x="789" 
 />
    <glyph glyph-name="fi" unicode="&#xf001;" horiz-adv-x="486" 
d="M419 617h-69q-14 67 -82 68q-30 0 -50.5 -13.5t-29 -36t-8.5 -80.5v-24h110v-60h-110v-471h-70v471h-69v60h69v24q0 77 17.5 113.5t54 59t87.5 22.5q64 0 105 -37t45 -96zM350 531h69v-531h-69v531z" />
    <glyph glyph-name="fi" unicode="&#xfb01;" horiz-adv-x="486" 
d="M419 617h-69q-14 67 -82 68q-30 0 -50.5 -13.5t-29 -36t-8.5 -80.5v-24h110v-60h-110v-471h-70v471h-69v60h69v24q0 77 17.5 113.5t54 59t87.5 22.5q64 0 105 -37t45 -96zM350 531h69v-531h-69v531z" />
    <glyph glyph-name="fl" unicode="&#xf002;" horiz-adv-x="484" 
d="M294 531v-60h-109v-471h-70v471h-70v60h70v18q0 83 16 119t53 59t86 23t85.5 -24t51.5 -59.5t15 -125.5v-541h-69v544q0 67 -8 90.5t-28.5 38t-47.5 14.5t-48 -15t-30 -42q-6 -20 -6 -99h109z" />
    <glyph glyph-name="fl" unicode="&#xfb02;" horiz-adv-x="484" 
d="M294 531v-60h-109v-471h-70v471h-70v60h70v18q0 83 16 119t53 59t86 23t85.5 -24t51.5 -59.5t15 -125.5v-541h-69v544q0 67 -8 90.5t-28.5 38t-47.5 14.5t-48 -15t-30 -42q-6 -20 -6 -99h109z" />
    <glyph glyph-name="foursuperior" unicode="&#xf003;" horiz-adv-x="344" 
d="M274 746v-258h52v-47h-52v-83h-54v83h-211zM220 488v121l-104 -121h104z" />
    <glyph glyph-name="commaaccent" unicode="&#xf004;" horiz-adv-x="333" 
d="M159 -59l60 -28l-90 -166l-43 19z" />
    <glyph glyph-name="undercommaaccent" unicode="&#xf005;" horiz-adv-x="324" 
d="M114 -62q22 7 46 7q77 0 77 -53q0 -34 -30.5 -56t-81.5 -22q-30 0 -71 11l10 35q33 -7 51 -7q63 0 64 32q0 21 -36 21q-13 0 -35 -7z" />
    <glyph glyph-name="uniF006" unicode="&#xf006;" horiz-adv-x="548" 
d="M0 519h549v-77h-79v-442h-93v442h-208v-442h-91v442h-78v77z" />
    <glyph glyph-name="noGamma" unicode="&#xf100;" horiz-adv-x="542" 
d="M86 716h435v-85h-340v-631h-95v716z" />
    <glyph glyph-name="noTheta" unicode="&#xf101;" horiz-adv-x="747" 
d="M377 734q146 0 230 -99.5t84 -277.5q0 -110 -36 -197.5t-108 -133.5t-168 -46q-103 0 -172 42.5t-110 127.5t-41 208q0 170 81.5 273t239.5 103zM377 657q-104 0 -162 -73.5t-58 -223.5q0 -108 26 -171.5t73 -97t116 -33.5q103 0 161 73t58 233q0 138 -56.5 215.5
t-157.5 77.5zM240 405h267v-82h-267v82z" />
    <glyph glyph-name="noPhi" unicode="&#xf102;" horiz-adv-x="836" 
d="M372 734h94v-95q314 -11 314 -285q0 -276 -314 -287v-152h-94v152q-315 11 -316 287q0 129 73.5 203.5t242.5 81.5v95zM372 564q-213 -2 -213 -211q0 -200 213 -212v423zM466 564v-423q212 4 213 213q-1 206 -213 210z" />
    <glyph glyph-name="noalpha" unicode="&#xf103;" horiz-adv-x="628" 
d="M465 94q-67 -107 -182 -108q-111 0 -171.5 75.5t-60.5 186.5q0 128 63.5 203.5t171.5 75.5q119 0 176 -96l22 88h95q-35 -127 -35 -251q0 -141 41 -268h-98q-15 55 -22 94zM303 460q-71 0 -110.5 -53t-39.5 -153q0 -90 38.5 -145t111.5 -55q71 0 110.5 51t39.5 154
q0 91 -36.5 146t-113.5 55z" />
    <glyph glyph-name="nodelta" unicode="&#xf104;" horiz-adv-x="620" 
d="M318 460q-78 60 -102 98.5t-24 79.5q0 57 48.5 89.5t133.5 32.5q61 0 113 -15v-65q-60 10 -91 10q-48 0 -76 -17.5t-28 -44.5q0 -21 15.5 -41t56.5 -52q119 -93 162 -158.5t43 -142.5q0 -105 -68.5 -176.5t-191.5 -71.5q-116 0 -187 70.5t-71 180.5q0 74 32.5 123
t81.5 76.5t109 27.5q17 0 44 -4zM313 411q-77 0 -119 -48t-42 -130q0 -83 43 -131.5t116 -48.5q67 0 111.5 45.5t44.5 133.5q0 75 -38 127t-116 52z" />
    <glyph glyph-name="noepsilon" unicode="&#xf105;" horiz-adv-x="511" 
d="M460 -6q-50 -8 -96 -8q-146 0 -229.5 69.5t-83.5 199.5q0 118 75 195t223 77q49 0 105 -6v-72l-13 1q-63 4 -87 4q-179 0 -199 -156h295v-69h-296q1 -74 55.5 -121.5t167.5 -47.5q47 0 83 7v-73z" />
    <glyph glyph-name="nosigma" unicode="&#xf106;" horiz-adv-x="682" 
d="M498 445q69 -66 69 -187q0 -124 -67.5 -198t-189.5 -74q-120 0 -189.5 72.5t-69.5 199.5q0 126 69 197.5t177 71.5q21 0 76 -4q21 -2 65 -3h226v-75h-166zM312 466q-161 0 -161 -216q0 -88 39.5 -142.5t117.5 -54.5q81 0 119.5 55t38.5 154q0 88 -37 146t-117 58z" />
    <glyph glyph-name="notau" unicode="&#xf107;" horiz-adv-x="479" 
d="M20 519h439v-78h-172v-441h-95v441h-172v78z" />
    <glyph glyph-name="nophi" unicode="&#xf108;" horiz-adv-x="771" 
d="M341 650h92v-125q131 -2 209.5 -67t78.5 -192q0 -85 -27 -140.5t-95.5 -93t-166.5 -39.5v-182h-93v182q-120 1 -204 64t-84 205q0 132 78 195.5t212 68.5v124zM340 459q-64 -2 -104.5 -23.5t-61 -66t-20.5 -108.5q0 -200 186 -201v399zM433 459v-399q186 1 185 202
q1 195 -185 197z" />
  </font>
</defs>
</svg>
